<svg width="768" height="768" viewBox="0 0 768 768" fill="none" xmlns="http://www.w3.org/2000/svg">
<path d="M676.931 405.135C680.003 364.324 670.51 321.715 657.792 283.791C638.976 227.328 602.235 169.467 540.488 156.104C504.883 148.424 468.649 156.657 438.113 175.949C408.76 194.504 385.889 218.48 349.778 223.119C313.267 227.819 275.804 225.93 239.109 225.93C144.753 225.93 68.183 325.048 87.3216 428.298C106.46 531.548 196.715 603.141 273.285 603.141C342.098 603.141 398.715 561.869 464.072 550.779C496.481 545.28 529.029 551.793 561.101 543.56C598.379 533.975 633.431 511.135 654.09 478.064C668.16 455.516 675.01 430.679 676.931 405.135Z" fill="url(#paint0_linear_1_2899)"/>
<path opacity="0.7" d="M676.931 405.135C680.003 364.324 670.51 321.715 657.792 283.791C638.976 227.328 602.235 169.467 540.488 156.104C504.883 148.424 468.649 156.657 438.113 175.949C408.76 194.504 385.889 218.48 349.778 223.119C313.267 227.819 275.804 225.93 239.109 225.93C144.753 225.93 68.183 325.048 87.3216 428.298C106.46 531.548 196.715 603.141 273.285 603.141C342.098 603.141 398.715 561.869 464.072 550.779C496.481 545.28 529.029 551.793 561.101 543.56C598.379 533.975 633.431 511.135 654.09 478.064C668.16 455.516 675.01 430.679 676.931 405.135Z" fill="white"/>
<path d="M665.886 390.804C665.886 390.804 665.886 383.124 655.134 372.48C644.382 361.835 637.562 355.661 637.562 355.661C637.562 355.661 632.217 373.233 642.17 383.939C649.477 391.458 657.4 398.353 665.856 404.552L665.886 390.804Z" fill="url(#paint1_linear_1_2899)"/>
<path d="M650.373 438.513C650.373 438.513 650.373 430.833 639.621 420.188C628.869 409.544 622.08 403.369 622.08 403.369C622.08 403.369 616.719 420.941 626.688 431.647C633.994 439.166 641.917 446.061 650.373 452.26V438.513Z" fill="url(#paint2_linear_1_2899)"/>
<path d="M665.21 403.814C665.21 403.814 666.024 396.227 677.79 386.719C689.556 377.211 697.036 371.866 697.036 371.866C697.036 371.866 700.492 389.898 689.495 399.514C681.435 406.22 672.829 412.242 663.767 417.516L665.21 403.814Z" fill="url(#paint3_linear_1_2899)"/>
<path d="M646.471 460.155C646.471 460.155 648.007 452.69 660.771 444.472C673.536 436.255 681.461 431.724 681.461 431.724C681.461 431.724 682.997 450.033 671.063 458.404C662.342 464.228 653.15 469.315 643.583 473.61L646.471 460.155Z" fill="url(#paint4_linear_1_2899)"/>
<path d="M649.989 521.595C649.989 521.595 649.989 513.915 660.741 503.255C671.493 492.595 678.297 486.451 678.297 486.451C678.297 486.451 683.658 504.023 673.689 514.714C666.385 522.24 658.463 529.141 650.004 535.342L649.989 521.595Z" fill="url(#paint5_linear_1_2899)"/>
<path d="M649.82 536.586C649.82 536.586 650.895 529.029 641.832 516.925C632.77 504.822 626.826 497.787 626.826 497.787C626.826 497.787 619.038 514.422 627.348 526.418C633.508 534.902 640.367 542.855 647.853 550.195L649.82 536.586Z" fill="url(#paint6_linear_1_2899)"/>
<path d="M639.267 581.023C639.267 581.023 639.267 573.343 650.019 562.698C660.771 552.054 667.591 545.879 667.591 545.879C667.591 545.879 672.936 563.451 662.983 574.157C655.674 581.678 647.752 588.578 639.298 594.785L639.267 581.023Z" fill="url(#paint7_linear_1_2899)"/>
<path d="M646.41 621.312C646.41 621.312 644.474 613.924 652.108 600.868C659.742 587.812 664.857 580.163 664.857 580.163C664.857 580.163 674.472 595.799 667.576 608.671C662.416 617.796 656.502 626.474 649.896 634.614L646.41 621.312Z" fill="url(#paint8_linear_1_2899)"/>
<path d="M666.854 388.854C666.316 396.807 665.342 404.724 663.935 412.57C659.696 434.412 649.128 448.512 644.904 468.234C640.68 487.956 652.815 513.377 649.512 538.721C646.21 564.065 636.41 578.15 639.221 595.062C642.032 611.973 656.839 657.777 656.839 657.777" stroke="#263238" stroke-linecap="round" stroke-linejoin="round"/>
<path d="M665.118 408.898L676.638 400.051" stroke="#263238" stroke-linecap="round" stroke-linejoin="round"/>
<path d="M665.656 398.715L660.817 390.129" stroke="#263238" stroke-linecap="round" stroke-linejoin="round"/>
<path d="M645.549 467.328C645.549 467.328 655.195 460.093 665.118 452.859" stroke="#263238" stroke-linecap="round" stroke-linejoin="round"/>
<path d="M650.372 452.26C650.372 452.26 642.324 436.5 633.215 426.056" stroke="#263238" stroke-linecap="round" stroke-linejoin="round"/>
<path d="M650.373 532.47C655.875 522.3 662.829 512.987 671.016 504.822" stroke="#263238" stroke-linecap="round" stroke-linejoin="round"/>
<path d="M648.499 543.191C645.571 536.296 642.072 529.658 638.038 523.346C632.417 515.036 631.603 513.961 631.603 513.961" stroke="#263238" stroke-linecap="round" stroke-linejoin="round"/>
<path d="M639.267 595.062C641.716 589.008 644.622 583.149 647.961 577.536C651.301 572.319 655.067 567.387 659.22 562.79" stroke="#263238" stroke-linecap="round" stroke-linejoin="round"/>
<path d="M649.896 634.614C649.336 628.825 650.333 622.992 652.784 617.718C656.808 609.946 661.355 599.762 663.229 595.738" stroke="#263238" stroke-linecap="round" stroke-linejoin="round"/>
<path d="M578.611 492.872C578.611 492.872 577.781 488.079 583.326 480.2C588.871 472.32 592.542 467.758 592.542 467.758C592.542 467.758 597.796 478.203 592.727 485.975C588.962 491.488 584.744 496.677 580.116 501.489L578.611 492.872Z" fill="url(#paint9_linear_1_2899)"/>
<path d="M593.525 521.103C593.525 521.103 592.696 516.311 598.241 508.431C603.786 500.552 607.457 495.99 607.457 495.99C607.457 495.99 612.71 506.435 607.641 514.222C603.874 519.728 599.656 524.912 595.031 529.72L593.525 521.103Z" fill="url(#paint10_linear_1_2899)"/>
<path d="M580.439 500.951C580.439 500.951 579.118 496.343 570.7 491.597C562.283 486.85 557.03 484.362 557.03 484.362C557.03 484.362 556.815 496.051 564.71 500.874C570.49 504.202 576.537 507.043 582.789 509.368L580.439 500.951Z" fill="url(#paint11_linear_1_2899)"/>
<path d="M598.318 534.251C598.318 534.251 596.505 529.736 587.658 525.957C578.81 522.179 573.281 520.212 573.281 520.212C573.281 520.212 574.294 531.855 582.712 535.818C588.811 538.521 595.126 540.709 601.589 542.362L598.318 534.251Z" fill="url(#paint12_linear_1_2899)"/>
<path d="M602.772 573.158C602.772 573.158 601.958 568.366 594.078 562.821C586.198 557.276 581.237 554.189 581.237 554.189C581.237 554.189 579.793 565.786 587.181 571.407C592.579 575.338 598.297 578.806 604.277 581.775L602.772 573.158Z" fill="url(#paint13_linear_1_2899)"/>
<path d="M604.523 582.543C604.523 582.543 602.987 577.935 607.395 569.334C611.803 560.732 614.722 555.709 614.722 555.709C614.722 555.709 621.403 565.294 617.502 573.727C614.563 579.713 611.125 585.442 607.226 590.853L604.523 582.543Z" fill="url(#paint14_linear_1_2899)"/>
<path d="M617.948 621.174C617.948 621.174 618.5 616.351 626.042 610.422C633.584 604.493 638.33 601.067 638.33 601.067C638.33 601.067 640.435 612.572 633.384 618.608C628.22 622.834 622.713 626.62 616.918 629.929L617.948 621.174Z" fill="url(#paint15_linear_1_2899)"/>
<path d="M615.935 609.254C615.935 609.254 615.106 604.462 607.242 598.917C599.377 593.372 594.431 590.285 594.431 590.285C594.431 590.285 592.988 601.881 600.376 607.519C605.777 611.443 611.495 614.91 617.471 617.887L615.935 609.254Z" fill="url(#paint16_linear_1_2899)"/>
<path d="M615.936 635.305C615.936 635.305 616.335 630.451 610.129 623.094C603.924 615.736 599.9 611.497 599.9 611.497C599.9 611.497 595.553 622.341 601.282 629.668C605.482 634.827 610.106 639.626 615.106 644.014L615.936 635.305Z" fill="url(#paint17_linear_1_2899)"/>
<path d="M577.796 491.735C578.998 496.666 580.47 501.527 582.205 506.296C587.227 519.537 595.384 527.232 600.176 539.136C604.968 551.04 600.176 568.32 604.907 583.849C609.638 599.378 617.471 607.15 617.471 618.056C617.471 628.961 613.232 659.297 613.232 659.297" stroke="#263238" stroke-linecap="round" stroke-linejoin="round"/>
<path d="M581.068 504.115L572.881 499.83" stroke="#263238" stroke-linecap="round" stroke-linejoin="round"/>
<path d="M579.625 497.787L581.713 491.889" stroke="#263238" stroke-linecap="round" stroke-linejoin="round"/>
<path d="M599.669 538.644C599.669 538.644 592.834 535.158 585.845 531.686" stroke="#263238" stroke-linecap="round" stroke-linejoin="round"/>
<path d="M595.015 529.72C597.03 523.392 599.68 517.283 602.926 511.488" stroke="#263238" stroke-linecap="round" stroke-linejoin="round"/>
<path d="M603.724 580.009C599.167 574.241 593.796 569.166 587.781 564.941" stroke="#263238" stroke-linecap="round" stroke-linejoin="round"/>
<path d="M606.059 586.522C607.152 581.887 608.627 577.351 610.467 572.959C613.094 567.137 613.539 566.369 613.539 566.369" stroke="#263238" stroke-linecap="round" stroke-linejoin="round"/>
<path d="M617.103 626.335C619.767 623.034 622.717 619.976 625.92 617.195C627.957 615.695 629.868 614.031 631.634 612.219" stroke="#263238" stroke-linecap="round" stroke-linejoin="round"/>
<path d="M617.472 618.056C615.277 614.516 612.818 611.148 610.114 607.98C607.452 605.073 604.554 602.392 601.451 599.962" stroke="#263238" stroke-linecap="round" stroke-linejoin="round"/>
<path d="M615.106 644.014C614.831 640.321 613.575 636.768 611.466 633.723C608.102 629.284 604.139 623.386 602.526 621.066" stroke="#263238" stroke-linecap="round" stroke-linejoin="round"/>
<path d="M142.34 425.964L135.613 406.748L142.34 414.904L137.057 386.074L145.228 406.748L148.116 366.367L152.924 404.813L158.207 397.133V406.748L164.459 393.769L161.095 416.348L166.855 412.508L157.731 424.996L142.34 425.964Z" fill="url(#paint18_linear_1_2899)"/>
<path d="M163.491 421.156H138.5L143.001 471.613H158.991L163.491 421.156Z" fill="#263238" stroke="#263238" stroke-linecap="round" stroke-linejoin="round"/>
<path d="M210.37 471.045H125.229V651.372H210.37V471.045Z" fill="white" stroke="#263238" stroke-linecap="round" stroke-linejoin="round"/>
<path d="M215.024 471.045H167.792V651.372H215.024V471.045Z" fill="white" stroke="#263238" stroke-linecap="round" stroke-linejoin="round"/>
<path d="M209.709 471.045H167.792V651.372H209.709V471.045Z" fill="#263238" stroke="#263238" stroke-linecap="round" stroke-linejoin="round"/>
<path d="M204.994 609.439H167.792V646.364H204.994V609.439Z" fill="url(#paint19_linear_1_2899)" stroke="#263238" stroke-linecap="round" stroke-linejoin="round"/>
<path d="M204.994 611.436H167.792V616.166H204.994V611.436Z" fill="white" stroke="#263238" stroke-linecap="round" stroke-linejoin="round"/>
<path d="M204.994 638.623H167.792V643.353H204.994V638.623Z" fill="white" stroke="#263238" stroke-linecap="round" stroke-linejoin="round"/>
<path d="M174.842 610.207V656.901" stroke="#263238" stroke-linecap="round" stroke-linejoin="round"/>
<path d="M187.821 610.207V656.901" stroke="#263238" stroke-linecap="round" stroke-linejoin="round"/>
<path d="M199.219 610.207V656.901" stroke="#263238" stroke-linecap="round" stroke-linejoin="round"/>
<path d="M204.994 477.742H167.792V532.04H204.994V477.742Z" fill="url(#paint20_linear_1_2899)" stroke="#263238" stroke-linecap="round" stroke-linejoin="round"/>
<path d="M204.994 480.015H167.792V485.391H204.994V480.015Z" fill="white" stroke="#263238" stroke-linecap="round" stroke-linejoin="round"/>
<path d="M204.994 514.821H167.792V520.197H204.994V514.821Z" fill="white" stroke="#263238" stroke-linecap="round" stroke-linejoin="round"/>
<path d="M174.842 478.602V531.671" stroke="#263238" stroke-linecap="round" stroke-linejoin="round"/>
<path d="M187.821 478.602V531.671" stroke="#263238" stroke-linecap="round" stroke-linejoin="round"/>
<path d="M199.219 478.602V531.671" stroke="#263238" stroke-linecap="round" stroke-linejoin="round"/>
<path d="M204.994 543.176H167.792V597.473H204.994V543.176Z" fill="url(#paint21_linear_1_2899)" stroke="#263238" stroke-linecap="round" stroke-linejoin="round"/>
<path d="M204.994 545.449H167.792V550.825H204.994V545.449Z" fill="white" stroke="#263238" stroke-linecap="round" stroke-linejoin="round"/>
<path d="M204.994 580.255H167.792V585.631H204.994V580.255Z" fill="white" stroke="#263238" stroke-linecap="round" stroke-linejoin="round"/>
<path d="M174.842 544.051V597.105" stroke="#263238" stroke-linecap="round" stroke-linejoin="round"/>
<path d="M187.821 544.051V597.105" stroke="#263238" stroke-linecap="round" stroke-linejoin="round"/>
<path d="M199.219 544.051V597.105" stroke="#263238" stroke-linecap="round" stroke-linejoin="round"/>
<path d="M210.355 531.287H167.792V537.462H210.355V531.287Z" fill="white" stroke="#263238" stroke-linecap="round" stroke-linejoin="round"/>
<path d="M210.355 597.135H167.792V603.31H210.355V597.135Z" fill="white" stroke="#263238" stroke-linecap="round" stroke-linejoin="round"/>
<path d="M210.354 471.045V651.356" stroke="#263238" stroke-linecap="round" stroke-linejoin="round"/>
<path d="M161.786 471.045V651.356H167.792V477.742H209.617V470.968L161.786 471.045Z" fill="white" stroke="#263238" stroke-linecap="round" stroke-linejoin="round"/>
<path d="M167.792 477.742V471.045" stroke="#263238" stroke-linecap="round" stroke-linejoin="round"/>
<path d="M210.033 388.209C205.563 379.592 203.689 373.417 203.689 371.988C203.689 369.162 209.833 367.473 209.833 367.473C219.418 362.404 264.499 369.731 284.79 373.11C296.148 375.09 307.639 376.219 319.165 376.489C319.165 376.489 321.976 374.246 325.309 371.42C328.643 368.594 344.463 350.008 350.669 348.38C356.874 346.752 362.496 350.638 362.496 350.638C362.496 350.638 372.649 356.782 370.944 357.965C369.239 359.148 344.463 380.498 338.258 384.445C332.052 388.393 319.104 386.703 307.83 388.961C298.122 390.897 258.801 393.293 249.784 394.03C243.013 395.636 235.906 395.044 229.494 392.34" fill="white"/>
<mask id="mask0_1_2899" style="mask-type:luminance" maskUnits="userSpaceOnUse" x="203" y="347" width="169" height="48">
<path d="M210.033 388.209C205.563 379.592 203.689 373.417 203.689 371.988C203.689 369.162 209.833 367.473 209.833 367.473C219.418 362.404 264.499 369.731 284.79 373.11C296.148 375.09 307.639 376.219 319.165 376.489C319.165 376.489 321.976 374.246 325.309 371.42C328.643 368.594 344.463 350.008 350.669 348.38C356.874 346.752 362.496 350.638 362.496 350.638C362.496 350.638 372.649 356.782 370.944 357.965C369.239 359.148 344.463 380.498 338.258 384.445C332.052 388.393 319.104 386.703 307.83 388.961C298.122 390.897 258.801 393.293 249.784 394.03C243.013 395.636 235.906 395.044 229.494 392.34" fill="white"/>
</mask>
<g mask="url(#mask0_1_2899)">
<path d="M362.603 350.577C362.603 350.577 356.966 346.629 350.776 348.319C344.586 350.008 328.796 368.609 325.417 371.359C322.038 374.108 319.273 376.428 319.273 376.428C307.746 376.158 296.256 375.028 284.897 373.048C264.607 369.669 219.525 362.296 209.94 367.411C209.94 367.411 203.796 369.101 203.796 371.927C204.01 373.507 204.417 375.055 205.01 376.535L205.855 376.842C205.855 376.842 217.114 375.659 241.413 376.243C265.713 376.827 321.915 380.16 325.524 381.466C327.06 382.049 337.951 379.592 350.024 375.322C359.24 367.811 370.068 358.426 371.159 357.765C372.756 356.767 362.603 350.577 362.603 350.577Z" fill="url(#paint22_linear_1_2899)"/>
<path opacity="0.5" d="M362.603 350.577C362.603 350.577 356.966 346.629 350.776 348.319C344.586 350.008 328.796 368.609 325.417 371.359C322.038 374.108 319.273 376.428 319.273 376.428C307.746 376.158 296.256 375.028 284.897 373.048C264.607 369.669 219.525 362.296 209.94 367.411C209.94 367.411 203.796 369.101 203.796 371.927C204.01 373.507 204.417 375.055 205.01 376.535L205.855 376.842C205.855 376.842 217.114 375.659 241.413 376.243C265.713 376.827 321.915 380.16 325.524 381.466C327.06 382.049 337.951 379.592 350.024 375.322C359.24 367.811 370.068 358.426 371.159 357.765C372.756 356.767 362.603 350.577 362.603 350.577Z" fill="white"/>
</g>
<path d="M210.033 388.209C205.563 379.592 203.689 373.417 203.689 371.988C203.689 369.162 209.833 367.473 209.833 367.473C219.418 362.404 264.499 369.731 284.79 373.11C296.148 375.09 307.639 376.219 319.165 376.489C319.165 376.489 321.976 374.246 325.309 371.42C328.643 368.594 344.463 350.008 350.669 348.38C356.874 346.752 362.496 350.638 362.496 350.638C362.496 350.638 372.649 356.782 370.944 357.965C369.239 359.148 344.463 380.498 338.258 384.445C332.052 388.393 319.104 386.703 307.83 388.961C298.122 390.897 258.801 393.293 249.784 394.03C243.013 395.636 235.906 395.044 229.494 392.34" stroke="#263238" stroke-linecap="round" stroke-linejoin="round"/>
<path d="M432.614 438.313C433.634 436.378 435.163 434.758 437.036 433.629C438.91 432.5 441.056 431.905 443.243 431.908H545.695C545.695 431.908 553.098 431.908 550.886 445.978C548.674 460.047 518.292 545.956 510.95 571.93C503.608 597.903 502.057 652.646 502.057 652.646H379.177C379.177 652.646 388.915 521.733 432.614 438.313Z" fill="white"/>
<mask id="mask1_1_2899" style="mask-type:luminance" maskUnits="userSpaceOnUse" x="379" y="431" width="173" height="222">
<path d="M432.614 438.313C433.634 436.378 435.163 434.758 437.036 433.629C438.91 432.5 441.056 431.905 443.243 431.908H545.695C545.695 431.908 553.098 431.908 550.886 445.978C548.674 460.047 518.292 545.956 510.95 571.93C503.608 597.903 502.057 652.646 502.057 652.646H379.177C379.177 652.646 388.915 521.733 432.614 438.313Z" fill="white"/>
</mask>
<g mask="url(#mask1_1_2899)">
<path opacity="0.16" d="M478.756 431.908H443.243C441.056 431.905 438.91 432.5 437.036 433.629C435.163 434.758 433.634 436.378 432.614 438.313C388.915 521.733 379.069 652.6 379.069 652.6H434.181L447.775 600.975L504.453 612.664C504.852 608.333 505.313 603.924 505.851 599.578L504.607 585.754C504.607 585.754 492.994 573.542 489.339 570.486C485.683 567.429 488.11 561.915 487.496 538.092C486.881 514.268 465.5 497.142 457.544 482.473C449.587 467.804 461.829 458.634 472.827 443.965C476.744 438.666 478.341 434.765 478.756 431.908Z" fill="black"/>
</g>
<path d="M432.614 438.313C433.634 436.378 435.163 434.758 437.036 433.629C438.91 432.5 441.056 431.905 443.243 431.908H545.695C545.695 431.908 553.098 431.908 550.886 445.978C548.674 460.047 518.292 545.956 510.95 571.93C503.608 597.903 502.057 652.646 502.057 652.646H379.177C379.177 652.646 388.915 521.733 432.614 438.313Z" stroke="#263238" stroke-linecap="round" stroke-linejoin="round"/>
<path d="M527.923 456.346C517.57 480.507 495.667 576.154 492.104 652.6H501.995C501.995 652.6 503.531 597.796 510.889 571.884C518.246 545.971 548.659 460.047 550.825 445.932C552.991 431.816 545.633 431.862 545.633 431.862C545.633 431.862 536.233 436.977 527.923 456.346Z" fill="#263238" stroke="#263238" stroke-linecap="round" stroke-linejoin="round"/>
<path d="M347.95 408.054C347.95 408.054 331.607 398.469 325.417 381.573C319.227 364.677 373.878 337.613 397.609 335.923C421.34 334.234 428.037 340.424 442.153 364.662C456.269 388.9 465.823 422.139 458.496 438.482C451.169 454.825 438.774 458.772 447.744 472.274C456.714 485.775 482.12 524.114 480.43 542.147C478.74 560.179 461.276 575.939 435.886 577.659C410.496 579.379 376.704 564.127 348.534 539.259C320.363 514.391 327.675 477.819 337.782 465.992C347.889 454.164 363.141 449.649 364.262 437.821C365.384 425.994 347.95 408.054 347.95 408.054Z" fill="#263238" stroke="#263238" stroke-linecap="round" stroke-linejoin="round"/>
<path d="M417.607 381.312C426.286 397.471 437.145 419.113 440.54 432.184C446.469 455.071 415.964 469.478 424.427 480.492" stroke="white" stroke-linecap="round" stroke-linejoin="round"/>
<path d="M405.78 360.146C405.78 360.146 409.16 365.906 413.829 374.385" stroke="white" stroke-linecap="round" stroke-linejoin="round"/>
<path d="M451.308 400.804C452.309 403.832 452.958 406.966 453.243 410.143" stroke="white" stroke-linecap="round" stroke-linejoin="round"/>
<path d="M411.648 351.744C411.648 351.744 438.344 371.466 449.003 395.075" stroke="white" stroke-linecap="round" stroke-linejoin="round"/>
<path d="M374.599 366.536C355.538 371.881 328.12 380.559 330.347 385.567" stroke="white" stroke-linecap="round" stroke-linejoin="round"/>
<path d="M392.218 361.836C392.218 361.836 388.147 362.849 382.08 364.477" stroke="white" stroke-linecap="round" stroke-linejoin="round"/>
<path d="M368.64 351.882C379.558 348.441 390.994 346.934 402.432 347.428" stroke="white" stroke-linecap="round" stroke-linejoin="round"/>
<path d="M360.868 355.062C362.594 354.162 364.38 353.382 366.213 352.727" stroke="white" stroke-linecap="round" stroke-linejoin="round"/>
<path d="M210.033 388.209C207.446 383.471 205.385 378.465 203.889 373.279C205.378 378.467 207.439 383.475 210.033 388.209ZM203.72 372.403C203.72 372.495 203.72 372.603 203.72 372.741C203.75 372.603 203.735 372.495 203.72 372.403ZM210.033 388.193C215.777 399.074 222.924 409.154 231.291 418.176C251.581 440.156 310.195 497.649 315.771 501.596C321.346 505.544 319.718 516.802 315.771 528.077C311.823 539.351 297.17 555.725 297.738 573.727C298.306 591.729 303.882 619.377 303.375 625.014C302.868 630.651 288.768 649.82 288.768 649.82H434.166C434.166 649.82 416.041 626.78 416.041 618.9C416.041 611.021 440.924 510.059 442.045 502.733C443.167 495.406 438.666 490.337 429.65 489.769C420.633 489.201 386.258 481.874 384.568 476.237C382.879 470.6 393.584 449.188 393.584 449.188L359.793 450.877C359.793 450.877 358.103 465.531 355.845 468.357C353.587 471.183 350.208 465.531 342.313 461.599C334.418 457.666 319.273 454.272 313.574 449.756C307.876 445.24 253.839 394.46 253.839 394.46" fill="white"/>
<mask id="mask2_1_2899" style="mask-type:luminance" maskUnits="userSpaceOnUse" x="203" y="372" width="240" height="278">
<path d="M210.033 388.209C207.446 383.471 205.385 378.465 203.889 373.279C205.378 378.467 207.439 383.475 210.033 388.209ZM203.72 372.403C203.72 372.495 203.72 372.603 203.72 372.741C203.75 372.603 203.735 372.495 203.72 372.403ZM210.033 388.193C215.777 399.074 222.924 409.154 231.291 418.176C251.581 440.156 310.195 497.649 315.771 501.596C321.346 505.544 319.718 516.802 315.771 528.077C311.823 539.351 297.17 555.725 297.738 573.727C298.306 591.729 303.882 619.377 303.375 625.014C302.868 630.651 288.768 649.82 288.768 649.82H434.166C434.166 649.82 416.041 626.78 416.041 618.9C416.041 611.021 440.924 510.059 442.045 502.733C443.167 495.406 438.666 490.337 429.65 489.769C420.633 489.201 386.258 481.874 384.568 476.237C382.879 470.6 393.584 449.188 393.584 449.188L359.793 450.877C359.793 450.877 358.103 465.531 355.845 468.357C353.587 471.183 350.208 465.531 342.313 461.599C334.418 457.666 319.273 454.272 313.574 449.756C307.876 445.24 253.839 394.46 253.839 394.46" fill="white"/>
</mask>
<g mask="url(#mask2_1_2899)">
<path d="M322.207 454.103C325.017 459.018 327.828 463.457 327.828 463.457C327.828 463.457 337.305 468.787 339.671 468.787C342.036 468.787 356.26 476.467 356.26 476.467C356.26 476.467 368.118 473.503 363.94 463.427C362.622 460.847 360.958 458.46 358.994 456.33C358.287 460.8 357.151 466.652 355.814 468.326C353.556 471.137 350.177 465.5 342.282 461.568C337.167 459.018 328.888 456.684 322.207 454.103Z" fill="url(#paint23_linear_1_2899)"/>
<path d="M293.269 431.293C275.866 415.181 253.839 394.522 253.839 394.522L241.029 392.678L239.493 393.539C239.493 393.539 275.651 425.533 283.346 429.097C286.459 430.528 289.842 431.277 293.269 431.293Z" fill="url(#paint24_linear_1_2899)"/>
<path d="M311.501 447.974L310.119 446.746C310.825 447.913 311.225 448.65 311.225 448.65L311.501 447.974Z" fill="url(#paint25_linear_1_2899)"/>
<g opacity="0.5">
<path d="M322.207 454.103C325.017 459.018 327.828 463.457 327.828 463.457C327.828 463.457 337.305 468.787 339.671 468.787C342.036 468.787 356.26 476.467 356.26 476.467C356.26 476.467 368.118 473.503 363.94 463.427C362.622 460.847 360.958 458.46 358.994 456.33C358.287 460.8 357.151 466.652 355.814 468.326C353.556 471.137 350.177 465.5 342.282 461.568C337.167 459.018 328.888 456.684 322.207 454.103Z" fill="white"/>
<path d="M293.269 431.293C275.866 415.181 253.839 394.522 253.839 394.522L241.029 392.678L239.493 393.539C239.493 393.539 275.651 425.533 283.346 429.097C286.459 430.528 289.842 431.277 293.269 431.293Z" fill="white"/>
<path d="M311.501 447.974L310.119 446.746C310.825 447.913 311.225 448.65 311.225 448.65L311.501 447.974Z" fill="white"/>
</g>
</g>
<path d="M203.689 371.988C203.682 372.096 203.682 372.204 203.689 372.311M203.889 373.279C205.385 378.465 207.446 383.471 210.033 388.209C207.439 383.475 205.378 378.467 203.889 373.279ZM203.889 373.279C203.846 373.133 203.815 372.984 203.796 372.833M210.033 388.193C215.777 399.074 222.924 409.154 231.291 418.176C251.581 440.156 310.195 497.649 315.771 501.596C321.346 505.544 319.718 516.802 315.771 528.077C311.823 539.351 297.17 555.725 297.738 573.727C298.306 591.729 303.882 619.377 303.375 625.014C302.868 630.651 288.768 649.82 288.768 649.82H434.166C434.166 649.82 416.041 626.78 416.041 618.9C416.041 611.021 440.924 510.059 442.045 502.733C443.167 495.406 438.666 490.337 429.65 489.769C420.633 489.201 386.258 481.874 384.568 476.237C382.879 470.6 393.584 449.188 393.584 449.188L359.793 450.877C359.793 450.877 358.103 465.531 355.845 468.357C353.587 471.183 350.208 465.531 342.313 461.599C334.418 457.666 319.273 454.272 313.574 449.756C307.876 445.24 253.839 394.46 253.839 394.46M203.72 372.403C203.72 372.495 203.72 372.603 203.72 372.741C203.75 372.603 203.735 372.495 203.72 372.403Z" stroke="#263238" stroke-linecap="round" stroke-linejoin="round"/>
<path d="M253.839 394.522C253.839 394.522 235.837 394.859 225.792 386.58" stroke="#263238" stroke-linecap="round" stroke-linejoin="round"/>
<path d="M384.584 476.237C382.894 470.615 393.6 449.188 393.6 449.188L359.808 450.877C359.808 450.877 358.118 465.531 355.86 468.357C353.603 471.183 350.223 465.531 342.328 461.599C341.729 461.292 341.069 461 340.393 460.708L338.35 492.826C338.35 492.826 341.315 523.93 376.858 518.016C391.25 515.62 406.61 502.779 419.866 488.34C406.226 485.837 385.874 480.553 384.584 476.237Z" fill="white"/>
<mask id="mask3_1_2899" style="mask-type:luminance" maskUnits="userSpaceOnUse" x="338" y="449" width="82" height="70">
<path d="M384.584 476.237C382.894 470.615 393.6 449.188 393.6 449.188L359.808 450.877C359.808 450.877 358.118 465.531 355.86 468.357C353.603 471.183 350.223 465.531 342.328 461.599C341.729 461.292 341.069 461 340.393 460.708L338.35 492.826C338.35 492.826 341.315 523.93 376.858 518.016C391.25 515.62 406.61 502.779 419.866 488.34C406.226 485.837 385.874 480.553 384.584 476.237Z" fill="white"/>
</mask>
<g mask="url(#mask3_1_2899)">
<path d="M383.631 453.443C383.631 453.443 381.588 464.901 379.945 477.573C378.301 490.245 377.088 499.676 377.088 499.676L384.584 476.237L393.032 451.4C393.032 451.4 384.86 451.4 383.631 453.443Z" fill="url(#paint26_linear_1_2899)"/>
<path opacity="0.5" d="M383.631 453.443C383.631 453.443 381.588 464.901 379.945 477.573C378.301 490.245 377.088 499.676 377.088 499.676L384.584 476.237L393.032 451.4C393.032 451.4 384.86 451.4 383.631 453.443Z" fill="white"/>
</g>
<path d="M384.584 476.237C382.894 470.615 393.6 449.188 393.6 449.188L359.808 450.877C359.808 450.877 358.118 465.531 355.86 468.357C353.603 471.183 350.223 465.531 342.328 461.599C341.729 461.292 341.069 461 340.393 460.708L338.35 492.826C338.35 492.826 341.315 523.93 376.858 518.016C391.25 515.62 406.61 502.779 419.866 488.34C406.226 485.837 385.874 480.553 384.584 476.237Z" stroke="#263238" stroke-linecap="round" stroke-linejoin="round"/>
<path d="M355.845 468.357C353.587 471.168 350.208 465.531 342.313 461.599C337.336 459.095 329.411 456.822 322.852 454.364C320.993 449.956 318.536 444.211 316.954 440.74C314.143 434.596 309.627 438.482 309.627 438.482C307.271 435.802 305.367 432.757 303.99 429.466C301.179 423.322 296.663 423.828 290.473 422.707C284.283 421.586 271.304 409.743 271.304 409.743C271.304 409.743 265.237 405.135 262.733 402.847C259.814 408.591 252.826 418.698 237.711 425.011C261.811 450.186 310.702 498.017 315.832 501.612C321.47 505.544 319.78 516.818 315.832 528.092C311.885 539.366 297.231 555.74 297.8 573.742C298.368 591.744 303.944 619.392 303.437 625.029C302.93 630.052 291.686 645.796 289.244 649.175L294.974 649.82H324.803C324.634 634.706 324.649 573.02 334.986 548.444C346.829 520.197 355.845 468.357 355.845 468.357Z" fill="url(#paint27_linear_1_2899)"/>
<mask id="mask4_1_2899" style="mask-type:luminance" maskUnits="userSpaceOnUse" x="237" y="402" width="119" height="248">
<path d="M355.845 468.357C353.587 471.168 350.208 465.531 342.313 461.599C337.336 459.095 329.411 456.822 322.852 454.364C320.993 449.956 318.536 444.211 316.954 440.74C314.143 434.596 309.627 438.482 309.627 438.482C307.271 435.802 305.367 432.757 303.99 429.466C301.179 423.322 296.663 423.828 290.473 422.707C284.283 421.586 271.304 409.743 271.304 409.743C271.304 409.743 265.237 405.135 262.733 402.847C259.814 408.591 252.826 418.698 237.711 425.011C261.811 450.186 310.702 498.017 315.832 501.612C321.47 505.544 319.78 516.818 315.832 528.092C311.885 539.366 297.231 555.74 297.8 573.742C298.368 591.744 303.944 619.392 303.437 625.029C302.93 630.052 291.686 645.796 289.244 649.175L294.974 649.82H324.803C324.634 634.706 324.649 573.02 334.986 548.444C346.829 520.197 355.845 468.357 355.845 468.357Z" fill="white"/>
</mask>
<g mask="url(#mask4_1_2899)">
<path opacity="0.16" d="M342.313 461.599C337.337 459.095 329.411 456.822 322.852 454.364C320.993 449.956 318.536 444.211 316.954 440.74C314.143 434.596 309.627 438.482 309.627 438.482C307.271 435.802 305.367 432.757 303.99 429.466C301.179 423.322 296.663 423.828 290.473 422.707C284.283 421.586 271.304 409.743 271.304 409.743C271.304 409.743 265.237 405.135 262.733 402.847C261.484 405.286 259.997 407.596 258.294 409.743C268.37 418.268 279.491 427.3 283.377 429.097C291.057 432.645 292.854 429.681 298.737 433.244C304.62 436.808 311.178 448.604 311.178 448.604C311.178 448.604 314.742 439.112 317.706 445.64C320.671 452.168 327.783 463.411 327.783 463.411C327.783 463.411 337.26 468.741 339.625 468.741C341.484 468.741 350.592 473.472 354.463 475.515C355.323 471.014 355.799 468.311 355.799 468.311C353.587 471.168 350.208 465.531 342.313 461.599Z" fill="black"/>
</g>
<path d="M355.845 468.357C353.587 471.168 350.208 465.531 342.313 461.599C337.336 459.095 329.411 456.822 322.852 454.364C320.993 449.956 318.536 444.211 316.954 440.74C314.143 434.596 309.627 438.482 309.627 438.482C307.271 435.802 305.367 432.757 303.99 429.466C301.179 423.322 296.663 423.828 290.473 422.707C284.283 421.586 271.304 409.743 271.304 409.743C271.304 409.743 265.237 405.135 262.733 402.847C259.814 408.591 252.826 418.698 237.711 425.011C261.811 450.186 310.702 498.017 315.832 501.612C321.47 505.544 319.78 516.818 315.832 528.092C311.885 539.366 297.231 555.74 297.8 573.742C298.368 591.744 303.944 619.392 303.437 625.029C302.93 630.052 291.686 645.796 289.244 649.175L294.974 649.82H324.803C324.634 634.706 324.649 573.02 334.986 548.444C346.829 520.197 355.845 468.357 355.845 468.357Z" stroke="#263238" stroke-linecap="round" stroke-linejoin="round"/>
<path d="M356.244 466.391C356.244 466.391 349.24 464.241 344.924 468.019C340.608 471.798 334.172 491.182 330.378 512.21C328.04 524.451 329.654 537.119 334.986 548.383C334.986 548.383 343.849 525.143 346.537 513.823C349.225 502.502 356.244 466.391 356.244 466.391Z" fill="url(#paint28_linear_1_2899)"/>
<mask id="mask5_1_2899" style="mask-type:luminance" maskUnits="userSpaceOnUse" x="329" y="465" width="28" height="84">
<path d="M356.244 466.391C356.244 466.391 349.24 464.241 344.924 468.019C340.608 471.798 334.172 491.182 330.378 512.21C328.04 524.451 329.654 537.119 334.986 548.383C334.986 548.383 343.849 525.143 346.537 513.823C349.225 502.502 356.244 466.391 356.244 466.391Z" fill="white"/>
</mask>
<g mask="url(#mask5_1_2899)">
<path opacity="0.16" d="M342.805 469.816C342.805 469.816 347.873 468.588 349.962 469.294C351.721 470.049 353.366 471.046 354.847 472.259L356.245 466.391C354.148 465.32 351.77 464.928 349.44 465.27C345.953 465.976 342.805 469.816 342.805 469.816Z" fill="black"/>
</g>
<path d="M356.244 466.391C356.244 466.391 349.24 464.241 344.924 468.019C340.608 471.798 334.172 491.182 330.378 512.21C328.04 524.451 329.654 537.119 334.986 548.383C334.986 548.383 343.849 525.143 346.537 513.823C349.225 502.502 356.244 466.391 356.244 466.391Z" stroke="#263238" stroke-linecap="round" stroke-linejoin="round"/>
<path d="M309.074 468.234L318.09 504.868L297.799 458.65" stroke="#263238" stroke-linecap="round" stroke-linejoin="round"/>
<path d="M368.471 649.82H434.181C434.181 649.82 416.056 626.78 416.056 618.901C416.056 611.021 440.939 510.06 442.061 502.733C443.182 495.406 438.682 490.337 429.665 489.769C420.649 489.201 386.273 481.874 384.584 476.237C384.584 476.237 371.62 521.887 367.119 552.883C363.249 579.471 367.257 634.645 368.471 649.82Z" fill="url(#paint29_linear_1_2899)"/>
<mask id="mask6_1_2899" style="mask-type:luminance" maskUnits="userSpaceOnUse" x="365" y="476" width="78" height="174">
<path d="M368.471 649.82H434.181C434.181 649.82 416.056 626.78 416.056 618.901C416.056 611.021 440.939 510.06 442.061 502.733C443.182 495.406 438.682 490.337 429.665 489.769C420.649 489.201 386.273 481.874 384.584 476.237C384.584 476.237 371.62 521.887 367.119 552.883C363.249 579.471 367.257 634.645 368.471 649.82Z" fill="white"/>
</mask>
<g mask="url(#mask6_1_2899)">
<path opacity="0.16" d="M429.665 489.769C422.277 489.308 397.87 484.301 388.362 479.416L391.818 487.404C398.08 490.726 404.814 493.067 411.786 494.346C423.23 496.389 433.874 495.99 440.832 506.22L441.17 506.726C441.6 504.76 441.892 503.378 441.984 502.733C443.198 495.406 438.682 490.337 429.665 489.769Z" fill="black"/>
</g>
<path d="M368.471 649.82H434.181C434.181 649.82 416.056 626.78 416.056 618.901C416.056 611.021 440.939 510.06 442.061 502.733C443.182 495.406 438.682 490.337 429.665 489.769C420.649 489.201 386.273 481.874 384.584 476.237C384.584 476.237 371.62 521.887 367.119 552.883C363.249 579.471 367.257 634.645 368.471 649.82Z" stroke="#263238" stroke-linecap="round" stroke-linejoin="round"/>
<path d="M384.583 476.237C384.583 476.237 367.196 531.533 367.119 552.883C367.119 552.883 391.818 522.977 395.044 501.965C398.269 480.952 384.583 476.237 384.583 476.237Z" fill="url(#paint30_linear_1_2899)"/>
<mask id="mask7_1_2899" style="mask-type:luminance" maskUnits="userSpaceOnUse" x="367" y="476" width="29" height="77">
<path d="M384.583 476.237C384.583 476.237 367.196 531.533 367.119 552.883C367.119 552.883 391.818 522.977 395.044 501.965C398.269 480.952 384.583 476.237 384.583 476.237Z" fill="white"/>
</mask>
<g mask="url(#mask7_1_2899)">
<path opacity="0.16" d="M381.588 483.302C384.201 483.215 386.796 483.765 389.148 484.905C391.5 486.045 393.54 487.741 395.09 489.846C395.09 489.846 391.68 479.816 384.584 476.237L381.588 483.302Z" fill="black"/>
</g>
<path d="M384.583 476.237C384.583 476.237 367.196 531.533 367.119 552.883C367.119 552.883 391.818 522.977 395.044 501.965C398.269 480.952 384.583 476.237 384.583 476.237Z" stroke="#263238" stroke-linecap="round" stroke-linejoin="round"/>
<path d="M570.209 639.422C570.209 639.422 582.943 639.944 591.283 641.142C596.845 641.896 602.445 642.342 608.056 642.478C608.056 642.478 603.448 633.17 598.533 630.543C593.618 627.917 584.709 623.217 577.244 624.261C569.779 625.306 559.104 632.832 559.995 635.228C560.886 637.624 564.864 638.7 570.209 639.422Z" fill="white"/>
<mask id="mask8_1_2899" style="mask-type:luminance" maskUnits="userSpaceOnUse" x="559" y="624" width="50" height="19">
<path d="M570.209 639.422C570.209 639.422 582.943 639.944 591.283 641.142C596.845 641.896 602.445 642.342 608.056 642.478C608.056 642.478 603.448 633.17 598.533 630.543C593.618 627.917 584.709 623.217 577.244 624.261C569.779 625.306 559.104 632.832 559.995 635.228C560.886 637.624 564.864 638.7 570.209 639.422Z" fill="white"/>
</mask>
<g mask="url(#mask8_1_2899)">
<path d="M570.209 639.422C570.209 639.422 582.943 639.944 591.283 641.142C596.845 641.896 602.445 642.342 608.056 642.478C608.056 642.478 603.448 633.17 598.533 630.543C593.618 627.917 584.709 623.217 577.244 624.261C569.779 625.306 559.104 632.832 559.995 635.228C560.886 637.624 564.864 638.7 570.209 639.422Z" fill="url(#paint31_linear_1_2899)"/>
<path opacity="0.5" d="M570.209 639.422C570.209 639.422 582.943 639.944 591.283 641.142C596.845 641.896 602.445 642.342 608.056 642.478C608.056 642.478 603.448 633.17 598.533 630.543C593.618 627.917 584.709 623.217 577.244 624.261C569.779 625.306 559.104 632.832 559.995 635.228C560.886 637.624 564.864 638.7 570.209 639.422Z" fill="white"/>
</g>
<path d="M570.209 639.422C570.209 639.422 582.943 639.944 591.283 641.142C596.845 641.896 602.445 642.342 608.056 642.478C608.056 642.478 603.448 633.17 598.533 630.543C593.618 627.917 584.709 623.217 577.244 624.261C569.779 625.306 559.104 632.832 559.995 635.228C560.886 637.624 564.864 638.7 570.209 639.422Z" stroke="#263238" stroke-linecap="round" stroke-linejoin="round"/>
<path d="M591.36 635.612C591.36 635.612 601.451 630.374 603.97 630.451C606.489 630.528 623.232 641.848 622.402 643.661C621.839 644.501 621.026 645.143 620.078 645.496C619.129 645.849 618.094 645.895 617.119 645.627C615.26 644.751 603.986 639.959 603.986 639.959L596.613 641.695L591.36 635.612Z" fill="white"/>
<mask id="mask9_1_2899" style="mask-type:luminance" maskUnits="userSpaceOnUse" x="591" y="630" width="32" height="16">
<path d="M591.36 635.612C591.36 635.612 601.451 630.374 603.97 630.451C606.489 630.528 623.232 641.848 622.402 643.661C621.839 644.501 621.026 645.143 620.078 645.496C619.129 645.849 618.094 645.895 617.119 645.627C615.26 644.751 603.986 639.959 603.986 639.959L596.613 641.695L591.36 635.612Z" fill="white"/>
</mask>
<g mask="url(#mask9_1_2899)">
<path d="M591.36 635.612C591.36 635.612 601.451 630.374 603.97 630.451C606.489 630.528 623.232 641.848 622.402 643.661C621.573 645.473 617.61 646.948 617.119 645.627C616.627 644.306 603.986 639.959 603.986 639.959L596.613 641.695L591.36 635.612Z" fill="url(#paint32_linear_1_2899)"/>
<path opacity="0.5" d="M591.36 635.612C591.36 635.612 601.451 630.374 603.97 630.451C606.489 630.528 623.232 641.848 622.402 643.661C621.573 645.473 617.61 646.948 617.119 645.627C616.627 644.306 603.986 639.959 603.986 639.959L596.613 641.695L591.36 635.612Z" fill="white"/>
</g>
<path d="M591.36 635.612C591.36 635.612 601.451 630.374 603.97 630.451C606.489 630.528 623.232 641.848 622.402 643.661C621.839 644.501 621.026 645.143 620.078 645.496C619.129 645.849 618.094 645.895 617.119 645.627C615.26 644.751 603.986 639.959 603.986 639.959L596.613 641.695L591.36 635.612Z" stroke="#263238" stroke-linecap="round" stroke-linejoin="round"/>
<path d="M584.156 626.995C584.156 626.995 597.612 626.565 600.284 627.917C602.957 629.268 615.03 649.974 613.217 651.479C611.405 652.984 606.398 652.539 606.551 650.865C606.705 649.19 595.43 638.1 595.43 638.1L586.66 636.18L584.156 626.995Z" fill="white"/>
<mask id="mask10_1_2899" style="mask-type:luminance" maskUnits="userSpaceOnUse" x="584" y="626" width="30" height="27">
<path d="M584.156 626.995C584.156 626.995 597.612 626.565 600.284 627.917C602.957 629.268 615.03 649.974 613.217 651.479C611.405 652.984 606.398 652.539 606.551 650.865C606.705 649.19 595.43 638.1 595.43 638.1L586.66 636.18L584.156 626.995Z" fill="white"/>
</mask>
<g mask="url(#mask10_1_2899)">
<path d="M584.156 626.995C584.156 626.995 597.612 626.565 600.284 627.917C602.957 629.268 615.03 649.974 613.217 651.479C611.405 652.984 606.398 652.539 606.551 650.865C606.705 649.19 595.43 638.1 595.43 638.1L586.66 636.18L584.156 626.995Z" fill="url(#paint33_linear_1_2899)"/>
<path opacity="0.5" d="M584.156 626.995C584.156 626.995 597.612 626.565 600.284 627.917C602.957 629.268 615.03 649.974 613.217 651.479C611.405 652.984 606.398 652.539 606.551 650.865C606.705 649.19 595.43 638.1 595.43 638.1L586.66 636.18L584.156 626.995Z" fill="white"/>
</g>
<path d="M584.156 626.995C584.156 626.995 597.612 626.565 600.284 627.917C602.957 629.268 615.03 649.974 613.217 651.479C611.405 652.984 606.398 652.539 606.551 650.865C606.705 649.19 595.43 638.1 595.43 638.1L586.66 636.18L584.156 626.995Z" stroke="#263238" stroke-linecap="round" stroke-linejoin="round"/>
<path d="M576.184 624.215C576.184 624.215 589.808 623.769 592.512 625.152C595.215 626.534 607.442 647.47 605.598 649.006C603.755 650.542 598.717 650.066 598.871 648.376C599.024 646.687 587.612 635.458 587.612 635.458L578.734 633.508L576.184 624.215Z" fill="white"/>
<mask id="mask11_1_2899" style="mask-type:luminance" maskUnits="userSpaceOnUse" x="576" y="624" width="30" height="26">
<path d="M576.184 624.215C576.184 624.215 589.808 623.769 592.512 625.152C595.215 626.534 607.442 647.47 605.598 649.006C603.755 650.542 598.717 650.066 598.871 648.376C599.024 646.687 587.612 635.458 587.612 635.458L578.734 633.508L576.184 624.215Z" fill="white"/>
</mask>
<g mask="url(#mask11_1_2899)">
<path d="M576.184 624.215C576.184 624.215 589.808 623.769 592.512 625.152C595.215 626.534 607.442 647.47 605.598 649.006C603.755 650.542 598.717 650.066 598.871 648.376C599.024 646.687 587.612 635.458 587.612 635.458L578.734 633.508L576.184 624.215Z" fill="url(#paint34_linear_1_2899)"/>
<path opacity="0.5" d="M576.184 624.215C576.184 624.215 589.808 623.769 592.512 625.152C595.215 626.534 607.442 647.47 605.598 649.006C603.755 650.542 598.717 650.066 598.871 648.376C599.024 646.687 587.612 635.458 587.612 635.458L578.734 633.508L576.184 624.215Z" fill="white"/>
</g>
<path d="M576.184 624.215C576.184 624.215 589.808 623.769 592.512 625.152C595.215 626.534 607.442 647.47 605.598 649.006C603.755 650.542 598.717 650.066 598.871 648.376C599.024 646.687 587.612 635.458 587.612 635.458L578.734 633.508L576.184 624.215Z" stroke="#263238" stroke-linecap="round" stroke-linejoin="round"/>
<path d="M421.279 546.155C431.14 561.347 450.939 599.839 456.714 604.17C465.731 610.929 526.003 627.333 531.809 631.818C537.615 636.303 537.216 640.804 542.715 642.447C548.214 644.091 568.827 648.806 576.691 649.544C584.556 650.281 581.038 645.412 581.038 645.412L567.629 636.196L579.318 633.308C579.318 633.308 591.037 647.409 593.234 648.177C595.43 648.945 599.301 648.177 599.055 646.441C598.625 643.661 586.122 620.913 581.683 619.945C577.244 618.977 550.303 622.71 550.303 622.71C550.303 622.71 493.793 584.602 492.78 583.25C492.78 583.25 489.4 573.665 486.636 569.718C483.871 565.77 482.12 566.907 482.12 566.907C482.12 566.907 483.256 561.823 481.567 560.133L472.55 551.117L472.228 551.547C470.692 548.475 469.156 544.973 467.466 540.979C462.751 529.874 446.054 498.708 443.244 494.208C441.139 490.844 423.506 488.433 414.566 487.419" fill="url(#paint35_linear_1_2899)"/>
<mask id="mask12_1_2899" style="mask-type:luminance" maskUnits="userSpaceOnUse" x="414" y="487" width="186" height="163">
<path d="M421.279 546.155C431.14 561.347 450.939 599.839 456.714 604.17C465.731 610.929 526.003 627.333 531.809 631.818C537.615 636.303 537.216 640.804 542.715 642.447C548.214 644.091 568.827 648.806 576.691 649.544C584.556 650.281 581.038 645.412 581.038 645.412L567.629 636.196L579.318 633.308C579.318 633.308 591.037 647.409 593.234 648.177C595.43 648.945 599.301 648.177 599.055 646.441C598.625 643.661 586.122 620.913 581.683 619.945C577.244 618.977 550.303 622.71 550.303 622.71C550.303 622.71 493.793 584.602 492.78 583.25C492.78 583.25 489.4 573.665 486.636 569.718C483.871 565.77 482.12 566.907 482.12 566.907C482.12 566.907 483.256 561.823 481.567 560.133L472.55 551.117L472.228 551.547C470.692 548.475 469.156 544.973 467.466 540.979C462.751 529.874 446.054 498.708 443.244 494.208C441.139 490.844 423.506 488.433 414.566 487.419" fill="white"/>
</mask>
<g mask="url(#mask12_1_2899)">
<path opacity="0.16" d="M460.539 547.123C467.912 553.667 465.454 553.667 463.811 559.411C462.167 565.156 465.04 557.368 471.998 557.783C478.956 558.198 476.913 567.183 476.083 568.827C475.254 570.47 484.685 572.513 483.041 576.184C481.398 579.855 471.998 585.185 466.683 590.515C461.368 595.845 480.584 581.914 487.127 581.514C489.124 581.376 490.768 581.637 492.15 581.606C490.7 577.496 488.837 573.544 486.59 569.81C483.763 565.862 482.074 566.999 482.074 566.999C482.074 566.999 483.21 561.915 481.521 560.225L472.505 551.209L472.182 551.639C470.646 548.567 469.11 545.065 467.42 541.071C462.705 529.966 446.009 498.801 443.198 494.3C441.093 490.936 423.46 488.525 414.521 487.511L415.335 494.623L415.534 494.776C415.534 494.776 426.578 496.819 430.265 497.234C433.951 497.649 438.451 500.905 438.037 503.378C437.622 505.851 426.993 516.879 430.265 517.709C433.536 518.538 437.223 509.522 440.909 510.751C444.595 511.979 453.12 540.58 460.539 547.123Z" fill="black"/>
</g>
<path d="M421.279 546.155C431.14 561.347 450.939 599.839 456.714 604.17C465.731 610.929 526.003 627.333 531.809 631.818C537.615 636.303 537.216 640.804 542.715 642.447C548.214 644.091 568.827 648.806 576.691 649.544C584.556 650.281 581.038 645.412 581.038 645.412L567.629 636.196L579.318 633.308C579.318 633.308 591.037 647.409 593.234 648.177C595.43 648.945 599.301 648.177 599.055 646.441C598.625 643.661 586.122 620.913 581.683 619.945C577.244 618.977 550.303 622.71 550.303 622.71C550.303 622.71 493.793 584.602 492.78 583.25C492.78 583.25 489.4 573.665 486.636 569.718C483.871 565.77 482.12 566.907 482.12 566.907C482.12 566.907 483.256 561.823 481.567 560.133L472.55 551.117L472.228 551.547C470.692 548.475 469.156 544.973 467.466 540.979C462.751 529.874 446.054 498.708 443.244 494.208C441.139 490.844 423.506 488.433 414.566 487.419" stroke="#263238" stroke-linecap="round" stroke-linejoin="round"/>
<path d="M421.432 525.312C421.017 526.694 420.664 528.077 420.388 529.49" stroke="#263238" stroke-linecap="round" stroke-linejoin="round"/>
<path d="M436.362 499.891C431.535 505.393 427.465 511.514 424.258 518.093" stroke="#263238" stroke-linecap="round" stroke-linejoin="round"/>
<path d="M458.926 587.105C463.073 580.961 469.678 573.174 476.958 570.947" stroke="#263238" stroke-linecap="round" stroke-linejoin="round"/>
<path d="M454.333 594.662C454.333 594.662 455.071 593.218 456.392 591.037" stroke="#263238" stroke-linecap="round" stroke-linejoin="round"/>
<path d="M454.333 584.955C454.333 584.955 461.875 566.093 469.417 561.239C476.959 556.385 472.643 566.093 472.643 566.093" stroke="#263238" stroke-linecap="round" stroke-linejoin="round"/>
<path d="M531.809 631.834C537.631 636.334 537.216 640.819 542.715 642.463C548.214 644.106 568.827 648.822 576.691 649.559C584.555 650.296 581.038 645.427 581.038 645.427L567.629 636.211L579.318 633.324C579.318 633.324 591.037 647.424 593.234 648.192C595.43 648.96 599.608 649.237 599.055 646.456C597.98 641.08 586.122 620.928 581.683 619.96C577.244 618.993 550.303 622.725 550.303 622.725C550.303 622.725 498.831 587.397 493.194 583.573C471.337 585.677 460.938 597.12 456.561 603.986L456.714 604.109C465.73 610.929 526.003 627.333 531.809 631.834Z" fill="white"/>
<mask id="mask13_1_2899" style="mask-type:luminance" maskUnits="userSpaceOnUse" x="456" y="583" width="144" height="67">
<path d="M531.809 631.834C537.631 636.334 537.216 640.819 542.715 642.463C548.214 644.106 568.827 648.822 576.691 649.559C584.555 650.296 581.038 645.427 581.038 645.427L567.629 636.211L579.318 633.324C579.318 633.324 591.037 647.424 593.234 648.192C595.43 648.96 599.608 649.237 599.055 646.456C597.98 641.08 586.122 620.928 581.683 619.96C577.244 618.993 550.303 622.725 550.303 622.725C550.303 622.725 498.831 587.397 493.194 583.573C471.337 585.677 460.938 597.12 456.561 603.986L456.714 604.109C465.73 610.929 526.003 627.333 531.809 631.834Z" fill="white"/>
</mask>
<g mask="url(#mask13_1_2899)">
<path d="M599.04 646.518C596.244 639.683 586.107 620.99 581.668 620.022C577.229 619.054 550.287 622.787 550.287 622.787C550.287 622.787 498.816 587.459 493.179 583.634C487.442 584.133 481.813 585.495 476.482 587.674C484.608 592.282 538.767 623.002 545.602 624.369C552.852 625.905 577.044 621.927 581.299 624.783C584.002 626.596 592.051 639.36 597.489 648.423C599.04 648.192 599.608 647.9 599.04 646.518Z" fill="url(#paint36_linear_1_2899)"/>
<path opacity="0.5" d="M599.04 646.518C594.678 636.734 586.107 620.99 581.668 620.022C577.229 619.054 550.287 622.787 550.287 622.787C550.287 622.787 498.816 587.459 493.179 583.634C487.442 584.133 481.813 585.495 476.482 587.674C484.608 592.282 538.767 623.002 545.602 624.369C552.852 625.905 577.044 621.927 581.299 624.783C584.002 626.596 592.051 639.36 597.489 648.423C599.04 648.192 599.654 647.885 599.04 646.518Z" fill="white"/>
</g>
<path d="M531.809 631.834C537.631 636.334 537.216 640.819 542.715 642.463C548.214 644.106 568.827 648.822 576.691 649.559C584.555 650.296 581.038 645.427 581.038 645.427L567.629 636.211L579.318 633.324C579.318 633.324 591.037 647.424 593.234 648.192C595.43 648.96 599.608 649.237 599.055 646.456C597.98 641.08 586.122 620.928 581.683 619.96C577.244 618.993 550.303 622.725 550.303 622.725C550.303 622.725 498.831 587.397 493.194 583.573C471.337 585.677 460.938 597.12 456.561 603.986L456.714 604.109C465.73 610.929 526.003 627.333 531.809 631.834Z" stroke="#263238" stroke-linecap="round" stroke-linejoin="round"/>
<path d="M396.058 363.617L349.793 382.925C349.233 391.056 347.219 399.02 343.849 406.441C338.381 418.007 341.576 439.895 346.829 451.707C352.082 463.519 375.229 458.895 383.693 457.421C389.433 456.329 395.055 454.688 400.481 452.521C402.952 453.473 405.625 453.781 408.247 453.416C410.87 453.05 413.356 452.023 415.473 450.432C415.473 450.432 390.712 380.928 396.058 363.617Z" fill="white"/>
<mask id="mask14_1_2899" style="mask-type:luminance" maskUnits="userSpaceOnUse" x="341" y="363" width="75" height="97">
<path d="M396.058 363.617L349.793 382.925C349.233 391.056 347.219 399.02 343.849 406.441C338.381 418.007 341.576 439.895 346.829 451.707C352.082 463.519 375.229 458.895 383.693 457.421C389.433 456.329 395.055 454.688 400.481 452.521C402.952 453.473 405.625 453.781 408.247 453.416C410.87 453.05 413.356 452.023 415.473 450.432C415.473 450.432 390.712 380.928 396.058 363.617Z" fill="white"/>
</mask>
<g mask="url(#mask14_1_2899)">
<path d="M396.058 363.617L349.793 382.925C349.233 391.056 347.219 399.02 343.849 406.441C338.381 418.007 341.576 439.895 346.829 451.707C347.708 453.606 349.123 455.208 350.899 456.315V455.424C350.899 455.424 342.313 434.15 343.941 421.878C345.569 409.605 352.543 403.446 353.357 395.689C354.171 387.932 353.756 384.246 369.316 378.517C384.875 372.787 391.403 367.473 393.032 373.187C394.66 378.901 401.219 416.563 405.719 425.564C410.219 434.565 409.805 443.996 402.862 448.067C395.845 452.279 388.326 455.592 380.483 457.928L383.754 457.359C389.494 456.267 395.116 454.627 400.543 452.46C403.013 453.412 405.686 453.72 408.309 453.354C410.931 452.989 413.418 451.962 415.534 450.371C415.534 450.371 390.712 380.928 396.058 363.617Z" fill="url(#paint37_linear_1_2899)"/>
<path opacity="0.5" d="M396.058 363.617L349.793 382.925C349.233 391.056 347.219 399.02 343.849 406.441C338.381 418.007 341.576 439.895 346.829 451.707C347.708 453.606 349.123 455.208 350.899 456.315V455.424C350.899 455.424 342.313 434.15 343.941 421.878C345.569 409.605 352.543 403.446 353.357 395.689C354.171 387.932 353.756 384.246 369.316 378.517C384.875 372.787 391.403 367.473 393.032 373.187C394.66 378.901 401.219 416.563 405.719 425.564C410.219 434.565 409.805 443.996 402.862 448.067C395.845 452.279 388.326 455.592 380.483 457.928L383.754 457.359C389.494 456.267 395.116 454.627 400.543 452.46C403.013 453.412 405.686 453.72 408.309 453.354C410.931 452.989 413.418 451.962 415.534 450.371C415.534 450.371 390.712 380.928 396.058 363.617Z" fill="white"/>
</g>
<path d="M396.058 363.617L349.793 382.925C349.233 391.056 347.219 399.02 343.849 406.441C338.381 418.007 341.576 439.895 346.829 451.707C352.082 463.519 375.229 458.895 383.693 457.421C389.433 456.329 395.055 454.688 400.481 452.521C402.952 453.473 405.625 453.781 408.247 453.416C410.87 453.05 413.356 452.023 415.473 450.432C415.473 450.432 390.712 380.928 396.058 363.617Z" stroke="#263238" stroke-linecap="round" stroke-linejoin="round"/>
<path d="M372.679 393.892C372.805 396.612 372.467 399.334 371.681 401.94C370.452 405.012 358.855 417.085 359.209 418.391C359.562 419.697 360.606 423.89 362.665 424.289" stroke="#263238" stroke-linecap="round" stroke-linejoin="round"/>
<path d="M385.536 404.69C387.148 401.464 392.448 404.613 392.371 411.878" stroke="#263238" stroke-linecap="round" stroke-linejoin="round"/>
<path d="M359.27 395.197C359.27 395.197 363.786 393.216 367.826 400.527" stroke="#263238" stroke-linecap="round" stroke-linejoin="round"/>
<path d="M379.115 415.334C384.333 415.597 389.295 417.678 393.139 421.217" stroke="#263238" stroke-width="0.5" stroke-linecap="round" stroke-linejoin="round"/>
<path d="M353.817 405.734C356.515 406.095 359.151 406.823 361.651 407.9" stroke="#263238" stroke-width="0.5" stroke-linecap="round" stroke-linejoin="round"/>
<path d="M372.173 387.072C370.98 386.441 369.657 386.096 368.308 386.064C366.96 386.033 365.622 386.314 364.401 386.888C360.269 388.869 357.734 391.05 358.011 388.516C358.287 385.981 363.141 383.186 364.6 382.817C366.059 382.449 372.587 381.435 372.173 387.072Z" fill="#263238"/>
<path d="M383.754 381.343C388.06 384.827 391.481 389.279 393.738 394.337C396.81 402.017 399.237 393.631 396.81 388.608C394.383 383.585 387.364 378.24 383.754 381.343Z" fill="#263238"/>
<path d="M416.148 463.565C416.148 467.144 414.121 470.047 411.632 470.047C409.144 470.047 407.132 467.144 407.132 463.565C407.132 459.986 409.144 450.877 411.632 450.877C414.121 450.877 416.148 459.986 416.148 463.565Z" fill="url(#paint38_linear_1_2899)" stroke="#263238" stroke-linecap="round" stroke-linejoin="round"/>
<path d="M385.935 403.292C385.759 403.762 385.62 404.244 385.521 404.736C385.075 407.009 384.63 411.755 385.521 411.955C386.412 412.155 388.593 407.716 388.977 405.443C389.063 404.997 389.115 404.545 389.13 404.091C388.082 403.762 387.015 403.495 385.935 403.292Z" fill="#263238"/>
<path d="M359.731 394.752C359.595 395.153 359.487 395.564 359.409 395.981C358.948 398.254 358.963 403.246 359.931 403.43C360.899 403.615 362.481 398.945 362.926 396.672C363.037 396.121 363.099 395.56 363.11 394.998C362.011 394.695 360.863 394.612 359.731 394.752Z" fill="#263238"/>
<path d="M385.536 404.767L387.072 401.91C389.507 402.384 391.713 403.66 393.339 405.535" stroke="#263238" stroke-width="0.75" stroke-linecap="round" stroke-linejoin="round"/>
<path d="M359.731 394.752L361.267 392.955C361.267 392.955 361.927 392.632 365.552 394.276" stroke="#263238" stroke-width="0.75" stroke-linecap="round" stroke-linejoin="round"/>
<path d="M353.91 436.408C353.91 436.408 356.49 431.662 359.946 431.662C363.402 431.662 365.983 439.419 365.983 439.419" stroke="#263238" stroke-linecap="round" stroke-linejoin="round"/>
<path d="M242.688 641.096C239.348 640.93 236.067 640.149 233.011 638.792C232.585 638.634 232.195 638.391 231.866 638.078C231.536 637.765 231.274 637.389 231.095 636.971C230.916 636.554 230.824 636.104 230.824 635.65C230.824 635.195 230.917 634.746 231.096 634.328C231.276 633.911 231.538 633.534 231.868 633.222C232.198 632.909 232.587 632.667 233.014 632.509C233.44 632.352 233.894 632.283 234.348 632.307C234.801 632.331 235.245 632.447 235.653 632.648C238.725 633.953 242.703 634.767 243.763 634.307C245.714 632.125 248.709 618.947 244.838 612.587C243.963 611.174 243.149 610.913 242.611 610.852C240.415 610.545 237.158 612.803 236.006 613.924C235.686 614.226 235.308 614.463 234.896 614.62C234.484 614.776 234.045 614.851 233.605 614.838C233.164 614.825 232.73 614.725 232.328 614.545C231.925 614.364 231.563 614.106 231.26 613.786C230.957 613.465 230.721 613.088 230.564 612.676C230.407 612.263 230.333 611.825 230.346 611.384C230.359 610.943 230.459 610.509 230.639 610.107C230.82 609.705 231.078 609.342 231.398 609.039C231.997 608.456 237.542 603.464 243.456 604.262C244.923 604.477 246.32 605.026 247.54 605.868C248.76 606.709 249.77 607.821 250.491 609.116C256.189 618.409 252.288 636.088 247.91 639.59C246.389 640.667 244.549 641.197 242.688 641.096Z" fill="white"/>
<mask id="mask15_1_2899" style="mask-type:luminance" maskUnits="userSpaceOnUse" x="230" y="604" width="24" height="38">
<path d="M242.688 641.096C239.348 640.93 236.067 640.149 233.011 638.792C232.585 638.634 232.195 638.391 231.866 638.078C231.536 637.765 231.274 637.389 231.095 636.971C230.916 636.554 230.824 636.104 230.824 635.65C230.824 635.195 230.917 634.746 231.096 634.328C231.276 633.911 231.538 633.534 231.868 633.222C232.198 632.909 232.587 632.667 233.014 632.509C233.44 632.352 233.894 632.283 234.348 632.307C234.801 632.331 235.245 632.447 235.653 632.648C238.725 633.953 242.703 634.767 243.763 634.307C245.714 632.125 248.709 618.947 244.838 612.587C243.963 611.174 243.149 610.913 242.611 610.852C240.415 610.545 237.158 612.803 236.006 613.924C235.686 614.226 235.308 614.463 234.896 614.62C234.484 614.776 234.045 614.851 233.605 614.838C233.164 614.825 232.73 614.725 232.328 614.545C231.925 614.364 231.563 614.106 231.26 613.786C230.957 613.465 230.721 613.088 230.564 612.676C230.407 612.263 230.333 611.825 230.346 611.384C230.359 610.943 230.459 610.509 230.639 610.107C230.82 609.705 231.078 609.342 231.398 609.039C231.997 608.456 237.542 603.464 243.456 604.262C244.923 604.477 246.32 605.026 247.54 605.868C248.76 606.709 249.77 607.821 250.491 609.116C256.189 618.409 252.288 636.088 247.91 639.59C246.389 640.667 244.549 641.197 242.688 641.096Z" fill="white"/>
</mask>
<g mask="url(#mask15_1_2899)">
<path d="M247.188 611.574C246.785 610.62 246.155 609.779 245.351 609.126C244.548 608.472 243.596 608.026 242.58 607.826C238.74 607.212 235.131 611.067 234.731 611.497C234.364 611.939 234.137 612.481 234.08 613.053C234.022 613.625 234.137 614.201 234.409 614.707C235.013 614.586 235.571 614.299 236.022 613.878C237.174 612.803 240.43 610.545 242.626 610.806C243.164 610.806 243.978 611.128 244.854 612.541C248.724 618.839 245.729 632.079 243.778 634.26C242.719 634.721 238.756 633.907 235.668 632.602C235.288 632.442 234.882 632.353 234.47 632.34C234.498 632.761 234.631 633.169 234.856 633.526C235.082 633.882 235.392 634.177 235.76 634.383C237.703 635.421 239.845 636.028 242.043 636.165C243.297 636.225 244.525 635.796 245.468 634.967C248.356 632.31 250.905 618.716 247.188 611.574Z" fill="url(#paint39_linear_1_2899)"/>
<path opacity="0.5" d="M247.188 611.574C246.785 610.62 246.155 609.779 245.351 609.126C244.548 608.472 243.596 608.026 242.58 607.826C238.74 607.212 235.131 611.067 234.731 611.497C234.364 611.939 234.137 612.481 234.08 613.053C234.022 613.625 234.137 614.201 234.409 614.707C235.013 614.586 235.571 614.299 236.022 613.878C237.174 612.803 240.43 610.545 242.626 610.806C243.164 610.806 243.978 611.128 244.854 612.541C248.724 618.839 245.729 632.079 243.778 634.26C242.719 634.721 238.756 633.907 235.668 632.602C235.288 632.442 234.882 632.353 234.47 632.34C234.498 632.761 234.631 633.169 234.856 633.526C235.082 633.882 235.392 634.177 235.76 634.383C237.703 635.421 239.845 636.028 242.043 636.165C243.297 636.225 244.525 635.796 245.468 634.967C248.356 632.31 250.905 618.716 247.188 611.574Z" fill="white"/>
</g>
<path d="M242.688 641.096C239.348 640.93 236.067 640.149 233.011 638.792C232.585 638.634 232.195 638.391 231.866 638.078C231.536 637.765 231.274 637.389 231.095 636.971C230.916 636.554 230.824 636.104 230.824 635.65C230.824 635.195 230.917 634.746 231.096 634.328C231.276 633.911 231.538 633.534 231.868 633.222C232.198 632.909 232.587 632.667 233.014 632.509C233.44 632.352 233.894 632.283 234.348 632.307C234.801 632.331 235.245 632.447 235.653 632.648C238.725 633.953 242.703 634.767 243.763 634.307C245.714 632.125 248.709 618.947 244.838 612.587C243.963 611.174 243.149 610.913 242.611 610.852C240.415 610.545 237.158 612.803 236.006 613.924C235.686 614.226 235.308 614.463 234.896 614.62C234.484 614.776 234.045 614.851 233.605 614.838C233.164 614.825 232.73 614.725 232.328 614.545C231.925 614.364 231.563 614.106 231.26 613.786C230.957 613.465 230.721 613.088 230.564 612.676C230.407 612.263 230.333 611.825 230.346 611.384C230.359 610.943 230.459 610.509 230.639 610.107C230.82 609.705 231.078 609.342 231.398 609.039C231.997 608.456 237.542 603.464 243.456 604.262C244.923 604.477 246.32 605.026 247.54 605.868C248.76 606.709 249.77 607.821 250.491 609.116C256.189 618.409 252.288 636.088 247.91 639.59C246.389 640.667 244.549 641.197 242.688 641.096Z" stroke="#263238" stroke-linecap="round" stroke-linejoin="round"/>
<path d="M236.82 601.467H199.879V650.496H236.82V601.467Z" fill="white"/>
<mask id="mask16_1_2899" style="mask-type:luminance" maskUnits="userSpaceOnUse" x="199" y="601" width="38" height="50">
<path d="M236.82 601.467H199.879V650.496H236.82V601.467Z" fill="white"/>
</mask>
<g mask="url(#mask16_1_2899)">
<path d="M215.009 601.467H199.879V650.496H215.009V601.467Z" fill="url(#paint40_linear_1_2899)"/>
<path opacity="0.5" d="M215.009 601.467H199.879V650.496H215.009V601.467Z" fill="white"/>
</g>
<path d="M236.82 601.467H199.879V650.496H236.82V601.467Z" stroke="#263238" stroke-linecap="round" stroke-linejoin="round"/>
<path d="M439.818 649.82H282.009L276.864 563.067C276.722 562.226 276.764 561.364 276.987 560.54C277.21 559.717 277.609 558.952 278.157 558.298C278.704 557.643 279.387 557.116 280.158 556.751C280.93 556.387 281.771 556.194 282.624 556.186H439.142C440 556.185 440.849 556.371 441.627 556.732C442.406 557.093 443.097 557.619 443.651 558.274C444.205 558.93 444.61 559.698 444.837 560.526C445.063 561.353 445.107 562.221 444.964 563.067L439.818 649.82Z" fill="#263238" stroke="#263238" stroke-linecap="round" stroke-linejoin="round"/>
<path d="M289.782 558.259H438.006C438.843 558.251 439.672 558.425 440.435 558.771C441.198 559.116 441.876 559.624 442.421 560.259C442.967 560.894 443.368 561.641 443.595 562.447C443.821 563.253 443.869 564.099 443.735 564.925" stroke="white" stroke-linecap="round" stroke-linejoin="round"/>
<path d="M278.016 563.558C278.139 562.107 278.806 560.755 279.882 559.773C280.958 558.79 282.365 558.25 283.822 558.259" stroke="white" stroke-linecap="round" stroke-linejoin="round"/>
<path d="M440.479 641.372H281.349V649.82H440.479V641.372Z" fill="white" stroke="#263238" stroke-linecap="round" stroke-linejoin="round"/>
<path d="M360.346 610.099C366.572 610.099 371.62 607.073 371.62 603.341C371.62 599.608 366.572 596.582 360.346 596.582C354.119 596.582 349.071 599.608 349.071 603.341C349.071 607.073 354.119 610.099 360.346 610.099Z" fill="white" stroke="#263238" stroke-linecap="round" stroke-linejoin="round"/>
<path d="M680.494 648.822H87.813V663.214H680.494V648.822Z" fill="#263238"/>
<path d="M526.817 115.2H241.69C232.078 115.2 224.287 122.991 224.287 132.603V296.202C224.287 305.814 232.078 313.605 241.69 313.605H526.817C536.429 313.605 544.22 305.814 544.22 296.202V132.603C544.22 122.991 536.429 115.2 526.817 115.2Z" fill="url(#paint41_linear_1_2899)"/>
<path d="M391.777 229.217C417.641 225.061 435.238 200.724 431.082 174.86C426.925 148.997 402.589 131.399 376.725 135.556C350.861 139.713 333.264 164.049 337.42 189.913C341.577 215.777 365.913 233.374 391.777 229.217Z" fill="#263238"/>
<path d="M383.892 191.155L368.087 211.446C367.55 212.29 366.81 212.988 365.936 213.476C365.062 213.964 364.081 214.227 363.08 214.241C361.706 214.26 360.381 213.735 359.393 212.782C358.891 212.321 358.493 211.757 358.228 211.129C357.963 210.501 357.837 209.823 357.857 209.142C357.907 207.615 358.445 206.146 359.393 204.948L377.41 182.661L360.514 160.358C359.729 159.312 359.299 158.042 359.286 156.733C359.282 155.953 359.439 155.18 359.749 154.464C360.058 153.748 360.512 153.103 361.083 152.571C361.619 152.011 362.262 151.566 362.975 151.263C363.688 150.959 364.455 150.803 365.23 150.804C366.222 150.82 367.195 151.085 368.058 151.573C368.922 152.061 369.65 152.758 370.176 153.6L385.444 173.706L400.804 153.938C401.353 153.016 402.121 152.243 403.04 151.688C403.959 151.134 405 150.814 406.072 150.758C406.737 150.757 407.396 150.892 408.006 151.156C408.617 151.421 409.166 151.808 409.62 152.294C410.104 152.75 410.49 153.3 410.754 153.91C411.018 154.52 411.155 155.178 411.156 155.842C411.14 157.032 410.729 158.183 409.989 159.114L391.91 182.246L409.375 205.286C410.2 206.316 410.659 207.592 410.68 208.911C410.685 209.674 410.524 210.43 410.209 211.124C409.893 211.819 409.43 212.437 408.852 212.936C407.725 214.019 406.223 214.625 404.659 214.625C403.662 214.613 402.684 214.35 401.814 213.862C400.945 213.374 400.212 212.675 399.682 211.83L383.892 191.155Z" fill="white"/>
<path d="M474.624 279.245H293.822C290.155 279.245 286.639 277.788 284.047 275.196C281.454 272.603 279.998 269.087 279.998 265.421C279.998 261.754 281.454 258.238 284.047 255.646C286.639 253.053 290.155 251.597 293.822 251.597H474.624C478.29 251.597 481.807 253.053 484.399 255.646C486.992 258.238 488.448 261.754 488.448 265.421C488.448 269.087 486.992 272.603 484.399 275.196C481.807 277.788 478.29 279.245 474.624 279.245Z" fill="white"/>
<path d="M318.597 269.875C318.476 269.875 318.357 269.851 318.246 269.803C318.135 269.756 318.035 269.686 317.952 269.599C317.861 269.508 317.79 269.401 317.742 269.282C317.694 269.163 317.672 269.035 317.675 268.907C317.675 268.691 317.734 268.479 317.844 268.293L319.227 266.143H316.4C316.27 266.149 316.139 266.128 316.017 266.08C315.896 266.033 315.785 265.96 315.694 265.866C315.536 265.682 315.449 265.448 315.449 265.206C315.449 264.963 315.536 264.729 315.694 264.545C315.785 264.452 315.896 264.379 316.017 264.331C316.139 264.283 316.27 264.262 316.4 264.269L319.181 264.346L317.952 262.349C317.829 262.144 317.76 261.911 317.752 261.673C317.749 261.545 317.771 261.417 317.819 261.299C317.866 261.18 317.938 261.072 318.029 260.982C318.115 260.894 318.217 260.824 318.331 260.777C318.444 260.729 318.566 260.705 318.689 260.705C318.861 260.703 319.03 260.751 319.175 260.844C319.32 260.937 319.434 261.07 319.503 261.227L320.855 263.639L322.145 261.335C322.226 261.156 322.355 261.002 322.518 260.891C322.68 260.78 322.87 260.716 323.067 260.705C323.187 260.705 323.307 260.73 323.418 260.777C323.529 260.825 323.629 260.894 323.712 260.982C323.802 261.066 323.873 261.169 323.921 261.282C323.968 261.396 323.991 261.519 323.988 261.642C323.986 261.86 323.922 262.073 323.804 262.257L322.452 264.422L325.263 264.346C325.394 264.338 325.525 264.359 325.647 264.406C325.769 264.454 325.879 264.528 325.97 264.622C326.128 264.806 326.214 265.04 326.214 265.282C326.214 265.525 326.128 265.759 325.97 265.943C325.879 266.037 325.769 266.111 325.647 266.159C325.525 266.206 325.394 266.227 325.263 266.219H322.422L323.681 268.186C323.823 268.423 323.903 268.692 323.912 268.969C323.916 269.093 323.895 269.217 323.85 269.334C323.805 269.45 323.737 269.556 323.65 269.645C323.57 269.731 323.472 269.8 323.364 269.847C323.256 269.895 323.139 269.92 323.021 269.921C322.831 269.917 322.646 269.858 322.488 269.752C322.33 269.645 322.206 269.496 322.13 269.322L320.855 267.064L319.58 269.322C319.488 269.5 319.346 269.647 319.171 269.745C318.996 269.844 318.797 269.889 318.597 269.875Z" fill="black"/>
<path d="M332.698 269.875C332.577 269.875 332.457 269.851 332.347 269.803C332.236 269.756 332.136 269.686 332.052 269.599C331.962 269.508 331.89 269.401 331.843 269.282C331.795 269.163 331.772 269.035 331.776 268.907C331.776 268.691 331.834 268.479 331.945 268.293L333.327 266.143H330.501C330.37 266.149 330.24 266.128 330.118 266.08C329.996 266.033 329.886 265.96 329.794 265.866C329.637 265.682 329.55 265.448 329.55 265.206C329.55 264.963 329.637 264.729 329.794 264.545C329.886 264.452 329.996 264.379 330.118 264.331C330.24 264.283 330.37 264.262 330.501 264.269L333.281 264.346L331.976 262.272C331.852 262.067 331.784 261.835 331.776 261.596C331.772 261.468 331.795 261.341 331.843 261.222C331.89 261.103 331.962 260.995 332.052 260.905C332.138 260.817 332.241 260.747 332.355 260.7C332.468 260.652 332.59 260.628 332.713 260.628C332.885 260.626 333.054 260.674 333.199 260.767C333.343 260.86 333.458 260.993 333.527 261.151L334.879 263.562L336.169 261.258C336.25 261.079 336.379 260.925 336.542 260.814C336.704 260.703 336.894 260.639 337.09 260.628C337.211 260.628 337.331 260.653 337.441 260.7C337.552 260.748 337.652 260.818 337.736 260.905C337.826 260.989 337.897 261.092 337.944 261.206C337.992 261.319 338.015 261.442 338.012 261.565C338.01 261.783 337.946 261.997 337.828 262.18L336.476 264.346L339.287 264.269C339.418 264.261 339.549 264.282 339.671 264.329C339.793 264.377 339.903 264.451 339.994 264.545C340.151 264.729 340.238 264.963 340.238 265.206C340.238 265.448 340.151 265.682 339.994 265.866C339.903 265.961 339.793 266.034 339.671 266.082C339.549 266.13 339.418 266.15 339.287 266.143H336.445L337.705 268.109C337.847 268.346 337.926 268.616 337.935 268.892C337.94 269.017 337.919 269.141 337.874 269.257C337.829 269.373 337.761 269.479 337.674 269.568C337.593 269.654 337.496 269.723 337.388 269.771C337.279 269.818 337.163 269.843 337.044 269.844C336.854 269.842 336.668 269.784 336.51 269.677C336.352 269.571 336.228 269.421 336.154 269.245L334.879 266.987L333.604 269.245C333.528 269.426 333.403 269.58 333.242 269.692C333.082 269.804 332.893 269.867 332.698 269.875Z" fill="black"/>
<path d="M346.798 269.875C346.677 269.875 346.558 269.851 346.447 269.803C346.336 269.756 346.236 269.686 346.153 269.599C346.062 269.508 345.991 269.401 345.943 269.282C345.896 269.163 345.873 269.035 345.877 268.907C345.876 268.691 345.935 268.479 346.045 268.293L347.428 266.143H344.602C344.471 266.149 344.34 266.128 344.219 266.08C344.097 266.033 343.986 265.96 343.895 265.866C343.737 265.682 343.65 265.448 343.65 265.206C343.65 264.963 343.737 264.729 343.895 264.545C343.986 264.452 344.097 264.379 344.219 264.331C344.34 264.283 344.471 264.262 344.602 264.269L347.382 264.346L346.076 262.272C345.953 262.067 345.884 261.835 345.877 261.596C345.873 261.468 345.896 261.341 345.943 261.222C345.991 261.103 346.062 260.995 346.153 260.905C346.239 260.817 346.342 260.747 346.455 260.7C346.569 260.652 346.69 260.628 346.813 260.628C346.985 260.626 347.154 260.674 347.299 260.767C347.444 260.86 347.558 260.993 347.628 261.151L348.979 263.562L350.269 261.258C350.351 261.079 350.48 260.925 350.642 260.814C350.805 260.703 350.995 260.639 351.191 260.628C351.312 260.628 351.431 260.653 351.542 260.7C351.653 260.748 351.753 260.818 351.836 260.905C351.926 260.989 351.997 261.092 352.045 261.206C352.093 261.319 352.116 261.442 352.113 261.565C352.111 261.783 352.047 261.997 351.928 262.18L350.577 264.346L353.388 264.269C353.518 264.261 353.649 264.282 353.771 264.329C353.893 264.377 354.003 264.451 354.094 264.545C354.252 264.729 354.339 264.963 354.339 265.206C354.339 265.448 354.252 265.682 354.094 265.866C354.003 265.961 353.893 266.034 353.771 266.082C353.649 266.13 353.518 266.15 353.388 266.143H350.546L351.805 268.109C351.948 268.346 352.027 268.616 352.036 268.892C352.04 269.017 352.019 269.141 351.975 269.257C351.93 269.373 351.862 269.479 351.775 269.568C351.694 269.654 351.596 269.723 351.488 269.771C351.38 269.818 351.263 269.843 351.145 269.844C350.954 269.842 350.769 269.784 350.611 269.677C350.452 269.571 350.329 269.421 350.254 269.245L348.979 266.987L347.704 269.245C347.629 269.426 347.503 269.58 347.343 269.692C347.182 269.804 346.993 269.867 346.798 269.875Z" fill="black"/>
<path d="M360.96 269.875C360.839 269.875 360.72 269.851 360.609 269.803C360.498 269.756 360.398 269.686 360.315 269.599C360.224 269.508 360.152 269.401 360.105 269.282C360.057 269.163 360.035 269.035 360.038 268.907C360.038 268.691 360.096 268.479 360.207 268.293L361.59 266.143H358.763C358.633 266.149 358.502 266.128 358.38 266.08C358.258 266.033 358.148 265.96 358.057 265.866C357.899 265.682 357.812 265.448 357.812 265.206C357.812 264.963 357.899 264.729 358.057 264.545C358.148 264.452 358.258 264.379 358.38 264.331C358.502 264.283 358.633 264.262 358.763 264.269L361.543 264.346L360.238 262.272C360.115 262.067 360.046 261.835 360.038 261.596C360.035 261.468 360.057 261.341 360.105 261.222C360.152 261.103 360.224 260.995 360.315 260.905C360.401 260.817 360.503 260.747 360.617 260.7C360.73 260.652 360.852 260.628 360.975 260.628C361.147 260.626 361.316 260.674 361.461 260.767C361.606 260.86 361.72 260.993 361.789 261.151L363.141 263.562L364.431 261.258C364.512 261.079 364.641 260.925 364.804 260.814C364.966 260.703 365.156 260.639 365.353 260.628C365.473 260.628 365.593 260.653 365.704 260.7C365.815 260.748 365.915 260.818 365.998 260.905C366.088 260.989 366.159 261.092 366.207 261.206C366.254 261.319 366.277 261.442 366.274 261.565C366.272 261.783 366.208 261.997 366.09 262.18L364.738 264.346L367.549 264.269C367.68 264.261 367.811 264.282 367.933 264.329C368.055 264.377 368.165 264.451 368.256 264.545C368.414 264.729 368.5 264.963 368.5 265.206C368.5 265.448 368.414 265.682 368.256 265.866C368.165 265.961 368.055 266.034 367.933 266.082C367.811 266.13 367.68 266.15 367.549 266.143H364.708L365.967 268.109C366.109 268.346 366.188 268.616 366.198 268.892C366.202 269.017 366.181 269.141 366.136 269.257C366.091 269.373 366.023 269.479 365.936 269.568C365.856 269.654 365.758 269.723 365.65 269.771C365.542 269.818 365.425 269.843 365.307 269.844C365.116 269.84 364.932 269.781 364.774 269.675C364.616 269.569 364.492 269.42 364.416 269.245L363.141 266.987L361.866 269.245C361.79 269.426 361.665 269.58 361.504 269.692C361.344 269.804 361.155 269.867 360.96 269.875Z" fill="black"/>
<path d="M374.999 269.875C374.878 269.875 374.759 269.851 374.648 269.803C374.537 269.756 374.437 269.686 374.354 269.599C374.263 269.508 374.191 269.401 374.144 269.282C374.096 269.163 374.074 269.035 374.077 268.907C374.084 268.692 374.142 268.482 374.246 268.293L375.629 266.143H372.802C372.672 266.149 372.541 266.128 372.419 266.08C372.297 266.033 372.187 265.96 372.096 265.866C371.938 265.682 371.851 265.448 371.851 265.206C371.851 264.963 371.938 264.729 372.096 264.545C372.187 264.452 372.297 264.379 372.419 264.331C372.541 264.283 372.672 264.262 372.802 264.269L375.582 264.346L374.277 262.272C374.154 262.067 374.085 261.835 374.077 261.596C374.074 261.468 374.096 261.341 374.144 261.222C374.191 261.103 374.263 260.995 374.354 260.905C374.44 260.817 374.543 260.747 374.656 260.7C374.769 260.652 374.891 260.628 375.014 260.628C375.186 260.626 375.355 260.674 375.5 260.767C375.645 260.86 375.759 260.993 375.828 261.151L377.18 263.562L378.47 261.258C378.551 261.079 378.68 260.925 378.843 260.814C379.005 260.703 379.195 260.639 379.392 260.628C379.513 260.627 379.633 260.65 379.744 260.698C379.855 260.746 379.955 260.816 380.037 260.905C380.127 260.989 380.198 261.092 380.246 261.206C380.293 261.319 380.316 261.442 380.313 261.565C380.311 261.783 380.247 261.997 380.129 262.18L378.777 264.346L381.588 264.269C381.719 264.261 381.85 264.282 381.972 264.329C382.094 264.377 382.204 264.451 382.295 264.545C382.453 264.729 382.539 264.963 382.539 265.206C382.539 265.448 382.453 265.682 382.295 265.866C382.204 265.961 382.094 266.034 381.972 266.082C381.85 266.13 381.719 266.15 381.588 266.143H378.747L380.006 268.109C380.148 268.346 380.228 268.616 380.237 268.892C380.241 269.017 380.22 269.141 380.175 269.257C380.13 269.373 380.062 269.479 379.975 269.568C379.895 269.654 379.797 269.723 379.689 269.771C379.581 269.818 379.464 269.843 379.346 269.844C379.156 269.84 378.971 269.781 378.813 269.675C378.655 269.569 378.531 269.42 378.455 269.245L377.18 266.987L375.905 269.245C375.829 269.426 375.704 269.58 375.543 269.692C375.383 269.804 375.194 269.867 374.999 269.875Z" fill="black"/>
<path d="M389.099 269.875C388.979 269.875 388.859 269.851 388.748 269.803C388.638 269.756 388.537 269.686 388.454 269.599C388.363 269.508 388.292 269.401 388.244 269.282C388.197 269.163 388.174 269.035 388.178 268.907C388.185 268.692 388.243 268.482 388.347 268.293L389.729 266.143H386.918C386.785 266.151 386.652 266.13 386.527 266.082C386.403 266.035 386.29 265.961 386.196 265.866C386.038 265.682 385.952 265.448 385.952 265.206C385.952 264.963 386.038 264.729 386.196 264.545C386.29 264.45 386.403 264.377 386.527 264.329C386.652 264.281 386.785 264.261 386.918 264.269L389.683 264.346L388.377 262.272C388.254 262.067 388.186 261.835 388.178 261.596C388.174 261.468 388.197 261.341 388.244 261.222C388.292 261.103 388.363 260.995 388.454 260.905C388.54 260.817 388.643 260.747 388.757 260.7C388.87 260.652 388.992 260.628 389.115 260.628C389.287 260.626 389.456 260.674 389.6 260.767C389.745 260.86 389.859 260.993 389.929 261.151L391.281 263.562L392.571 261.258C392.652 261.079 392.781 260.925 392.943 260.814C393.106 260.703 393.296 260.639 393.492 260.628C393.613 260.627 393.733 260.65 393.844 260.698C393.956 260.746 394.055 260.816 394.137 260.905C394.227 260.989 394.299 261.092 394.346 261.206C394.394 261.319 394.417 261.442 394.414 261.565C394.412 261.783 394.348 261.997 394.23 262.18L392.878 264.346L395.689 264.269C395.82 264.261 395.95 264.282 396.072 264.329C396.194 264.377 396.305 264.451 396.395 264.545C396.553 264.729 396.64 264.963 396.64 265.206C396.64 265.448 396.553 265.682 396.395 265.866C396.305 265.961 396.194 266.034 396.072 266.082C395.95 266.13 395.82 266.15 395.689 266.143H392.847L394.107 268.109C394.249 268.346 394.328 268.616 394.337 268.892C394.342 269.017 394.321 269.141 394.276 269.257C394.231 269.373 394.163 269.479 394.076 269.568C393.995 269.654 393.898 269.723 393.789 269.771C393.681 269.818 393.564 269.843 393.446 269.844C393.256 269.84 393.071 269.781 392.913 269.675C392.756 269.569 392.631 269.42 392.555 269.245L391.281 266.987L390.006 269.245C389.93 269.426 389.805 269.58 389.644 269.692C389.484 269.804 389.295 269.867 389.099 269.875Z" fill="black"/>
<path d="M403.2 269.875C403.079 269.875 402.96 269.851 402.849 269.803C402.738 269.756 402.638 269.686 402.555 269.599C402.464 269.508 402.393 269.401 402.345 269.282C402.297 269.163 402.275 269.035 402.278 268.907C402.278 268.691 402.337 268.479 402.447 268.293L403.83 266.143H401.003C400.873 266.149 400.742 266.128 400.62 266.08C400.499 266.033 400.388 265.96 400.297 265.866C400.139 265.682 400.052 265.448 400.052 265.206C400.052 264.963 400.139 264.729 400.297 264.545C400.388 264.452 400.499 264.379 400.62 264.331C400.742 264.283 400.873 264.262 401.003 264.269L403.784 264.346L402.432 262.349C402.309 262.144 402.24 261.912 402.232 261.673C402.229 261.545 402.251 261.417 402.299 261.299C402.346 261.18 402.418 261.072 402.509 260.982C402.595 260.894 402.698 260.824 402.811 260.777C402.924 260.729 403.046 260.705 403.169 260.705C403.341 260.703 403.51 260.751 403.655 260.844C403.8 260.937 403.914 261.07 403.983 261.227L405.335 263.639L406.625 261.335C406.707 261.156 406.835 261.002 406.998 260.891C407.16 260.78 407.35 260.716 407.547 260.705C407.668 260.703 407.788 260.727 407.899 260.775C408.01 260.822 408.11 260.893 408.192 260.982C408.282 261.066 408.353 261.169 408.401 261.282C408.448 261.396 408.471 261.519 408.468 261.642C408.466 261.86 408.402 262.073 408.284 262.257L406.932 264.422L409.743 264.346C409.874 264.338 410.005 264.359 410.127 264.406C410.249 264.454 410.359 264.528 410.45 264.622C410.608 264.806 410.695 265.04 410.695 265.282C410.695 265.525 410.608 265.759 410.45 265.943C410.359 266.037 410.249 266.111 410.127 266.159C410.005 266.206 409.874 266.227 409.743 266.219H406.902L408.161 268.186C408.303 268.423 408.383 268.692 408.392 268.969C408.396 269.093 408.375 269.217 408.33 269.334C408.285 269.45 408.217 269.556 408.13 269.645C408.05 269.731 407.952 269.8 407.844 269.847C407.736 269.895 407.619 269.92 407.501 269.921C407.311 269.917 407.126 269.858 406.968 269.752C406.81 269.645 406.686 269.496 406.61 269.322L405.335 267.064L404.06 269.322C403.977 269.481 403.854 269.616 403.704 269.713C403.553 269.81 403.379 269.866 403.2 269.875Z" fill="black"/>
<path d="M417.3 269.875C417.18 269.875 417.06 269.851 416.95 269.803C416.839 269.756 416.739 269.686 416.655 269.599C416.565 269.508 416.493 269.401 416.446 269.282C416.398 269.163 416.375 269.035 416.379 268.907C416.386 268.692 416.444 268.482 416.548 268.293L417.93 266.143H415.119C414.988 266.152 414.857 266.133 414.735 266.085C414.612 266.037 414.502 265.962 414.413 265.866C414.245 265.687 414.152 265.451 414.152 265.206C414.152 264.96 414.245 264.724 414.413 264.545C414.502 264.449 414.612 264.374 414.735 264.326C414.857 264.279 414.988 264.259 415.119 264.269L417.884 264.345L416.579 262.272C416.455 262.067 416.387 261.835 416.379 261.596C416.375 261.47 416.396 261.345 416.441 261.228C416.486 261.111 416.555 261.004 416.642 260.914C416.73 260.823 416.834 260.752 416.95 260.703C417.066 260.654 417.19 260.628 417.316 260.628C417.488 260.626 417.657 260.674 417.802 260.767C417.946 260.86 418.061 260.993 418.13 261.151L419.482 263.562L420.772 261.258C420.853 261.079 420.982 260.925 421.145 260.814C421.307 260.703 421.497 260.639 421.693 260.628C421.815 260.624 421.935 260.647 422.047 260.695C422.158 260.743 422.258 260.814 422.339 260.905C422.429 260.989 422.5 261.092 422.547 261.206C422.595 261.319 422.618 261.442 422.615 261.565C422.613 261.783 422.549 261.997 422.431 262.18L421.079 264.345L423.89 264.269C424.021 264.261 424.152 264.282 424.274 264.329C424.396 264.377 424.506 264.451 424.596 264.545C424.754 264.729 424.841 264.963 424.841 265.206C424.841 265.448 424.754 265.682 424.596 265.866C424.506 265.961 424.396 266.034 424.274 266.082C424.152 266.13 424.021 266.15 423.89 266.143H421.048L422.308 268.109C422.45 268.346 422.529 268.616 422.538 268.892C422.542 269.013 422.523 269.134 422.48 269.247C422.437 269.361 422.373 269.464 422.29 269.553C422.207 269.641 422.108 269.713 421.998 269.763C421.887 269.813 421.768 269.84 421.647 269.844C421.457 269.84 421.272 269.781 421.115 269.675C420.957 269.569 420.832 269.42 420.756 269.245L419.482 266.987L418.207 269.245C418.131 269.425 418.006 269.58 417.845 269.692C417.685 269.803 417.496 269.867 417.3 269.875Z" fill="black"/>
<path d="M431.401 269.875C431.28 269.875 431.161 269.851 431.05 269.803C430.939 269.756 430.839 269.686 430.756 269.599C430.665 269.508 430.594 269.401 430.546 269.282C430.499 269.163 430.476 269.035 430.479 268.907C430.487 268.692 430.544 268.482 430.648 268.293L432.031 266.143H429.205C429.076 266.15 428.948 266.129 428.828 266.081C428.709 266.034 428.601 265.96 428.513 265.866C428.346 265.687 428.253 265.451 428.253 265.206C428.253 264.96 428.346 264.724 428.513 264.545C428.601 264.451 428.709 264.378 428.828 264.33C428.948 264.282 429.076 264.261 429.205 264.269L431.985 264.345L430.679 262.272C430.556 262.067 430.487 261.835 430.479 261.596C430.475 261.47 430.497 261.345 430.542 261.228C430.587 261.111 430.655 261.004 430.743 260.914C430.83 260.823 430.935 260.752 431.051 260.703C431.166 260.654 431.291 260.628 431.416 260.628C431.588 260.626 431.757 260.674 431.902 260.767C432.047 260.86 432.161 260.993 432.231 261.151L433.582 263.562L434.872 261.258C434.954 261.079 435.083 260.925 435.245 260.814C435.408 260.703 435.597 260.639 435.794 260.628C435.915 260.624 436.036 260.647 436.147 260.695C436.259 260.743 436.358 260.814 436.439 260.905C436.529 260.989 436.6 261.092 436.648 261.206C436.696 261.319 436.719 261.442 436.716 261.565C436.714 261.783 436.65 261.997 436.531 262.18L435.18 264.345L437.991 264.269C438.121 264.261 438.252 264.282 438.374 264.329C438.496 264.377 438.606 264.451 438.697 264.545C438.855 264.729 438.942 264.963 438.942 265.206C438.942 265.448 438.855 265.682 438.697 265.866C438.606 265.961 438.496 266.034 438.374 266.082C438.252 266.13 438.121 266.15 437.991 266.143H435.149L436.408 268.109C436.551 268.346 436.63 268.616 436.639 268.892C436.643 269.013 436.623 269.134 436.581 269.247C436.538 269.361 436.474 269.464 436.391 269.553C436.308 269.641 436.209 269.713 436.098 269.763C435.988 269.813 435.869 269.84 435.748 269.844C435.558 269.84 435.373 269.781 435.215 269.675C435.057 269.569 434.933 269.42 434.857 269.245L433.582 266.987L432.307 269.245C432.232 269.425 432.106 269.58 431.946 269.692C431.785 269.803 431.596 269.867 431.401 269.875Z" fill="black"/>
<path d="M445.44 269.875C445.319 269.875 445.2 269.851 445.089 269.803C444.978 269.756 444.878 269.686 444.795 269.599C444.704 269.508 444.633 269.401 444.585 269.282C444.538 269.163 444.515 269.035 444.519 268.907C444.526 268.692 444.584 268.482 444.687 268.293L446.07 266.143H443.244C443.115 266.15 442.987 266.129 442.867 266.081C442.748 266.034 442.64 265.96 442.552 265.866C442.385 265.687 442.292 265.451 442.292 265.206C442.292 264.96 442.385 264.724 442.552 264.545C442.64 264.451 442.748 264.378 442.867 264.33C442.987 264.282 443.115 264.261 443.244 264.269L446.024 264.345L444.718 262.272C444.595 262.067 444.526 261.835 444.519 261.596C444.515 261.468 444.538 261.341 444.585 261.222C444.633 261.103 444.704 260.995 444.795 260.905C444.881 260.817 444.984 260.747 445.097 260.7C445.211 260.652 445.333 260.628 445.455 260.628C445.627 260.626 445.796 260.674 445.941 260.767C446.086 260.86 446.2 260.993 446.27 261.151L447.621 263.562L448.911 261.258C448.993 261.079 449.122 260.925 449.284 260.814C449.447 260.703 449.637 260.639 449.833 260.628C449.954 260.624 450.075 260.647 450.186 260.695C450.298 260.743 450.397 260.814 450.478 260.905C450.568 260.989 450.639 261.092 450.687 261.206C450.735 261.319 450.758 261.442 450.755 261.565C450.753 261.783 450.689 261.997 450.57 262.18L449.219 264.345L452.03 264.269C452.16 264.261 452.291 264.282 452.413 264.329C452.535 264.377 452.645 264.451 452.736 264.545C452.894 264.729 452.981 264.963 452.981 265.206C452.981 265.448 452.894 265.682 452.736 265.866C452.645 265.961 452.535 266.034 452.413 266.082C452.291 266.13 452.16 266.15 452.03 266.143H449.188L450.447 268.109C450.59 268.346 450.669 268.616 450.678 268.892C450.682 269.016 450.661 269.141 450.617 269.257C450.572 269.373 450.504 269.479 450.417 269.568C450.336 269.654 450.238 269.723 450.13 269.771C450.022 269.818 449.905 269.843 449.787 269.844C449.597 269.84 449.412 269.781 449.254 269.675C449.096 269.569 448.972 269.42 448.896 269.245L447.621 266.987L446.346 269.245C446.271 269.425 446.145 269.58 445.985 269.692C445.824 269.803 445.635 269.867 445.44 269.875Z" fill="black"/>
<path d="M493.763 303.851H512.548" stroke="white" stroke-width="3" stroke-linecap="round" stroke-linejoin="round"/>
<path d="M233.211 165.535V290.304C233.211 293.917 234.646 297.383 237.201 299.938C239.756 302.493 243.222 303.928 246.835 303.928H475.93" stroke="white" stroke-width="3" stroke-linecap="round" stroke-linejoin="round"/>
<path d="M233.211 132.449V151.158" stroke="white" stroke-width="3" stroke-linecap="round" stroke-linejoin="round"/>
<defs>
<linearGradient id="paint0_linear_1_2899" x1="666.106" y1="378.2" x2="152.618" y2="378.2" gradientUnits="userSpaceOnUse">
<stop offset="0.0256426" stop-color="#5C58EB"/>
<stop offset="1" stop-color="#BA63FF"/>
</linearGradient>
<linearGradient id="paint1_linear_1_2899" x1="665.314" y1="380.107" x2="639.553" y2="380.107" gradientUnits="userSpaceOnUse">
<stop offset="0.0256426" stop-color="#5C58EB"/>
<stop offset="1" stop-color="#BA63FF"/>
</linearGradient>
<linearGradient id="paint2_linear_1_2899" x1="649.801" y1="427.815" x2="624.061" y2="427.815" gradientUnits="userSpaceOnUse">
<stop offset="0.0256426" stop-color="#5C58EB"/>
<stop offset="1" stop-color="#BA63FF"/>
</linearGradient>
<linearGradient id="paint3_linear_1_2899" x1="696.901" y1="394.691" x2="667.654" y2="394.691" gradientUnits="userSpaceOnUse">
<stop offset="0.0256426" stop-color="#5C58EB"/>
<stop offset="1" stop-color="#BA63FF"/>
</linearGradient>
<linearGradient id="paint4_linear_1_2899" x1="680.796" y1="452.667" x2="647.949" y2="452.667" gradientUnits="userSpaceOnUse">
<stop offset="0.0256426" stop-color="#5C58EB"/>
<stop offset="1" stop-color="#BA63FF"/>
</linearGradient>
<linearGradient id="paint5_linear_1_2899" x1="679.165" y1="510.897" x2="653.412" y2="510.897" gradientUnits="userSpaceOnUse">
<stop offset="0.0256426" stop-color="#5C58EB"/>
<stop offset="1" stop-color="#BA63FF"/>
</linearGradient>
<linearGradient id="paint6_linear_1_2899" x1="649.352" y1="523.991" x2="626.546" y2="523.991" gradientUnits="userSpaceOnUse">
<stop offset="0.0256426" stop-color="#5C58EB"/>
<stop offset="1" stop-color="#BA63FF"/>
</linearGradient>
<linearGradient id="paint7_linear_1_2899" x1="668.452" y1="570.333" x2="642.691" y2="570.333" gradientUnits="userSpaceOnUse">
<stop offset="0.0256426" stop-color="#5C58EB"/>
<stop offset="1" stop-color="#BA63FF"/>
</linearGradient>
<linearGradient id="paint8_linear_1_2899" x1="669.607" y1="607.389" x2="648.938" y2="607.389" gradientUnits="userSpaceOnUse">
<stop offset="0.0256426" stop-color="#5C58EB"/>
<stop offset="1" stop-color="#BA63FF"/>
</linearGradient>
<linearGradient id="paint9_linear_1_2899" x1="594.618" y1="484.624" x2="580.45" y2="484.624" gradientUnits="userSpaceOnUse">
<stop offset="0.0256426" stop-color="#5C58EB"/>
<stop offset="1" stop-color="#BA63FF"/>
</linearGradient>
<linearGradient id="paint10_linear_1_2899" x1="609.533" y1="512.855" x2="595.365" y2="512.855" gradientUnits="userSpaceOnUse">
<stop offset="0.0256426" stop-color="#5C58EB"/>
<stop offset="1" stop-color="#BA63FF"/>
</linearGradient>
<linearGradient id="paint11_linear_1_2899" x1="582.293" y1="496.865" x2="559.993" y2="496.865" gradientUnits="userSpaceOnUse">
<stop offset="0.0256426" stop-color="#5C58EB"/>
<stop offset="1" stop-color="#BA63FF"/>
</linearGradient>
<linearGradient id="paint12_linear_1_2899" x1="601.045" y1="531.287" x2="576.538" y2="531.287" gradientUnits="userSpaceOnUse">
<stop offset="0.0256426" stop-color="#5C58EB"/>
<stop offset="1" stop-color="#BA63FF"/>
</linearGradient>
<linearGradient id="paint13_linear_1_2899" x1="603.832" y1="567.982" x2="583.787" y2="567.982" gradientUnits="userSpaceOnUse">
<stop offset="0.0256426" stop-color="#5C58EB"/>
<stop offset="1" stop-color="#BA63FF"/>
</linearGradient>
<linearGradient id="paint14_linear_1_2899" x1="618.447" y1="573.282" x2="605.928" y2="573.282" gradientUnits="userSpaceOnUse">
<stop offset="0.0256426" stop-color="#5C58EB"/>
<stop offset="1" stop-color="#BA63FF"/>
</linearGradient>
<linearGradient id="paint15_linear_1_2899" x1="638.207" y1="615.498" x2="619.416" y2="615.498" gradientUnits="userSpaceOnUse">
<stop offset="0.0256426" stop-color="#5C58EB"/>
<stop offset="1" stop-color="#BA63FF"/>
</linearGradient>
<linearGradient id="paint16_linear_1_2899" x1="617.026" y1="604.086" x2="596.982" y2="604.086" gradientUnits="userSpaceOnUse">
<stop offset="0.0256426" stop-color="#5C58EB"/>
<stop offset="1" stop-color="#BA63FF"/>
</linearGradient>
<linearGradient id="paint17_linear_1_2899" x1="615.602" y1="627.756" x2="600.348" y2="627.756" gradientUnits="userSpaceOnUse">
<stop offset="0.0256426" stop-color="#5C58EB"/>
<stop offset="1" stop-color="#BA63FF"/>
</linearGradient>
<linearGradient id="paint18_linear_1_2899" x1="166.254" y1="396.166" x2="139.208" y2="396.166" gradientUnits="userSpaceOnUse">
<stop offset="0.0256426" stop-color="#5C58EB"/>
<stop offset="1" stop-color="#BA63FF"/>
</linearGradient>
<linearGradient id="paint19_linear_1_2899" x1="204.279" y1="627.902" x2="172.073" y2="627.902" gradientUnits="userSpaceOnUse">
<stop offset="0.0256426" stop-color="#5C58EB"/>
<stop offset="1" stop-color="#BA63FF"/>
</linearGradient>
<linearGradient id="paint20_linear_1_2899" x1="204.279" y1="504.891" x2="172.073" y2="504.891" gradientUnits="userSpaceOnUse">
<stop offset="0.0256426" stop-color="#5C58EB"/>
<stop offset="1" stop-color="#BA63FF"/>
</linearGradient>
<linearGradient id="paint21_linear_1_2899" x1="204.279" y1="570.325" x2="172.073" y2="570.325" gradientUnits="userSpaceOnUse">
<stop offset="0.0256426" stop-color="#5C58EB"/>
<stop offset="1" stop-color="#BA63FF"/>
</linearGradient>
<linearGradient id="paint22_linear_1_2899" x1="368.108" y1="364.725" x2="223.073" y2="364.725" gradientUnits="userSpaceOnUse">
<stop offset="0.0256426" stop-color="#5C58EB"/>
<stop offset="1" stop-color="#BA63FF"/>
</linearGradient>
<linearGradient id="paint23_linear_1_2899" x1="364.012" y1="465.285" x2="327.111" y2="465.285" gradientUnits="userSpaceOnUse">
<stop offset="0.0256426" stop-color="#5C58EB"/>
<stop offset="1" stop-color="#BA63FF"/>
</linearGradient>
<linearGradient id="paint24_linear_1_2899" x1="292.234" y1="411.986" x2="245.681" y2="411.986" gradientUnits="userSpaceOnUse">
<stop offset="0.0256426" stop-color="#5C58EB"/>
<stop offset="1" stop-color="#BA63FF"/>
</linearGradient>
<linearGradient id="paint25_linear_1_2899" x1="311.474" y1="447.698" x2="310.278" y2="447.698" gradientUnits="userSpaceOnUse">
<stop offset="0.0256426" stop-color="#5C58EB"/>
<stop offset="1" stop-color="#BA63FF"/>
</linearGradient>
<linearGradient id="paint26_linear_1_2899" x1="392.725" y1="475.538" x2="378.922" y2="475.538" gradientUnits="userSpaceOnUse">
<stop offset="0.0256426" stop-color="#5C58EB"/>
<stop offset="1" stop-color="#BA63FF"/>
</linearGradient>
<linearGradient id="paint27_linear_1_2899" x1="353.573" y1="526.335" x2="251.304" y2="526.335" gradientUnits="userSpaceOnUse">
<stop offset="0.0256426" stop-color="#5C58EB"/>
<stop offset="1" stop-color="#BA63FF"/>
</linearGradient>
<linearGradient id="paint28_linear_1_2899" x1="355.727" y1="507.083" x2="332.431" y2="507.083" gradientUnits="userSpaceOnUse">
<stop offset="0.0256426" stop-color="#5C58EB"/>
<stop offset="1" stop-color="#BA63FF"/>
</linearGradient>
<linearGradient id="paint29_linear_1_2899" x1="440.753" y1="563.03" x2="374.305" y2="563.03" gradientUnits="userSpaceOnUse">
<stop offset="0.0256426" stop-color="#5C58EB"/>
<stop offset="1" stop-color="#BA63FF"/>
</linearGradient>
<linearGradient id="paint30_linear_1_2899" x1="394.989" y1="514.561" x2="370.389" y2="514.561" gradientUnits="userSpaceOnUse">
<stop offset="0.0256426" stop-color="#5C58EB"/>
<stop offset="1" stop-color="#BA63FF"/>
</linearGradient>
<linearGradient id="paint31_linear_1_2899" x1="607.131" y1="633.295" x2="565.479" y2="633.295" gradientUnits="userSpaceOnUse">
<stop offset="0.0256426" stop-color="#5C58EB"/>
<stop offset="1" stop-color="#BA63FF"/>
</linearGradient>
<linearGradient id="paint32_linear_1_2899" x1="621.835" y1="638.292" x2="594.935" y2="638.292" gradientUnits="userSpaceOnUse">
<stop offset="0.0256426" stop-color="#5C58EB"/>
<stop offset="1" stop-color="#BA63FF"/>
</linearGradient>
<linearGradient id="paint33_linear_1_2899" x1="612.839" y1="639.664" x2="587.521" y2="639.664" gradientUnits="userSpaceOnUse">
<stop offset="0.0256426" stop-color="#5C58EB"/>
<stop offset="1" stop-color="#BA63FF"/>
</linearGradient>
<linearGradient id="paint34_linear_1_2899" x1="605.218" y1="637.041" x2="579.59" y2="637.041" gradientUnits="userSpaceOnUse">
<stop offset="0.0256426" stop-color="#5C58EB"/>
<stop offset="1" stop-color="#BA63FF"/>
</linearGradient>
<linearGradient id="paint35_linear_1_2899" x1="595.518" y1="568.521" x2="435.796" y2="568.521" gradientUnits="userSpaceOnUse">
<stop offset="0.0256426" stop-color="#5C58EB"/>
<stop offset="1" stop-color="#BA63FF"/>
</linearGradient>
<linearGradient id="paint36_linear_1_2899" x1="596.894" y1="616.029" x2="490.609" y2="616.029" gradientUnits="userSpaceOnUse">
<stop offset="0.0256426" stop-color="#5C58EB"/>
<stop offset="1" stop-color="#BA63FF"/>
</linearGradient>
<linearGradient id="paint37_linear_1_2899" x1="414.101" y1="410.773" x2="349.578" y2="410.773" gradientUnits="userSpaceOnUse">
<stop offset="0.0256426" stop-color="#5C58EB"/>
<stop offset="1" stop-color="#BA63FF"/>
</linearGradient>
<linearGradient id="paint38_linear_1_2899" x1="415.975" y1="460.462" x2="408.169" y2="460.462" gradientUnits="userSpaceOnUse">
<stop offset="0.0256426" stop-color="#5C58EB"/>
<stop offset="1" stop-color="#BA63FF"/>
</linearGradient>
<linearGradient id="paint39_linear_1_2899" x1="248.755" y1="621.965" x2="235.789" y2="621.965" gradientUnits="userSpaceOnUse">
<stop offset="0.0256426" stop-color="#5C58EB"/>
<stop offset="1" stop-color="#BA63FF"/>
</linearGradient>
<linearGradient id="paint40_linear_1_2899" x1="214.718" y1="625.982" x2="201.62" y2="625.982" gradientUnits="userSpaceOnUse">
<stop offset="0.0256426" stop-color="#5C58EB"/>
<stop offset="1" stop-color="#BA63FF"/>
</linearGradient>
<linearGradient id="paint41_linear_1_2899" x1="538.067" y1="214.404" x2="261.099" y2="214.404" gradientUnits="userSpaceOnUse">
<stop offset="0.0256426" stop-color="#5C58EB"/>
<stop offset="1" stop-color="#BA63FF"/>
</linearGradient>
</defs>
</svg>
