<svg width="42" height="43" viewBox="0 0 42 43" fill="none" xmlns="http://www.w3.org/2000/svg">
    <circle opacity="0.8" cx="21" cy="21.5" r="21" fill="white"/>
    <g clip-path="url(#clip0_1152_34445)">
    <path fill-rule="evenodd" clip-rule="evenodd" d="M20.1562 31.1094L19.2656 24.3594L19.0781 24.1719C17.9062 24.125 16.0781 23.375 15.7031 22.2969C15.5625 22.25 15.375 22.2031 15.2344 22.2031H13.125C12.0938 22.2969 11.7656 22.625 11.625 23.2812C11.625 23.3281 11.625 23.3281 11.5781 23.375C12.3281 27.3125 16.0312 30.6875 20.0625 31.0625L20.1562 31.1094ZM21.1406 18.7812C22.4062 18.7812 23.3906 19.8125 23.3906 21.0312C23.3906 22.2969 22.3594 23.2812 21.1406 23.2812C19.875 23.2812 18.8906 22.25 18.8906 21.0312C18.8906 19.7656 19.9219 18.7812 21.1406 18.7812ZM21.1875 19.1562L21.5625 20.7969L22.875 21.9219C23.0156 21.6406 23.0625 21.3594 23.0625 21.0781C23.0625 20.0469 22.2188 19.2031 21.1875 19.1562ZM22.8281 22.0156L21.1875 21.5L19.5469 22.0625C19.875 22.5781 20.4844 22.9062 21.1406 22.9062C21.8438 22.9062 22.4531 22.5312 22.7812 21.9688L22.8281 22.0156ZM19.5 21.9688L20.7656 20.8438L21.0938 19.1562C20.0625 19.2031 19.2656 20.0469 19.2656 21.0781C19.2656 21.4062 19.3594 21.6875 19.5 21.9688ZM21.1875 10.0156C27.5625 10.0156 32.7656 15.2188 32.7656 21.5938C32.7656 27.9688 27.5625 33.1719 21.1875 33.1719C14.8125 33.1719 9.60938 27.9688 9.60938 21.5938C9.60938 15.2188 14.8125 10.0156 21.1875 10.0156ZM22.1719 31.1094L23.0625 24.3594L23.25 24.1719C24.4219 24.125 26.25 23.375 26.625 22.2969C26.7656 22.25 26.9531 22.2031 27.0938 22.2031H29.2031C30.2344 22.2969 30.5625 22.625 30.7031 23.2812C30.7031 23.3281 30.7031 23.3281 30.75 23.375C30 27.3125 26.2969 30.6875 22.2656 31.0625L22.1719 31.1094ZM21.1406 12.0312H21.2344C24.4219 12.0312 27.3281 13.9062 28.9219 15.8281C29.25 16.2969 29.5312 16.8125 29.7656 17.2812C29.8594 17.4688 29.9531 17.6094 30.0469 17.7969C30.4219 19.1094 29.8594 20.0938 27.8438 20.0938C27.2344 20.0938 26.6719 19.9062 26.0625 19.6719C25.5 18.9219 22.7344 17.8906 21.8438 17.8438C21.6094 17.7969 21.4219 17.7969 21.1875 17.7969H21C20.7656 17.7969 20.5312 17.7969 20.3438 17.8438C19.4531 17.8438 16.7344 18.9219 16.125 19.6719C15.5156 19.9062 14.9531 20.0938 14.3438 20.0938C12.375 20.0938 11.7656 19.1094 12.1406 17.7969C12.2344 17.6562 12.3281 17.4688 12.4219 17.2812C12.6562 16.8125 12.9375 16.2969 13.2656 15.8281C14.8594 13.9062 17.8125 12.0312 20.9531 12.0312H21.0469H21.1406Z" fill="url(#paint0_linear_1152_34445)"/>
    </g>
    <defs>
    <linearGradient id="paint0_linear_1152_34445" x1="21.2211" y1="3.69219" x2="21.2211" y2="31.4797" gradientUnits="userSpaceOnUse">
    <stop stop-color="#488686"/>
    <stop offset="1" stop-color="#2B5151"/>
    </linearGradient>
    <clipPath id="clip0_1152_34445">
    <rect width="24" height="24" fill="white" transform="translate(9 9.5)"/>
    </clipPath>
    </defs>
</svg>
