<svg width="43" height="42" viewBox="0 0 43 42" fill="none" xmlns="http://www.w3.org/2000/svg">
<circle opacity="0.8" cx="21.5" cy="21" r="21" fill="white"/>
<path d="M31.25 21C31.25 21.8325 30.23 22.5 30.02 23.2875C29.81 24.075 30.35 25.185 29.945 25.875C29.54 26.565 28.31 26.6625 27.74 27.24C27.17 27.8175 27.08 29.04 26.375 29.445C25.67 29.85 24.575 29.31 23.7875 29.52C23 29.73 22.3325 30.75 21.5 30.75C20.6675 30.75 20 29.73 19.25 29.52C18.5 29.31 17.3525 29.85 16.6625 29.445C15.9725 29.04 15.875 27.81 15.2975 27.24C14.72 26.67 13.4975 26.58 13.0925 25.875C12.6875 25.17 13.2275 24.075 13.0175 23.2875C12.8075 22.5 11.75 21.8325 11.75 21C11.75 20.1675 12.77 19.5 12.98 18.75C13.19 18 12.65 16.8525 13.055 16.1625C13.46 15.4725 14.69 15.3375 15.26 14.76C15.83 14.1825 15.92 12.96 16.625 12.555C17.33 12.15 18.425 12.69 19.2125 12.48C20 12.27 20.6675 11.25 21.5 11.25C22.3325 11.25 23 12.27 23.7875 12.48C24.575 12.69 25.685 12.15 26.375 12.555C27.065 12.96 27.1625 14.19 27.74 14.76C28.3175 15.33 29.54 15.42 29.945 16.125C30.35 16.83 29.81 17.925 30.02 18.7125C30.23 19.5 31.25 20.1675 31.25 21Z" fill="#B4B0A7"/>
<path d="M21.5 27.375C25.0208 27.375 27.875 24.5208 27.875 21C27.875 17.4792 25.0208 14.625 21.5 14.625C17.9792 14.625 15.125 17.4792 15.125 21C15.125 24.5208 17.9792 27.375 21.5 27.375Z" fill="url(#paint0_linear_1305_23250)"/>
<path d="M20.8475 22.7774C20.7736 22.7777 20.7003 22.7633 20.6321 22.735C20.5638 22.7066 20.5019 22.6649 20.45 22.6124L18.7025 20.8949C18.5971 20.7894 18.538 20.6464 18.538 20.4974C18.538 20.3483 18.5971 20.2053 18.7025 20.0999C18.8079 19.9945 18.9509 19.9354 19.1 19.9354C19.249 19.9354 19.392 19.9945 19.4975 20.0999L20.8475 21.4349L23.5025 18.8174C23.6089 18.7119 23.7528 18.6531 23.9026 18.6538C24.0524 18.6545 24.1958 18.7147 24.3012 18.8211C24.4066 18.9275 24.4655 19.0715 24.4648 19.2213C24.4641 19.3711 24.4039 19.5144 24.2975 19.6199L21.2375 22.6199C21.1868 22.6716 21.126 22.7123 21.0589 22.7394C20.9918 22.7665 20.9198 22.7794 20.8475 22.7774Z" fill="#EDEBEA"/>
<defs>
<linearGradient id="paint0_linear_1305_23250" x1="16.9922" y1="16.4922" x2="26.0078" y2="25.5078" gradientUnits="userSpaceOnUse">
<stop stop-color="#60A563"/>
<stop offset="1" stop-color="#28652B"/>
</linearGradient>
</defs>
</svg>
