<svg width="42" height="43" viewBox="0 0 42 43" fill="none" xmlns="http://www.w3.org/2000/svg">
    <circle opacity="0.8" cx="21" cy="21.5" r="21" fill="white"/>
    <path d="M23.25 26H24V31.25H23.25V26ZM20.625 27.5H21.375V31.25H20.625V27.5Z" fill="url(#paint0_linear_1152_34403)"/>
    <path d="M23.5437 22.9777L22.7494 23.4742C23.0224 24.03 23.1869 24.6327 23.2343 25.2502H24.375C24.4745 25.2502 24.5699 25.2897 24.6402 25.36C24.7105 25.4303 24.75 25.5257 24.75 25.6252V31.6252C24.75 31.7246 24.7105 31.82 24.6402 31.8903C24.5699 31.9606 24.4745 32.0002 24.375 32.0002H22.875C22.7756 32.0002 22.6802 31.9606 22.6099 31.8903C22.5395 31.82 22.5 31.7246 22.5 31.6252V28.2175C22.3865 28.3976 22.2612 28.5699 22.125 28.7335V31.6252C22.125 31.7246 22.0855 31.82 22.0152 31.8903C21.9449 31.9606 21.8495 32.0002 21.75 32.0002H20.25C20.1506 32.0002 20.0552 31.9606 19.9849 31.8903C19.9146 31.82 19.875 31.7246 19.875 31.6252V30.2628C19.1108 30.5101 18.2973 30.5647 17.5069 30.4218C16.7165 30.2789 15.9736 29.9429 15.3443 29.4437C14.7151 28.9444 14.2189 28.2975 13.9 27.5603C13.581 26.8231 13.4492 26.0185 13.5162 25.218C13.5832 24.4176 13.8469 23.6461 14.2839 22.9722C14.721 22.2982 15.3177 21.7427 16.0212 21.355C16.7247 20.9673 17.5131 20.7594 18.3163 20.7499C19.1194 20.7404 19.9125 20.9294 20.625 21.3003V20.7127C20.6243 20.5368 20.6786 20.3651 20.7804 20.2217C20.8823 20.0783 21.0265 19.9704 21.1928 19.9132L22.3444 19.5205C20.6256 18.5743 18.6256 18.2722 16.704 18.6684C14.7823 19.0645 13.065 20.133 11.8605 21.6819C10.6561 23.2307 10.0435 25.1584 10.1328 27.1184C10.2222 29.0784 11.0076 30.9423 12.348 32.3752H24.4032C24.6639 32.0962 24.9051 31.7997 25.125 31.4875V23.0002C25.125 22.9007 25.1645 22.8053 25.2349 22.735C25.3052 22.6647 25.4006 22.6252 25.5 22.6252H25.518C25.3657 22.3614 25.1989 22.1063 25.0185 21.8609C24.5599 22.2748 24.0665 22.6485 23.5437 22.9777Z" fill="url(#paint1_linear_1152_34403)"/>
    <path d="M22.5001 25.625C22.4978 25.0204 22.3626 24.4237 22.1041 23.8771L21.8963 24.0072C21.7716 24.0863 21.6279 24.1302 21.4803 24.1341C21.3327 24.138 21.1868 24.1018 21.0582 24.0294C20.9265 23.9559 20.8169 23.8485 20.7407 23.7183C20.6645 23.5881 20.6246 23.4399 20.6251 23.2891V22.1705C20.0325 21.782 19.3499 21.5526 18.6431 21.5044C17.9362 21.4562 17.2288 21.5907 16.5889 21.895C15.9491 22.1994 15.3984 22.6633 14.9898 23.2422C14.5812 23.821 14.3285 24.4953 14.256 25.2001C14.1835 25.905 14.2937 26.6166 14.5759 27.2665C14.8581 27.9164 15.3029 28.4827 15.8674 28.9109C16.4318 29.3391 17.0971 29.6148 17.799 29.7115C18.5009 29.8081 19.2158 29.7225 19.8751 29.4628V27.125C19.8751 27.0255 19.9146 26.9302 19.9849 26.8598C20.0552 26.7895 20.1506 26.75 20.2501 26.75H21.7501C21.8495 26.75 21.9449 26.7895 22.0152 26.8598C22.0855 26.9302 22.1251 27.0255 22.1251 27.125V27.3365C22.3713 26.7995 22.4992 26.2158 22.5001 25.625ZM18.3751 25.25C18.7397 25.2495 19.0919 25.3822 19.3657 25.623C19.6394 25.8638 19.8159 26.1963 19.8619 26.558C19.908 26.9197 19.8204 27.2858 19.6157 27.5875C19.411 27.8892 19.1032 28.1059 18.7501 28.1968V28.625H18.0001V28.1968C17.679 28.1139 17.3945 27.9269 17.1909 27.6652C16.9874 27.4034 16.8763 27.0816 16.8751 26.75H17.6251C17.6251 26.8983 17.669 27.0433 17.7514 27.1667C17.8339 27.29 17.951 27.3861 18.088 27.4429C18.2251 27.4997 18.3759 27.5145 18.5214 27.4856C18.6669 27.4566 18.8005 27.3852 18.9054 27.2803C19.0103 27.1754 19.0817 27.0418 19.1106 26.8963C19.1396 26.7508 19.1247 26.6 19.068 26.463C19.0112 26.3259 18.9151 26.2088 18.7917 26.1264C18.6684 26.044 18.5234 26 18.3751 26C18.0104 26.0005 17.6582 25.8678 17.3844 25.627C17.1107 25.3862 16.9342 25.0537 16.8882 24.692C16.8421 24.3303 16.9297 23.9642 17.1344 23.6625C17.3391 23.3608 17.6469 23.1441 18.0001 23.0532V22.625H18.7501V23.0532C19.0711 23.1361 19.3556 23.3231 19.5592 23.5848C19.7627 23.8466 19.8738 24.1684 19.8751 24.5H19.1251C19.1251 24.3517 19.0811 24.2067 18.9987 24.0833C18.9162 23.96 18.7991 23.8639 18.6621 23.8071C18.525 23.7503 18.3742 23.7355 18.2287 23.7644C18.0832 23.7934 17.9496 23.8648 17.8447 23.9697C17.7398 24.0746 17.6684 24.2082 17.6395 24.3537C17.6105 24.4992 17.6254 24.65 17.6821 24.787C17.7389 24.9241 17.835 25.0412 17.9584 25.1236C18.0817 25.206 18.2267 25.25 18.3751 25.25ZM25.8751 23.375H26.6251V31.25H25.8751V23.375ZM16.7206 16.25H20.0296L20.9532 14.5891C20.9978 14.4572 21.0126 14.3171 20.9963 14.1788C20.98 14.0405 20.9331 13.9075 20.8591 13.7896C20.8353 13.7461 20.8018 13.7086 20.7612 13.68C20.7207 13.6515 20.6741 13.6327 20.6251 13.625H16.1251C16.076 13.6327 16.0294 13.6515 15.9889 13.68C15.9483 13.7086 15.9148 13.7461 15.891 13.7896C15.817 13.9075 15.7701 14.0405 15.7538 14.1788C15.7375 14.3171 15.7523 14.4572 15.7969 14.5891L16.7206 16.25ZM16.5001 17C16.4006 17 16.3052 17.0395 16.2349 17.1098C16.1646 17.1802 16.1251 17.2755 16.1251 17.375C16.1251 17.4745 16.1646 17.5698 16.2349 17.6402C16.3052 17.7105 16.4006 17.75 16.5001 17.75H20.2501C20.3495 17.75 20.4449 17.7105 20.5152 17.6402C20.5855 17.5698 20.6251 17.4745 20.6251 17.375C20.6251 17.2755 20.5855 17.1802 20.5152 17.1098C20.4449 17.0395 20.3495 17 20.2501 17H16.5001Z" fill="url(#paint2_linear_1152_34403)"/>
    <path d="M26.2455 13.2037L27.9176 14.0395C27.9909 14.0762 28.0502 14.1359 28.0863 14.2094C28.1225 14.283 28.1336 14.3664 28.1179 14.4468C27.6525 16.8277 25.4842 19.2427 23.0737 20.0643L21.4342 20.623C21.4164 20.6302 21.4012 20.6426 21.3906 20.6586C21.38 20.6746 21.3746 20.6935 21.375 20.7127V23.2889C21.3742 23.306 21.3781 23.3229 21.3864 23.3378C21.3947 23.3527 21.407 23.365 21.4219 23.3733C21.4333 23.3801 21.4464 23.3834 21.4597 23.383C21.473 23.3826 21.4859 23.3785 21.4969 23.371L23.1446 22.3417C25.5705 20.8252 27.4777 18.0918 28.5157 14.6422C28.5441 14.5478 28.6084 14.4684 28.6949 14.4211C28.7814 14.3738 28.883 14.3624 28.9777 14.3894L30.9536 14.9542L29.7799 10.8472L26.2455 13.2037ZM28.5 20.7502H29.25V31.2502H28.5V20.7502ZM31.125 18.5002H31.875V31.2502H31.125V18.5002Z" fill="url(#paint3_linear_1152_34403)"/>
    <defs>
    <linearGradient id="paint0_linear_1152_34403" x1="22.3174" y1="24.5663" x2="22.3174" y2="30.8663" gradientUnits="userSpaceOnUse">
    <stop stop-color="#488686"/>
    <stop offset="1" stop-color="#2B5151"/>
    </linearGradient>
    <linearGradient id="paint1_linear_1152_34403" x1="17.8435" y1="14.7092" x2="17.8435" y2="31.3611" gradientUnits="userSpaceOnUse">
    <stop stop-color="#488686"/>
    <stop offset="1" stop-color="#2B5151"/>
    </linearGradient>
    <linearGradient id="paint2_linear_1152_34403" x1="20.4477" y1="8.81202" x2="20.4477" y2="29.962" gradientUnits="userSpaceOnUse">
    <stop stop-color="#488686"/>
    <stop offset="1" stop-color="#2B5151"/>
    </linearGradient>
    <linearGradient id="paint3_linear_1152_34403" x1="26.6401" y1="5.27558" x2="26.6402" y2="29.7592" gradientUnits="userSpaceOnUse">
    <stop stop-color="#488686"/>
    <stop offset="1" stop-color="#2B5151"/>
    </linearGradient>
    </defs>
</svg>
