<svg width="94" height="94" viewBox="0 0 94 94" fill="none" xmlns="http://www.w3.org/2000/svg">
<path d="M42.5938 63.1562H17.625C17.2355 63.1562 16.8619 63.0015 16.5864 62.7261C16.311 62.4506 16.1563 62.077 16.1563 61.6875V59.0056L9.60123 64.625L16.1563 70.2444V67.5625C16.1563 67.173 16.311 66.7994 16.5864 66.5239C16.8619 66.2485 17.2355 66.0938 17.625 66.0938H42.5938V63.1562ZM51.4063 32.3125H76.375C76.7645 32.3125 77.1381 32.4672 77.4136 32.7427C77.689 33.0181 77.8438 33.3917 77.8438 33.7812V36.4632L84.3988 30.8438L77.8438 25.2243V27.9062C77.8438 28.2958 77.689 28.6694 77.4136 28.9448C77.1381 29.2203 76.7645 29.375 76.375 29.375H51.4063V32.3125ZM36.7188 30.8438C36.7188 27.6483 35.7712 24.5247 33.9959 21.8678C32.2207 19.2109 29.6974 17.1401 26.7452 15.9173C23.7931 14.6945 20.5446 14.3745 17.4106 14.9979C14.2766 15.6213 11.3978 17.1601 9.13831 19.4196C6.87882 21.679 5.34009 24.5578 4.7167 27.6918C4.0933 30.8258 4.41325 34.0743 5.63608 37.0265C6.85891 39.9786 8.92969 42.5019 11.5866 44.2772C14.2435 46.0525 17.3671 47 20.5625 47C24.8459 46.9949 28.9523 45.2912 31.9811 42.2624C35.0099 39.2336 36.7137 35.1271 36.7188 30.8438ZM14.6875 35.25H17.625C17.625 35.831 17.7973 36.3989 18.1201 36.882C18.4428 37.3651 18.9016 37.7416 19.4384 37.9639C19.9751 38.1862 20.5658 38.2444 21.1356 38.1311C21.7054 38.0177 22.2288 37.7379 22.6396 37.3271C23.0504 36.9163 23.3302 36.3929 23.4436 35.8231C23.5569 35.2533 23.4987 34.6626 23.2764 34.1259C23.0541 33.5891 22.6776 33.1303 22.1945 32.8076C21.7114 32.4848 21.1435 32.3125 20.5625 32.3125C19.1344 32.3143 17.7548 31.7948 16.6825 30.8515C15.6103 29.9083 14.9191 28.6061 14.7389 27.1894C14.5586 25.7728 14.9015 24.339 15.7034 23.1573C16.5052 21.9755 17.7107 21.127 19.0938 20.7711V17.625H22.0313V20.7711C23.2887 21.0957 24.4032 21.8279 25.2004 22.8531C25.9976 23.8783 26.4326 25.1388 26.4375 26.4375H23.5C23.5 25.8565 23.3277 25.2886 23.0049 24.8055C22.6822 24.3224 22.2234 23.9459 21.6866 23.7236C21.1499 23.5013 20.5592 23.4431 19.9894 23.5564C19.4196 23.6698 18.8962 23.9496 18.4854 24.3604C18.0746 24.7712 17.7948 25.2946 17.6814 25.8644C17.5681 26.4342 17.6263 27.0249 17.8486 27.5616C18.0709 28.0984 18.4475 28.5572 18.9305 28.8799C19.4136 29.2027 19.9815 29.375 20.5625 29.375C21.9906 29.3732 23.3702 29.8927 24.4425 30.836C25.5147 31.7792 26.2059 33.0814 26.3861 34.4981C26.5664 35.9147 26.2235 37.3485 25.4217 38.5302C24.6198 39.712 23.4143 40.5605 22.0313 40.9164V44.0625H19.0938V40.9164C17.8363 40.5918 16.7218 39.8596 15.9246 38.8344C15.1274 37.8092 14.6924 36.5487 14.6875 35.25ZM56.6732 7.34375L59.6107 4.40625H34.3893L37.3268 7.34375H56.6732ZM55.8125 86.6562H38.1875C37.798 86.6562 37.4244 86.811 37.1489 87.0864C36.8735 87.3619 36.7188 87.7355 36.7188 88.125V89.5938H57.2813V88.125C57.2813 87.7355 57.1265 87.3619 56.8511 87.0864C56.5756 86.811 56.202 86.6562 55.8125 86.6562Z" fill="url(#paint0_linear_599_14189)"/>
<path d="M54.3438 63.1561C54.3514 58.8623 55.8046 54.6961 58.4691 51.329C61.1335 47.9618 64.8542 45.5899 69.0312 44.5955V35.2499H49.9375C49.548 35.2499 49.1744 35.0951 48.8989 34.8197C48.6235 34.5442 48.4688 34.1706 48.4688 33.7811V27.9061C48.4688 27.5166 48.6235 27.143 48.8989 26.8675C49.1744 26.5921 49.548 26.4374 49.9375 26.4374H69.0312V10.2811C69.0265 8.82294 68.4786 7.41887 67.4944 6.34291C66.5102 5.26695 65.1605 4.59633 63.7085 4.46191L58.3197 9.85076C58.0443 10.1262 57.6708 10.281 57.2812 10.2811H36.7188C36.3292 10.281 35.9557 10.1262 35.6803 9.85076L30.2915 4.46191C28.8395 4.59633 27.4898 5.26695 26.5056 6.34291C25.5214 7.41887 24.9735 8.82294 24.9688 10.2811V12.283C29.1492 13.2708 32.8738 15.641 35.5392 19.0096C38.2046 22.3782 39.6547 26.548 39.6547 30.8436C39.6547 35.1392 38.2046 39.309 35.5392 42.6776C32.8738 46.0462 29.1492 48.4164 24.9688 49.4042V60.2186H44.0625C44.452 60.2186 44.8256 60.3733 45.1011 60.6488C45.3765 60.9242 45.5312 61.2978 45.5312 61.6873V67.5623C45.5312 67.9519 45.3765 68.3255 45.1011 68.6009C44.8256 68.8764 44.452 69.0311 44.0625 69.0311H24.9688V83.7186C24.9688 85.2767 25.5877 86.7711 26.6895 87.8729C27.7913 88.9746 29.2856 89.5936 30.8438 89.5936H33.7812V88.1248C33.7812 86.9562 34.2455 85.8355 35.0718 85.0092C35.8981 84.1828 37.0189 83.7186 38.1875 83.7186H55.8125C56.9811 83.7186 58.1019 84.1828 58.9282 85.0092C59.7545 85.8355 60.2188 86.9562 60.2188 88.1248V89.5936H63.1562C64.7144 89.5936 66.2087 88.9746 67.3105 87.8729C68.4123 86.7711 69.0312 85.2767 69.0312 83.7186V81.7167C64.8542 80.7223 61.1335 78.3504 58.4691 74.9832C55.8046 71.6161 54.3514 67.4499 54.3438 63.1561ZM49.9375 14.6874H61.6875V17.6249H49.9375V14.6874ZM41.125 23.4999V20.5624H58.75V23.4999H41.125ZM35.25 74.9061V71.9686H52.875V74.9061H35.25ZM55.8125 80.5711H44.0625V77.6336H55.8125V80.5711Z" fill="url(#paint1_linear_599_14189)"/>
<path d="M73.4375 47C70.2421 47 67.1185 47.9476 64.4616 49.7228C61.8047 51.4981 59.7339 54.0214 58.5111 56.9735C57.2883 59.9257 56.9683 63.1742 57.5917 66.3082C58.2151 69.4422 59.7538 72.321 62.0133 74.5804C64.2728 76.8399 67.1516 78.3787 70.2856 79.0021C73.4196 79.6255 76.6681 79.3055 79.6202 78.0827C82.5724 76.8598 85.0957 74.7891 86.8709 72.1322C88.6462 69.4753 89.5938 66.3517 89.5938 63.1562C89.5887 58.8729 87.8849 54.7664 84.8561 51.7376C81.8273 48.7088 77.7209 47.0051 73.4375 47ZM73.4375 61.6875C74.8656 61.6857 76.2452 62.2052 77.3175 63.1485C78.3897 64.0917 79.0809 65.3939 79.2612 66.8106C79.4414 68.2272 79.0985 69.661 78.2967 70.8427C77.4948 72.0245 76.2893 72.873 74.9063 73.2289V76.375H71.9688V73.2289C70.7113 72.9043 69.5969 72.1721 68.7996 71.1469C68.0024 70.1217 67.5674 68.8612 67.5625 67.5625H70.5C70.5 68.1435 70.6723 68.7114 70.9951 69.1945C71.3178 69.6776 71.7766 70.0541 72.3134 70.2764C72.8501 70.4987 73.4408 70.5569 74.0106 70.4436C74.5804 70.3302 75.1038 70.0504 75.5146 69.6396C75.9255 69.2288 76.2052 68.7054 76.3186 68.1356C76.4319 67.5658 76.3737 66.9751 76.1514 66.4384C75.9291 65.9016 75.5526 65.4428 75.0695 65.1201C74.5864 64.7973 74.0185 64.625 73.4375 64.625C72.0094 64.6268 70.6298 64.1073 69.5575 63.164C68.4853 62.2208 67.7941 60.9186 67.6139 59.5019C67.4336 58.0853 67.7765 56.6515 68.5784 55.4698C69.3802 54.288 70.5857 53.4395 71.9688 53.0836V49.9375H74.9063V53.0836C76.1637 53.4082 77.2782 54.1404 78.0754 55.1656C78.8726 56.1908 79.3076 57.4513 79.3125 58.75H76.375C76.375 58.169 76.2027 57.6011 75.88 57.118C75.5572 56.6349 75.0984 56.2584 74.5616 56.0361C74.0249 55.8138 73.4342 55.7556 72.8644 55.8689C72.2946 55.9823 71.7712 56.2621 71.3604 56.6729C70.9496 57.0837 70.6698 57.6071 70.5565 58.1769C70.4431 58.7467 70.5013 59.3374 70.7236 59.8741C70.9459 60.4109 71.3225 60.8697 71.8055 61.1924C72.2886 61.5152 72.8565 61.6875 73.4375 61.6875Z" fill="url(#paint2_linear_599_14189)"/>
<defs>
<linearGradient id="paint0_linear_599_14189" x1="44.5185" y1="-18.8565" x2="44.5185" y2="83.3685" gradientUnits="userSpaceOnUse">
<stop stop-color="#488686"/>
<stop offset="1" stop-color="#2B5151"/>
</linearGradient>
<linearGradient id="paint1_linear_599_14189" x1="47.0639" y1="-18.7856" x2="47.0639" y2="83.3724" gradientUnits="userSpaceOnUse">
<stop stop-color="#488686"/>
<stop offset="1" stop-color="#2B5151"/>
</linearGradient>
<linearGradient id="paint2_linear_599_14189" x1="73.4843" y1="38.1762" x2="73.4843" y2="76.9512" gradientUnits="userSpaceOnUse">
<stop stop-color="#488686"/>
<stop offset="1" stop-color="#2B5151"/>
</linearGradient>
</defs>
</svg>
