<svg width="85" height="82" viewBox="0 0 85 82" fill="none" xmlns="http://www.w3.org/2000/svg">
<path d="M43.6357 10.1214C42.8914 10.6942 42.6805 11.3937 43.003 12.22C43.0887 12.4484 43.2493 12.6567 43.4698 12.8256C43.6903 12.9945 43.9637 13.1184 44.2645 13.1859C44.5653 13.2533 44.8837 13.2621 45.1902 13.2115C45.4966 13.1608 45.7812 13.0523 46.0175 12.8961L52.8277 8.389C52.9684 8.29432 53.0833 8.17985 53.166 8.05215C53.2487 7.92445 53.2975 7.78603 53.3096 7.64476C53.3216 7.5035 53.2969 7.36216 53.2365 7.22886C53.1762 7.09556 53.0815 6.97288 52.9579 6.86785L46.4454 1.4031C46.2224 1.21777 45.9295 1.08789 45.6063 1.03109C45.2832 0.97428 44.9455 0.993282 44.6389 1.0855C44.3323 1.17772 44.0716 1.3387 43.8922 1.54666C43.7127 1.75462 43.6232 1.99949 43.6357 2.24814C43.6854 3.31856 44.0202 4.30448 44.6405 5.20589C44.6722 5.25498 44.6878 5.30935 44.6857 5.36389C44.6837 5.41844 44.6641 5.47139 44.6288 5.51782C44.5935 5.56424 44.5436 5.60262 44.4838 5.62935C44.424 5.65609 44.3563 5.67032 44.2869 5.6707C36.3726 5.72704 29.1407 7.37961 22.5909 10.6284C21.4745 11.1824 21.0403 11.9524 21.2884 12.9383L21.3814 13.3186C21.4218 13.4953 21.5209 13.6612 21.6694 13.801C21.818 13.9408 22.0113 14.05 22.2317 14.1187C22.4521 14.1874 22.6925 14.2133 22.9308 14.1941C23.1691 14.1749 23.3977 14.1111 23.5956 14.0087C29.4135 10.9665 35.864 9.29039 42.9472 8.98053C43.1252 8.97437 43.3015 9.00867 43.4536 9.07896C43.6056 9.14925 43.7264 9.25237 43.8004 9.37502C43.8744 9.49768 43.8983 9.63428 43.8689 9.76728C43.8396 9.90029 43.7584 10.0236 43.6357 10.1214Z" stroke="url(#paint0_linear_599_6356)" stroke-width="2"/>
<path d="M72.3097 22.1635C71.6522 22.0133 71.001 21.9945 70.3559 22.1072C70.0723 22.1566 69.8181 22.2745 69.6331 22.4426C69.448 22.6107 69.3424 22.8196 69.3326 23.0368L69.2953 24.0368C69.2905 24.2419 69.3704 24.4431 69.5239 24.6123C69.6773 24.7814 69.8966 24.9101 70.1513 24.9804L78.264 27.1635C79.4053 27.464 80.224 27.1964 80.7202 26.3607C81.8987 24.342 82.7856 22.2293 83.381 20.0227C83.5175 19.5063 83.4493 19.0931 83.1764 18.7833C82.643 18.2011 81.8056 18.1025 80.6644 18.4875C80.2432 18.6238 79.9016 18.8575 79.6968 19.1494L78.9897 20.1072C78.9257 20.1927 78.8332 20.2639 78.7216 20.314C78.6099 20.3641 78.4829 20.3912 78.3531 20.3926C78.2233 20.394 78.0953 20.3697 77.9818 20.3221C77.8682 20.2745 77.7731 20.2053 77.7058 20.1213C73.4262 14.7879 67.54 10.788 60.0475 8.12129C59.0551 7.77387 58.3046 7.96166 57.796 8.68466L57.368 9.27623C57.2595 9.43105 57.1931 9.60078 57.1728 9.77538C57.1525 9.94998 57.1787 10.1259 57.2498 10.2927C57.321 10.4595 57.4356 10.6138 57.5869 10.7464C57.7383 10.8791 57.9233 10.9874 58.1309 11.0649C64.3706 13.3842 69.4442 16.7269 73.3517 21.0931C74.3441 22.1917 73.9967 22.5485 72.3097 22.1635Z" fill="url(#paint1_linear_599_6356)" stroke="url(#paint2_linear_599_6356)" stroke-width="2"/>
<path d="M10.534 20.628C6.77535 25.7736 5.1937 31.2853 5.78913 37.1632C5.88837 38.1585 6.58309 38.7736 7.87319 39.0083L8.33838 39.0788C8.53385 39.1152 8.73798 39.1158 8.93382 39.0805C9.12967 39.0452 9.31157 38.9751 9.46442 38.876C9.61727 38.7768 9.73663 38.6515 9.81263 38.5104C9.88862 38.3692 9.91907 38.2165 9.90138 38.0647C9.28114 32.5811 10.6333 27.4168 13.9578 22.5717C14.0249 22.4759 14.124 22.3951 14.2453 22.3374C14.3665 22.2797 14.5056 22.247 14.6488 22.2428C14.7919 22.2385 14.934 22.2627 15.0609 22.313C15.1878 22.3633 15.2951 22.438 15.3719 22.5295L16.6372 24.0787C16.8486 24.3404 17.1735 24.5385 17.5563 24.639C17.9392 24.7395 18.3563 24.7363 18.7364 24.6298C19.1164 24.5234 19.4359 24.3204 19.6402 24.0555C19.8444 23.7905 19.9208 23.4802 19.8563 23.1773L18.5166 16.783C18.4646 16.5471 18.3511 16.3215 18.183 16.1197C18.015 15.9179 17.7958 15.744 17.5386 15.6085C17.2814 15.4731 16.9914 15.3787 16.6863 15.3313C16.3811 15.2838 16.067 15.2841 15.7627 15.3322L7.31494 16.6421C6.98854 16.6961 6.68829 16.8186 6.44909 16.9954C6.20988 17.1722 6.04152 17.396 5.96357 17.6408C5.88563 17.8856 5.90132 18.1415 6.00877 18.3785C6.11623 18.6156 6.31108 18.8242 6.57066 18.9801C7.45141 19.506 8.43759 19.6984 9.52921 19.5576C9.70739 19.536 9.89001 19.5526 10.0564 19.6054C10.2228 19.6583 10.3663 19.7453 10.4708 19.8566C10.5753 19.9679 10.6367 20.0992 10.6478 20.2355C10.659 20.3718 10.6196 20.5078 10.534 20.628Z" stroke="url(#paint3_linear_599_6356)" stroke-width="2"/>
<path d="M70.2075 34.9513C70.2075 32.3767 69.5375 29.8273 68.2358 27.4486C66.9342 25.0699 65.0263 22.9086 62.6211 21.088C60.2159 19.2675 57.3606 17.8234 54.2181 16.8381C51.0756 15.8528 47.7075 15.3457 44.3061 15.3457C40.9047 15.3457 37.5366 15.8528 34.3941 16.8381C31.2516 17.8234 28.3962 19.2675 25.9911 21.088C23.5859 22.9086 21.678 25.0699 20.3764 27.4486C19.0747 29.8273 18.4048 32.3767 18.4048 34.9513C18.4048 40.151 21.1336 45.1378 25.9911 48.8146C30.8485 52.4914 37.4366 54.557 44.3061 54.557C51.1756 54.557 57.7637 52.4914 62.6211 48.8146C67.4786 45.1378 70.2075 40.151 70.2075 34.9513Z" stroke="url(#paint4_linear_599_6356)" stroke-width="2"/>
<path d="M79.0458 50.2633C78.8774 50.2934 78.701 50.2858 78.5382 50.2414C78.3753 50.1971 78.233 50.1179 78.1286 50.0134C78.0241 49.909 77.962 49.7838 77.9498 49.6531C77.9375 49.5225 77.9757 49.3919 78.0596 49.2774C81.9672 43.9441 83.5302 38.221 82.7486 32.1084C82.6246 31.1412 81.9237 30.6765 80.646 30.714L80.032 30.7281C78.9404 30.7469 78.438 31.1647 78.5248 31.9816C79.0582 37.2117 77.8115 42.1741 74.7847 46.869C74.6947 47.0013 74.557 47.1116 74.3876 47.1872C74.2182 47.2628 74.024 47.3005 73.8275 47.2961C73.6309 47.2917 73.44 47.2453 73.2769 47.1622C73.1137 47.0791 72.9849 46.9628 72.9054 46.8267C72.6201 46.3384 72.1921 45.9159 71.6215 45.5591C71.3871 45.4142 71.1039 45.322 70.8038 45.2928C70.5037 45.2636 70.1988 45.2986 69.9237 45.394C69.6486 45.4893 69.4143 45.641 69.2473 45.832C69.0804 46.023 68.9876 46.2457 68.9793 46.4746C68.9048 48.9722 69.4258 51.4089 70.5423 53.7844C70.7532 54.2352 71.1749 54.4605 71.8076 54.4605C75.4918 54.4323 78.5372 54.0286 80.9437 53.2492C81.9733 52.9206 82.4633 52.4417 82.4137 51.8126C82.3889 51.3243 82.116 50.9347 81.595 50.6436C80.8011 50.2117 79.9514 50.0849 79.0458 50.2633Z" stroke="url(#paint5_linear_599_6356)" stroke-width="2"/>
<path d="M15.5757 47.684C16.0719 47.7591 16.5929 47.7967 17.1387 47.7967C17.8086 47.7967 18.3234 47.6746 18.6832 47.4305C19.3406 46.9986 19.4708 46.3976 19.0739 45.6277C18.8506 45.1864 18.4412 44.8859 17.8458 44.7262L10.2168 42.7403C9.96889 42.6766 9.70672 42.651 9.44555 42.6648C9.18439 42.6786 8.92946 42.7316 8.69565 42.8207C8.46184 42.9099 8.25385 43.0334 8.08374 43.184C7.91362 43.3346 7.78483 43.5094 7.70487 43.6981L4.87652 50.2192C4.81515 50.3566 4.79342 50.5024 4.81275 50.6469C4.83209 50.7915 4.89208 50.9315 4.98873 51.0579C5.08538 51.1842 5.21651 51.294 5.37356 51.3801C5.53061 51.4662 5.71002 51.5265 5.89996 51.5572C7.66145 51.8389 8.75304 51.346 9.1748 50.0784C9.21468 49.9505 9.30199 49.8338 9.42647 49.7421C9.55095 49.6505 9.70741 49.5877 9.87746 49.561C10.0475 49.5344 10.2241 49.5451 10.3864 49.5918C10.5487 49.6386 10.69 49.7194 10.7936 49.8248L16.3386 55.3741C17.2194 56.2474 18.3048 56.4258 19.5949 55.9093L20.3578 55.5995C21.3006 55.2145 21.4308 54.7122 20.7485 54.0925L14.7756 48.6981C14.6604 48.5996 14.5896 48.4759 14.5735 48.3449C14.5573 48.214 14.5966 48.0825 14.6857 47.9696C14.7748 47.8566 14.9091 47.7681 15.0691 47.7168C15.2291 47.6654 15.4065 47.6539 15.5757 47.684Z" stroke="url(#paint6_linear_599_6356)" stroke-width="2"/>
<path d="M28.508 64.5726C32.8621 64.2346 43.6171 64.136 47.4316 62.1783C47.8005 61.9919 48.1089 61.7447 48.3337 61.4552C48.5585 61.1658 48.6939 60.8416 48.7297 60.507C48.7655 60.1723 48.7008 59.8359 48.5405 59.5228C48.3801 59.2098 48.1282 58.9283 47.8037 58.6994C46.7245 57.9294 45.2111 57.5585 43.2636 57.5867C36.9743 57.6712 31.0572 57.7275 25.5122 57.7557C23.7667 57.7555 22.0711 58.2132 20.7115 59.0515L2.04844 70.5585C1.8994 70.6488 1.77797 70.7624 1.69228 70.8918C1.60659 71.0211 1.55861 71.1632 1.55157 71.3086C1.54452 71.4539 1.57854 71.5992 1.6514 71.7346C1.72425 71.87 1.83424 71.9925 1.97399 72.0938L14.2176 80.7557C14.4331 80.9077 14.7139 80.9946 15.006 80.9998C15.2981 81.005 15.5807 80.9281 15.7992 80.7839L20.9162 77.5022C21.462 77.1454 22.0947 76.9858 22.8142 77.0233L38.2954 77.7839C40.7003 77.9021 43.0786 77.3289 44.9568 76.1783L68.1601 61.9247C68.8833 61.4821 69.3729 60.8578 69.5402 60.1653C69.7074 59.4728 69.5413 58.7578 69.0719 58.1501C66.6343 55.0092 57.5353 58.3754 53.8883 59.5304C53.3053 59.7182 52.9579 60.0421 52.8463 60.5022C51.0786 67.6853 35.7835 67.3895 29.2709 67.4458C28.1173 67.4458 27.4784 67.0139 27.3544 66.1501L27.2799 65.7275C27.2593 65.5905 27.2747 65.4518 27.3255 65.3193C27.3762 65.1869 27.4611 65.0634 27.5753 64.956C27.6895 64.8485 27.8308 64.7594 27.9909 64.6935C28.151 64.6277 28.3268 64.5866 28.508 64.5726Z" stroke="url(#paint7_linear_599_6356)" stroke-width="2"/>
<path d="M46.9853 23.4596C47.5063 21.3282 46.1108 20.6568 42.7987 21.4455C42.5019 21.5179 42.2521 21.6717 42.1001 21.8757C41.9481 22.0797 41.9051 22.3187 41.9799 22.5441C42.1288 23.0042 41.9489 23.4878 41.4403 23.9948C41.1302 24.2953 40.6154 24.5394 39.8959 24.7272C34.7231 26.0934 32.4344 30.0934 35.0022 33.7836C37.2165 36.9526 43.2638 36.8963 47.1528 37.0512C47.763 37.0768 48.3355 37.2819 48.7464 37.6219C49.1573 37.9619 49.3735 38.4095 49.3484 38.8681C49.1065 43.1075 41.5148 41.9244 38.9284 40.0089C38.4198 39.6427 37.8305 39.3845 37.1607 39.2343C36.2799 39.0371 35.4798 39.1028 34.7603 39.4315C34.4531 39.5682 34.2203 39.7827 34.1042 40.036C33.9881 40.2893 33.9964 40.5645 34.1277 40.8117C35.3185 43.0559 37.4212 44.5676 40.4356 45.3469C40.6927 45.416 40.9227 45.5321 41.1047 45.6846C41.2867 45.8371 41.4148 46.0212 41.4776 46.2202L41.9613 47.7836C42.1226 48.3 42.5568 48.6052 43.2639 48.6991C44.157 48.8211 45.0378 48.7742 45.9061 48.5582C46.1871 48.4871 46.4341 48.3556 46.6161 48.1802C46.7981 48.0048 46.9072 47.7934 46.9295 47.5723L47.0783 46.4737C47.1403 45.9385 47.5063 45.5723 48.1762 45.3751C53.1009 43.9948 55.1229 41.4784 54.2421 37.8258C53.0699 33.0089 46.3713 32.8681 41.7195 32.7976C41.3358 32.7911 40.9587 32.7209 40.6147 32.592C40.2708 32.4631 39.9684 32.2787 39.7288 32.0517C39.4893 31.8247 39.3185 31.5608 39.2284 31.2784C39.1383 30.996 39.1312 30.702 39.2075 30.4173C40.0634 27.2483 46.7062 27.7131 48.9391 29.516C50.2416 30.5864 51.6557 31.1216 53.3862 30.5723C53.7941 30.4429 54.1217 30.2014 54.3016 29.8976C54.4815 29.5938 54.5002 29.2506 54.3538 28.9385C53.2622 26.5817 51.0851 25.0934 47.8227 24.4737C47.128 24.3422 46.8489 24.0042 46.9853 23.4596Z" stroke="url(#paint8_linear_599_6356)" stroke-width="2"/>
<path d="M43.6357 10.1214C43.7584 10.0236 43.8396 9.90029 43.8689 9.76728C43.8983 9.63428 43.8744 9.49768 43.8004 9.37502C43.7264 9.25237 43.6056 9.14925 43.4536 9.07896C43.3015 9.00867 43.1252 8.97437 42.9472 8.98053C35.864 9.29039 29.4135 10.9665 23.5956 14.0087C23.3977 14.1111 23.1691 14.1749 22.9308 14.1941C22.6925 14.2133 22.4521 14.1874 22.2317 14.1187C22.0113 14.05 21.818 13.9408 21.6694 13.801C21.5209 13.6612 21.4218 13.4953 21.3814 13.3186L21.2884 12.9383C21.0403 11.9524 21.4745 11.1824 22.5909 10.6284C29.1407 7.37961 36.3726 5.72704 44.2869 5.6707C44.3563 5.67032 44.424 5.65609 44.4838 5.62935C44.5436 5.60262 44.5935 5.56424 44.6288 5.51782C44.6641 5.47139 44.6837 5.41844 44.6857 5.36389C44.6878 5.30935 44.6722 5.25498 44.6405 5.20589C44.0202 4.30448 43.6854 3.31856 43.6357 2.24814C43.6232 1.99949 43.7127 1.75462 43.8922 1.54666C44.0716 1.3387 44.3323 1.17772 44.6389 1.0855C44.9455 0.993282 45.2832 0.97428 45.6063 1.03109C45.9295 1.08789 46.2224 1.21777 46.4454 1.4031L52.9579 6.86785C53.0815 6.97288 53.1762 7.09556 53.2365 7.22886C53.2969 7.36216 53.3216 7.5035 53.3096 7.64476C53.2975 7.78603 53.2487 7.92445 53.166 8.05215C53.0833 8.17985 52.9684 8.29432 52.8277 8.389L46.0175 12.8961C45.7812 13.0523 45.4966 13.1608 45.1902 13.2115C44.8837 13.2621 44.5653 13.2533 44.2645 13.1859C43.9637 13.1184 43.6903 12.9945 43.4698 12.8256C43.2493 12.6567 43.0887 12.4484 43.003 12.22C42.6805 11.3937 42.8914 10.6942 43.6357 10.1214Z" fill="url(#paint9_linear_599_6356)"/>
<path d="M72.3097 22.1635C73.9967 22.5485 74.3441 22.1917 73.3517 21.0931C69.4442 16.7269 64.3706 13.3842 58.1309 11.0649C57.9233 10.9874 57.7383 10.8791 57.5869 10.7464C57.4356 10.6138 57.321 10.4595 57.2498 10.2927C57.1787 10.1259 57.1525 9.94998 57.1728 9.77538C57.1931 9.60078 57.2595 9.43105 57.368 9.27623L57.796 8.68466C58.3046 7.96166 59.0551 7.77387 60.0475 8.12129C67.54 10.788 73.4262 14.7879 77.7058 20.1213C77.7731 20.2053 77.8682 20.2745 77.9818 20.3221C78.0953 20.3697 78.2233 20.394 78.3531 20.3926C78.4829 20.3912 78.6099 20.3641 78.7216 20.314C78.8332 20.2639 78.9257 20.1927 78.9897 20.1072L79.6968 19.1494C79.9016 18.8575 80.2432 18.6238 80.6644 18.4875C81.8056 18.1025 82.643 18.2011 83.1764 18.7833C83.4493 19.0931 83.5175 19.5063 83.381 20.0227C82.7856 22.2293 81.8987 24.342 80.7202 26.3607C80.224 27.1964 79.4053 27.464 78.264 27.1635L70.1513 24.9804C69.8966 24.9101 69.6773 24.7814 69.5239 24.6123C69.3704 24.4431 69.2905 24.2419 69.2953 24.0368L69.3326 23.0368C69.3424 22.8196 69.448 22.6107 69.6331 22.4426C69.8181 22.2745 70.0723 22.1566 70.3559 22.1072C71.001 21.9945 71.6522 22.0133 72.3097 22.1635Z" fill="url(#paint10_linear_599_6356)"/>
<path d="M9.52921 19.5576C8.43759 19.6984 7.45141 19.506 6.57066 18.9801C6.31108 18.8242 6.11623 18.6156 6.00877 18.3785C5.90132 18.1415 5.88563 17.8856 5.96357 17.6408C6.04152 17.396 6.20988 17.1722 6.44909 16.9954C6.68829 16.8186 6.98854 16.6961 7.31494 16.6421L15.7627 15.3322C16.067 15.2841 16.3811 15.2838 16.6863 15.3313C16.9914 15.3787 17.2814 15.4731 17.5386 15.6085C17.7958 15.744 18.0149 15.9179 18.183 16.1197C18.3511 16.3215 18.4646 16.5471 18.5166 16.783L19.8563 23.1773C19.9208 23.4802 19.8444 23.7905 19.6402 24.0555C19.4359 24.3204 19.1164 24.5234 18.7364 24.6298C18.3563 24.7363 17.9392 24.7395 17.5563 24.639C17.1735 24.5385 16.8486 24.3404 16.6372 24.0787L15.3719 22.5295C15.2951 22.438 15.1878 22.3633 15.0609 22.313C14.934 22.2627 14.7919 22.2385 14.6488 22.2428C14.5056 22.247 14.3665 22.2797 14.2453 22.3374C14.124 22.3951 14.0249 22.4759 13.9578 22.5717C10.6333 27.4168 9.28114 32.5811 9.90138 38.0647C9.91907 38.2165 9.88862 38.3692 9.81263 38.5104C9.73663 38.6515 9.61727 38.7768 9.46442 38.876C9.31157 38.9751 9.12967 39.0452 8.93382 39.0805C8.73798 39.1158 8.53385 39.1152 8.33838 39.0788L7.87319 39.0083C6.58309 38.7736 5.88837 38.1585 5.78913 37.1632C5.1937 31.2853 6.77535 25.7736 10.534 20.628C10.6196 20.5078 10.659 20.3718 10.6478 20.2355C10.6367 20.0992 10.5753 19.9679 10.4708 19.8566C10.3663 19.7453 10.2228 19.6583 10.0564 19.6054C9.89001 19.5526 9.70739 19.536 9.52921 19.5576Z" fill="url(#paint11_linear_599_6356)"/>
<path d="M70.2075 34.9513C70.2075 40.151 67.4785 45.1378 62.6211 48.8146C57.7637 52.4914 51.1756 54.557 44.3061 54.557C37.4366 54.557 30.8485 52.4914 25.9911 48.8146C21.1336 45.1378 18.4048 40.151 18.4048 34.9513C18.4048 32.3767 19.0747 29.8273 20.3764 27.4486C21.678 25.0699 23.5859 22.9086 25.9911 21.088C28.3962 19.2675 31.2516 17.8234 34.3941 16.8381C37.5366 15.8528 40.9047 15.3457 44.3061 15.3457C47.7075 15.3457 51.0756 15.8528 54.2181 16.8381C57.3606 17.8234 60.2159 19.2675 62.6211 21.088C65.0263 22.9086 66.9342 25.0699 68.2358 27.4486C69.5375 29.8273 70.2075 32.3767 70.2075 34.9513ZM46.9855 23.4584C47.5066 21.3269 46.111 20.6555 42.7989 21.4443C42.5021 21.5167 42.2524 21.6705 42.1003 21.8745C41.9483 22.0785 41.9054 22.3174 41.9802 22.5429C42.129 23.003 41.9492 23.4865 41.4406 23.9936C41.1304 24.294 40.6157 24.5382 39.8962 24.726C34.7234 26.0922 32.4346 30.0922 35.0025 33.7823C37.2167 36.9513 43.2641 36.895 47.153 37.0499C47.7633 37.0756 48.3357 37.2806 48.7466 37.6206C49.1575 37.9606 49.3738 38.4083 49.3487 38.8668C49.1068 43.1062 41.515 41.9232 38.9286 40.0077C38.42 39.6415 37.8308 39.3832 37.1609 39.233C36.2802 39.0358 35.48 39.1016 34.7605 39.4302C34.4533 39.5669 34.2205 39.7814 34.1044 40.0347C33.9883 40.288 33.9967 40.5633 34.1279 40.8105C35.3188 43.0546 37.4214 44.5663 40.4358 45.3457C40.6929 45.4148 40.9229 45.5308 41.1049 45.6834C41.2869 45.8359 41.4151 46.02 41.4778 46.2189L41.9616 47.7823C42.1228 48.2987 42.557 48.6039 43.2641 48.6978C44.1572 48.8199 45.038 48.7729 45.9064 48.5569C46.1874 48.4858 46.4343 48.3543 46.6163 48.179C46.7984 48.0036 46.9074 47.7922 46.9297 47.5711L47.0786 46.4725C47.1406 45.9373 47.5066 45.5711 48.1764 45.3739C53.1012 43.9936 55.1231 41.4771 54.2424 37.8246C53.0701 33.0077 46.3715 32.8668 41.7197 32.7964C41.336 32.7898 40.9589 32.7196 40.615 32.5908C40.271 32.4619 39.9686 32.2774 39.7291 32.0505C39.4895 31.8235 39.3187 31.5595 39.2286 31.2771C39.1385 30.9947 39.1314 30.7008 39.2077 30.4161C40.0637 27.2471 46.7064 27.7119 48.9393 29.5147C50.2418 30.5851 51.656 31.1203 53.3865 30.571C53.7943 30.4416 54.1219 30.2002 54.3018 29.8964C54.4818 29.5925 54.5004 29.2493 54.354 28.9372C53.2624 26.5804 51.0854 25.0922 47.8229 24.4724C47.1282 24.341 46.8491 24.003 46.9855 23.4584Z" fill="url(#paint12_linear_599_6356)"/>
<path d="M47.8227 24.4737C51.0851 25.0934 53.2622 26.5817 54.3538 28.9385C54.5002 29.2506 54.4815 29.5938 54.3016 29.8976C54.1217 30.2014 53.7941 30.4429 53.3862 30.5723C51.6557 31.1216 50.2416 30.5864 48.9391 29.516C46.7062 27.7131 40.0634 27.2483 39.2075 30.4173C39.1312 30.702 39.1383 30.996 39.2284 31.2784C39.3185 31.5608 39.4893 31.8247 39.7288 32.0517C39.9684 32.2787 40.2708 32.4631 40.6147 32.592C40.9587 32.7209 41.3358 32.7911 41.7195 32.7976C46.3713 32.8681 53.0699 33.0089 54.2421 37.8258C55.1229 41.4784 53.1009 43.9948 48.1762 45.3751C47.5063 45.5723 47.1403 45.9385 47.0783 46.4737L46.9295 47.5723C46.9072 47.7934 46.7981 48.0048 46.6161 48.1802C46.4341 48.3556 46.1871 48.4871 45.9061 48.5582C45.0378 48.7742 44.157 48.8211 43.2639 48.6991C42.5568 48.6052 42.1226 48.3 41.9613 47.7836L41.4776 46.2202C41.4148 46.0212 41.2867 45.8371 41.1047 45.6846C40.9227 45.5321 40.6927 45.416 40.4356 45.3469C37.4212 44.5676 35.3185 43.0559 34.1277 40.8117C33.9964 40.5645 33.9881 40.2893 34.1042 40.036C34.2203 39.7827 34.4531 39.5682 34.7603 39.4315C35.4798 39.1028 36.2799 39.0371 37.1607 39.2343C37.8305 39.3845 38.4198 39.6427 38.9284 40.0089C41.5148 41.9244 49.1065 43.1075 49.3484 38.868C49.3735 38.4095 49.1573 37.9619 48.7464 37.6219C48.3355 37.2819 47.763 37.0768 47.1528 37.0512C43.2638 36.8963 37.2165 36.9526 35.0022 33.7836C32.4344 30.0934 34.7231 26.0934 39.8959 24.7272C40.6154 24.5394 41.1302 24.2953 41.4403 23.9948C41.9489 23.4878 42.1288 23.0042 41.9799 22.5441C41.9051 22.3187 41.9481 22.0797 42.1001 21.8757C42.2521 21.6717 42.5019 21.5179 42.7987 21.4455C46.1108 20.6568 47.5063 21.3282 46.9853 23.4596C46.8489 24.0042 47.128 24.3422 47.8227 24.4737Z" fill="white"/>
<path d="M79.0458 50.2633C79.9514 50.0849 80.8011 50.2117 81.595 50.6436C82.116 50.9347 82.3889 51.3243 82.4137 51.8126C82.4633 52.4417 81.9733 52.9206 80.9437 53.2492C78.5372 54.0286 75.4918 54.4323 71.8076 54.4605C71.1749 54.4605 70.7532 54.2352 70.5423 53.7844C69.4258 51.4089 68.9048 48.9722 68.9793 46.4746C68.9876 46.2457 69.0804 46.023 69.2473 45.832C69.4143 45.641 69.6486 45.4893 69.9237 45.394C70.1988 45.2986 70.5037 45.2636 70.8038 45.2928C71.1039 45.322 71.3871 45.4142 71.6215 45.5591C72.1921 45.9159 72.6201 46.3384 72.9054 46.8267C72.9849 46.9628 73.1137 47.0791 73.2769 47.1622C73.44 47.2453 73.6309 47.2917 73.8275 47.2961C74.024 47.3005 74.2182 47.2628 74.3876 47.1872C74.557 47.1116 74.6947 47.0013 74.7847 46.8689C77.8115 42.1741 79.0582 37.2117 78.5248 31.9816C78.438 31.1647 78.9404 30.7469 80.032 30.7281L80.646 30.714C81.9237 30.6765 82.6246 31.1412 82.7486 32.1084C83.5302 38.221 81.9672 43.9441 78.0596 49.2774C77.9757 49.3919 77.9375 49.5225 77.9498 49.6531C77.962 49.7838 78.0241 49.909 78.1286 50.0134C78.233 50.1179 78.3753 50.1971 78.5382 50.2414C78.701 50.2858 78.8774 50.2934 79.0458 50.2633Z" fill="url(#paint13_linear_599_6356)"/>
<path d="M15.5757 47.684C15.4065 47.6539 15.2291 47.6654 15.0691 47.7168C14.9091 47.7681 14.7748 47.8566 14.6857 47.9696C14.5966 48.0825 14.5573 48.214 14.5735 48.3449C14.5896 48.4759 14.6604 48.5996 14.7756 48.6981L20.7485 54.0925C21.4308 54.7122 21.3006 55.2145 20.3578 55.5995L19.5949 55.9093C18.3048 56.4258 17.2194 56.2474 16.3386 55.3741L10.7936 49.8248C10.69 49.7194 10.5487 49.6386 10.3864 49.5918C10.2241 49.5451 10.0475 49.5344 9.87746 49.561C9.70741 49.5877 9.55095 49.6505 9.42647 49.7421C9.30199 49.8338 9.21468 49.9505 9.1748 50.0784C8.75304 51.346 7.66145 51.8389 5.89996 51.5572C5.71002 51.5265 5.53061 51.4662 5.37356 51.3801C5.21651 51.294 5.08538 51.1842 4.98873 51.0579C4.89208 50.9315 4.83209 50.7915 4.81275 50.6469C4.79342 50.5024 4.81515 50.3566 4.87652 50.2192L7.70487 43.6981C7.78483 43.5094 7.91362 43.3346 8.08374 43.184C8.25385 43.0334 8.46184 42.9099 8.69565 42.8207C8.92946 42.7316 9.18439 42.6786 9.44555 42.6648C9.70672 42.651 9.96889 42.6766 10.2168 42.7403L17.8458 44.7262C18.4412 44.8859 18.8506 45.1864 19.0739 45.6277C19.4708 46.3976 19.3406 46.9986 18.6832 47.4305C18.3234 47.6746 17.8086 47.7967 17.1387 47.7967C16.5929 47.7967 16.0719 47.7591 15.5757 47.684Z" fill="url(#paint14_linear_599_6356)"/>
<path d="M28.508 64.5726C28.3268 64.5866 28.151 64.6277 27.9909 64.6935C27.8308 64.7594 27.6895 64.8485 27.5753 64.956C27.4611 65.0634 27.3762 65.1869 27.3255 65.3193C27.2747 65.4518 27.2593 65.5905 27.2799 65.7275L27.3544 66.1501C27.4784 67.0139 28.1173 67.4458 29.2709 67.4458C35.7835 67.3895 51.0786 67.6853 52.8463 60.5022C52.9579 60.0421 53.3053 59.7182 53.8883 59.5304C57.5353 58.3754 66.6343 55.0092 69.0719 58.1501C69.5413 58.7578 69.7074 59.4728 69.5402 60.1653C69.3729 60.8578 68.8833 61.4821 68.1601 61.9247L44.9568 76.1783C43.0786 77.3289 40.7003 77.9021 38.2954 77.7839L22.8142 77.0233C22.0947 76.9858 21.462 77.1454 20.9162 77.5022L15.7992 80.7839C15.5807 80.9281 15.2981 81.005 15.006 80.9998C14.7139 80.9946 14.4331 80.9077 14.2176 80.7557L1.97399 72.0938C1.83424 71.9925 1.72425 71.87 1.6514 71.7346C1.57854 71.5992 1.54452 71.4539 1.55157 71.3086C1.55861 71.1632 1.60659 71.0211 1.69228 70.8918C1.77797 70.7624 1.8994 70.6488 2.04844 70.5585L20.7115 59.0515C22.0711 58.2132 23.7667 57.7555 25.5122 57.7557C31.0572 57.7275 36.9743 57.6712 43.2636 57.5867C45.2111 57.5585 46.7245 57.9294 47.8037 58.6994C48.1282 58.9283 48.3801 59.2098 48.5405 59.5228C48.7008 59.8359 48.7655 60.1723 48.7297 60.507C48.6939 60.8416 48.5585 61.1658 48.3337 61.4552C48.1089 61.7447 47.8005 61.9919 47.4316 62.1783C43.6171 64.136 32.8621 64.2346 28.508 64.5726Z" fill="url(#paint15_linear_599_6356)"/>
<defs>
<linearGradient id="paint0_linear_599_6356" x1="37.3131" y1="-2.60593" x2="37.3131" y2="13.2355" gradientUnits="userSpaceOnUse">
<stop stop-color="#488686"/>
<stop offset="1" stop-color="#2B5151"/>
</linearGradient>
<linearGradient id="paint1_linear_599_6356" x1="70.3458" y1="2.67341" x2="70.3458" y2="25.8701" gradientUnits="userSpaceOnUse">
<stop stop-color="#488686"/>
<stop offset="1" stop-color="#2B5151"/>
</linearGradient>
<linearGradient id="paint2_linear_599_6356" x1="70.3458" y1="2.67341" x2="70.3458" y2="25.8701" gradientUnits="userSpaceOnUse">
<stop stop-color="#488686"/>
<stop offset="1" stop-color="#2B5151"/>
</linearGradient>
<linearGradient id="paint3_linear_599_6356" x1="12.7934" y1="8.79376" x2="12.7934" y2="37.3665" gradientUnits="userSpaceOnUse">
<stop stop-color="#488686"/>
<stop offset="1" stop-color="#2B5151"/>
</linearGradient>
<linearGradient id="paint4_linear_599_6356" x1="44.3812" y1="4.63801" x2="44.3812" y2="51.6915" gradientUnits="userSpaceOnUse">
<stop stop-color="#488686"/>
<stop offset="1" stop-color="#2B5151"/>
</linearGradient>
<linearGradient id="paint5_linear_599_6356" x1="75.9784" y1="24.2267" x2="75.9784" y2="52.725" gradientUnits="userSpaceOnUse">
<stop stop-color="#488686"/>
<stop offset="1" stop-color="#2B5151"/>
</linearGradient>
<linearGradient id="paint6_linear_599_6356" x1="13.0158" y1="38.9647" x2="13.0158" y2="55.208" gradientUnits="userSpaceOnUse">
<stop stop-color="#488686"/>
<stop offset="1" stop-color="#2B5151"/>
</linearGradient>
<linearGradient id="paint7_linear_599_6356" x1="35.6758" y1="50.2485" x2="35.6758" y2="79.2349" gradientUnits="userSpaceOnUse">
<stop stop-color="#488686"/>
<stop offset="1" stop-color="#2B5151"/>
</linearGradient>
<linearGradient id="paint8_linear_599_6356" x1="44.2276" y1="13.5784" x2="44.2276" y2="46.7454" gradientUnits="userSpaceOnUse">
<stop stop-color="#488686"/>
<stop offset="1" stop-color="#2B5151"/>
</linearGradient>
<linearGradient id="paint9_linear_599_6356" x1="37.3131" y1="-2.60593" x2="37.3131" y2="13.2355" gradientUnits="userSpaceOnUse">
<stop stop-color="#488686"/>
<stop offset="1" stop-color="#2B5151"/>
</linearGradient>
<linearGradient id="paint10_linear_599_6356" x1="70.3458" y1="2.67341" x2="70.3458" y2="25.8701" gradientUnits="userSpaceOnUse">
<stop stop-color="#488686"/>
<stop offset="1" stop-color="#2B5151"/>
</linearGradient>
<linearGradient id="paint11_linear_599_6356" x1="12.7934" y1="8.79376" x2="12.7934" y2="37.3665" gradientUnits="userSpaceOnUse">
<stop stop-color="#488686"/>
<stop offset="1" stop-color="#2B5151"/>
</linearGradient>
<linearGradient id="paint12_linear_599_6356" x1="44.3812" y1="4.63801" x2="44.3812" y2="51.6915" gradientUnits="userSpaceOnUse">
<stop stop-color="#488686"/>
<stop offset="1" stop-color="#2B5151"/>
</linearGradient>
<linearGradient id="paint13_linear_599_6356" x1="75.9784" y1="24.2267" x2="75.9784" y2="52.725" gradientUnits="userSpaceOnUse">
<stop stop-color="#488686"/>
<stop offset="1" stop-color="#2B5151"/>
</linearGradient>
<linearGradient id="paint14_linear_599_6356" x1="13.0158" y1="38.9647" x2="13.0158" y2="55.208" gradientUnits="userSpaceOnUse">
<stop stop-color="#488686"/>
<stop offset="1" stop-color="#2B5151"/>
</linearGradient>
<linearGradient id="paint15_linear_599_6356" x1="35.6758" y1="50.2485" x2="35.6758" y2="79.2349" gradientUnits="userSpaceOnUse">
<stop stop-color="#488686"/>
<stop offset="1" stop-color="#2B5151"/>
</linearGradient>
</defs>
</svg>
