<svg width="90" height="82" viewBox="0 0 90 82" fill="none" xmlns="http://www.w3.org/2000/svg">
<path d="M47.6338 13.0278C47.7027 13.1138 47.7304 13.2191 47.7114 13.322C47.6924 13.425 47.6281 13.5178 47.5317 13.5814C37.6505 20.0304 31.3088 28.4754 28.5066 38.9162C28.3932 39.3532 28.552 39.6932 28.9831 39.936C31.9781 41.5968 35.1773 42.4418 35.1433 46.1859C35.1093 49.459 35.0752 52.7078 35.0412 55.9323C35.0422 56.0257 35.0694 56.1178 35.1206 56.2002C35.1717 56.2827 35.2452 56.353 35.3344 56.4048C35.4237 56.4567 35.5259 56.4886 35.6321 56.4977C35.7383 56.5067 35.8451 56.4927 35.9431 56.4567C45.0472 53.2225 62.6599 51.9113 68.5648 60.7108C68.8257 61.0993 69.2228 61.2741 69.756 61.2352C76.2338 60.7885 81.2312 58.4478 84.748 54.2132C94.4818 42.4563 81.1234 21.2736 68.3946 13.8145C68.266 13.7401 68.1593 13.6412 68.0828 13.5255C68.0064 13.4099 67.9623 13.2806 67.9541 13.1479C67.9458 13.0152 67.9736 12.8827 68.0353 12.7607C68.097 12.6388 68.1909 12.5307 68.3096 12.4451C70.5218 10.8717 75.8651 7.34607 75.8481 4.75286C75.8436 3.86921 75.4298 3.02285 74.6968 2.39802C73.9637 1.77319 72.9708 1.42048 71.9342 1.41666C65.5018 1.38752 46.0172 -0.0256307 40.9802 2.52387C40.3469 2.84312 39.8862 3.36335 39.6982 3.97161C39.5103 4.57987 39.6101 5.22706 39.9762 5.77266C42.0352 8.87577 45.3536 10.2744 47.6338 13.0278Z" stroke="url(#paint0_linear_599_6328)" stroke-width="2"/>
<path d="M31.8411 45.501C31.8455 44.3998 30.2972 43.3391 27.5367 42.5522C24.7762 41.7652 21.0297 41.3166 17.1213 41.3049C15.1861 41.2991 13.2693 41.4008 11.4805 41.6041C9.69174 41.8075 8.06597 42.1085 6.69598 42.4899C5.326 42.8714 4.23866 43.3259 3.49604 43.8274C2.75342 44.3289 2.37006 44.8677 2.36787 45.413C2.36339 46.5141 3.91171 47.5749 6.6722 48.3618C9.43268 49.1487 13.1792 49.5973 17.0876 49.609C19.0229 49.6148 20.9396 49.5131 22.7284 49.3098C24.5172 49.1065 26.143 48.8055 27.513 48.424C28.8829 48.0425 29.9703 47.5881 30.7129 47.0865C31.4555 46.585 31.8389 46.0462 31.8411 45.501Z" stroke="url(#paint1_linear_599_6328)" stroke-width="2"/>
<path d="M4.08667 50.4681C2.60051 50.0116 1.91986 50.4535 2.04465 51.7938L2.0957 52.26C2.25453 53.9597 3.26989 55.1058 5.14177 55.6982C13.5369 58.3594 21.8298 58.2283 30.0207 55.3049C31.0871 54.9261 31.6657 54.2462 31.7564 53.2653L31.9777 50.9489C32.0571 50.1524 31.6657 49.8999 30.8035 50.1913C21.9206 53.173 13.015 53.2653 4.08667 50.4681Z" stroke="url(#paint2_linear_599_6328)" stroke-width="2"/>
<path d="M64.7357 61.09C64.7357 59.9657 63.1794 58.8873 60.4094 58.0923C57.6393 57.2972 53.8823 56.8506 49.9649 56.8506C46.0474 56.8506 42.2904 57.2972 39.5203 58.0923C36.7503 58.8873 35.194 59.9657 35.194 61.09C35.194 61.6468 35.5761 62.1981 36.3184 62.7124C37.0607 63.2268 38.1487 63.6941 39.5203 64.0878C40.8919 64.4815 42.5203 64.7937 44.3123 65.0068C46.1044 65.2198 48.0251 65.3295 49.9649 65.3295C51.9046 65.3295 53.8253 65.2198 55.6174 65.0068C57.4095 64.7937 59.0378 64.4815 60.4094 64.0878C61.781 63.6941 62.869 63.2268 63.6113 62.7124C64.3536 62.1981 64.7357 61.6468 64.7357 61.09Z" stroke="url(#paint3_linear_599_6328)" stroke-width="2"/>
<path d="M4.98894 63.5234C13.1004 65.9904 21.2289 65.9807 29.3744 63.4943C30.1091 63.2706 30.7501 62.8648 31.2164 62.3282C31.6828 61.7915 31.9538 61.1479 31.9951 60.4786L32.0461 59.6045C32.1255 58.2447 31.4221 57.8077 29.9359 58.2933C21.2799 61.1002 12.641 61.0662 4.01901 58.1913C2.38537 57.6474 1.69898 58.1136 1.95991 59.5899L2.14712 60.5806C2.26535 61.2454 2.59211 61.8702 3.0926 62.3885C3.59308 62.9068 4.24849 63.299 4.98894 63.5234Z" stroke="url(#paint4_linear_599_6328)" stroke-width="2"/>
<path d="M30.2588 66.0282C21.512 68.8157 12.7653 68.8351 4.0185 66.0865C2.69117 65.6786 2.0672 66.0719 2.14662 67.2666L2.18063 68.097C2.28273 69.7966 3.2754 70.9038 5.15862 71.4186C13.2814 73.6719 21.3759 73.6039 29.442 71.2146C30.7466 70.8261 31.4953 70.0443 31.6882 68.8691L31.9605 67.2083C32.1647 65.9942 31.5975 65.6009 30.2588 66.0282Z" stroke="url(#paint5_linear_599_6328)" stroke-width="2"/>
<path d="M64.8551 68.2445L64.9231 67.3412C65.0252 66.0495 64.3729 65.627 62.9662 66.0738C54.0946 68.8709 45.2628 68.8175 36.4706 65.9135C35.4383 65.5736 34.9505 65.8747 35.0072 66.8168L35.1263 68.9146C35.152 69.3771 35.335 69.8226 35.6527 70.1956C35.9705 70.5687 36.4088 70.8528 36.9131 71.0125C45.2514 73.6834 53.6352 73.7951 62.0643 71.3476C62.8362 71.1224 63.5131 70.7076 64.0097 70.1555C64.5062 69.6033 64.8004 68.9384 64.8551 68.2445Z" stroke="url(#paint6_linear_599_6328)" stroke-width="2"/>
<path d="M34.9729 74.5505L35.126 76.6629C35.161 77.133 35.3527 77.5846 35.6785 77.9642C36.0042 78.3438 36.4503 78.6354 36.9638 78.8045C45.3022 81.6016 53.6746 81.7085 62.081 79.125C63.9416 78.552 64.8662 77.4205 64.8548 75.7305V75.2643C64.8435 74.0114 64.1457 73.5841 62.7617 73.9823C53.8788 76.5755 45.0696 76.4784 36.3342 73.6909C35.3699 73.3898 34.9161 73.6763 34.9729 74.5505Z" stroke="url(#paint7_linear_599_6328)" stroke-width="2"/>
<path d="M2.02771 74.9151L2.24894 76.5905C2.3112 77.0785 2.52798 77.5427 2.87586 77.933C3.22375 78.3232 3.68953 78.6247 4.22293 78.8049C12.4819 81.6312 20.7862 81.7283 29.1359 79.0963C30.7355 78.5912 31.6374 77.6151 31.8416 76.168L31.9607 75.2939C32.1536 73.9439 31.5013 73.4971 30.0038 73.9536C21.2116 76.5856 12.4592 76.5274 3.74645 73.7788C2.45315 73.3708 1.88023 73.7496 2.02771 74.9151Z" stroke="url(#paint8_linear_599_6328)" stroke-width="2"/>
<path d="M53.2156 28.9387C55.7682 25.5005 60.7031 27.3944 63.8853 29.5506C64.8723 30.2207 65.8876 30.2353 66.9313 29.5943C67.4645 29.2738 67.6234 28.8513 67.4078 28.3268C66.3981 25.7919 64.3958 24.0534 61.4008 23.1113C61.1604 23.0322 60.9504 22.8991 60.7942 22.7268C60.638 22.5545 60.5416 22.3497 60.5159 22.1352C60.3003 20.5423 59.3134 19.6634 57.5549 19.4983C57.2521 19.47 56.9469 19.5273 56.6857 19.6615C56.4246 19.7956 56.2218 19.9992 56.1085 20.2413C55.0761 22.4071 53.278 23.9611 50.7141 24.9032C50.3171 25.0445 49.9827 25.295 49.7611 25.6171C44.3327 33.4695 52.5349 36.6309 60.1075 36.5726C60.5982 36.5661 61.0809 36.6792 61.4994 36.8988C61.9178 37.1184 62.2546 37.4353 62.4705 37.8126C62.6864 38.1899 62.7724 38.612 62.7186 39.0296C62.6648 39.4472 62.4733 39.8431 62.1665 40.1711C59.4098 43.143 54.9343 41.1034 51.9223 39.4135C50.6176 38.6754 49.5115 38.6608 48.6039 39.3698C48.1161 39.7486 47.997 40.2002 48.2466 40.7247C49.3697 43.0945 51.3437 44.663 54.1685 45.4303C54.4323 45.5058 54.6684 45.6382 54.8534 45.8145C55.0385 45.9908 55.1661 46.2048 55.2236 46.4355L55.6661 48.3003C55.7247 48.5295 55.8752 48.7343 56.0922 48.8803C56.3092 49.0262 56.5794 49.1044 56.8572 49.1016L58.7461 49.0725C59.5062 49.053 59.9657 48.7228 60.1245 48.0818L60.4989 46.6249C60.5626 46.3951 60.6883 46.1815 60.8657 46.0018C61.0432 45.822 61.2673 45.6811 61.5199 45.5906C68.3097 43.2742 70.0284 36.1793 63.4258 33.2218C61.0094 32.1583 57.7421 32.202 54.9853 31.9981C54.5859 31.969 54.202 31.8522 53.8707 31.659C53.5393 31.4658 53.2718 31.2027 53.0939 30.8952C52.916 30.5876 52.8337 30.246 52.855 29.9033C52.8763 29.5605 53.0005 29.2283 53.2156 28.9387Z" stroke="url(#paint9_linear_599_6328)" stroke-width="2"/>
<path d="M47.6338 13.0278C45.3536 10.2744 42.0352 8.87577 39.9762 5.77266C39.6101 5.22706 39.5103 4.57987 39.6982 3.97161C39.8862 3.36335 40.3469 2.84312 40.9802 2.52387C46.0172 -0.0256307 65.5018 1.38752 71.9342 1.41666C72.9708 1.42048 73.9637 1.77319 74.6968 2.39802C75.4298 3.02285 75.8436 3.86921 75.8481 4.75286C75.8651 7.34607 70.5218 10.8717 68.3096 12.4451C68.1909 12.5307 68.097 12.6388 68.0353 12.7607C67.9736 12.8827 67.9458 13.0152 67.9541 13.1479C67.9623 13.2806 68.0064 13.4099 68.0828 13.5255C68.1593 13.6412 68.266 13.7401 68.3946 13.8145C81.1234 21.2736 94.4818 42.4563 84.748 54.2132C81.2312 58.4478 76.2338 60.7885 69.756 61.2352C69.2228 61.2741 68.8257 61.0993 68.5648 60.7108C62.6599 51.9113 45.0472 53.2225 35.9431 56.4567C35.8451 56.4927 35.7383 56.5067 35.6321 56.4977C35.5259 56.4886 35.4237 56.4567 35.3344 56.4048C35.2452 56.353 35.1717 56.2827 35.1206 56.2002C35.0694 56.1178 35.0422 56.0257 35.0412 55.9323C35.0752 52.7078 35.1093 49.459 35.1433 46.1859C35.1773 42.4418 31.9781 41.5968 28.9831 39.936C28.552 39.6932 28.3932 39.3532 28.5066 38.9162C31.3088 28.4754 37.6505 20.0304 47.5317 13.5814C47.6281 13.5178 47.6924 13.425 47.7114 13.322C47.7304 13.2191 47.7027 13.1138 47.6338 13.0278ZM53.2154 28.9367C55.768 25.4985 60.7029 27.3924 63.8851 29.5486C64.8721 30.2187 65.8875 30.2333 66.9312 29.5923C67.4644 29.2718 67.6232 28.8493 67.4077 28.3248C66.398 25.7899 64.3956 24.0514 61.4006 23.1093C61.1602 23.0302 60.9502 22.8971 60.794 22.7248C60.6378 22.5525 60.5415 22.3477 60.5157 22.1332C60.3002 20.5403 59.3132 19.6614 57.5548 19.4963C57.252 19.468 56.9468 19.5253 56.6856 19.6595C56.4244 19.7936 56.2217 19.9972 56.1083 20.2393C55.0759 22.4051 53.2778 23.9591 50.7139 24.9012C50.317 25.0425 49.9826 25.2931 49.761 25.6151C44.3325 33.4675 52.5347 36.6289 60.1073 36.5706C60.598 36.5641 61.0808 36.6772 61.4992 36.8968C61.9176 37.1164 62.2544 37.4333 62.4703 37.8106C62.6862 38.1879 62.7723 38.61 62.7185 39.0276C62.6646 39.4452 62.4732 39.8411 62.1664 40.1691C59.4096 43.1411 54.9341 41.1015 51.9221 39.4115C50.6175 38.6734 49.5114 38.6588 48.6038 39.3678C48.116 39.7466 47.9969 40.1982 48.2464 40.7227C49.3696 43.0925 51.3436 44.661 54.1684 45.4283C54.4322 45.5038 54.6682 45.6362 54.8533 45.8125C55.0383 45.9888 55.1659 46.2028 55.2234 46.4336L55.6659 48.2983C55.7246 48.5275 55.8751 48.7323 56.0921 48.8783C56.309 49.0242 56.5792 49.1024 56.8571 49.0996L58.746 49.0705C59.5061 49.051 59.9655 48.7208 60.1244 48.0798L60.4987 46.6229C60.5625 46.3931 60.6881 46.1795 60.8656 45.9998C61.043 45.82 61.2672 45.6791 61.5197 45.5886C68.3095 43.2722 70.0283 36.1773 63.4257 33.2199C61.0093 32.1563 57.7419 32.2001 54.9852 31.9961C54.5857 31.967 54.2018 31.8502 53.8705 31.657C53.5392 31.4638 53.2716 31.2007 53.0937 30.8932C52.9158 30.5856 52.8336 30.244 52.8549 29.9013C52.8762 29.5586 53.0004 29.2263 53.2154 28.9367Z" fill="url(#paint10_linear_599_6328)"/>
<path d="M53.215 28.9387C53 29.2283 52.8758 29.5605 52.8545 29.9033C52.8332 30.246 52.9154 30.5876 53.0933 30.8952C53.2712 31.2027 53.5388 31.4658 53.8701 31.659C54.2014 31.8522 54.5853 31.969 54.9848 31.9981C57.7415 32.202 61.0089 32.1583 63.4253 33.2218C70.0279 36.1793 68.3091 43.2742 61.5193 45.5906C61.2668 45.6811 61.0426 45.822 60.8652 46.0018C60.6878 46.1815 60.5621 46.3951 60.4983 46.6249L60.124 48.0818C59.9651 48.7228 59.5057 49.053 58.7456 49.0725L56.8567 49.1016C56.5788 49.1044 56.3086 49.0262 56.0917 48.8803C55.8747 48.7343 55.7242 48.5295 55.6655 48.3003L55.223 46.4355C55.1655 46.2048 55.0379 45.9908 54.8529 45.8145C54.6678 45.6382 54.4318 45.5058 54.168 45.4303C51.3432 44.663 49.3692 43.0945 48.246 40.7247C47.9965 40.2002 48.1156 39.7486 48.6034 39.3698C49.511 38.6608 50.6171 38.6754 51.9217 39.4135C54.9338 41.1034 59.4092 43.143 62.166 40.1711C62.4728 39.8431 62.6643 39.4472 62.7181 39.0296C62.7719 38.612 62.6858 38.1899 62.4699 37.8126C62.254 37.4353 61.9172 37.1184 61.4988 36.8988C61.0804 36.6792 60.5976 36.5661 60.1069 36.5726C52.5343 36.6309 44.3321 33.4695 49.7606 25.6171C49.9822 25.295 50.3166 25.0445 50.7135 24.9032C53.2774 23.9611 55.0755 22.4071 56.1079 20.2413C56.2213 19.9992 56.424 19.7956 56.6852 19.6615C56.9464 19.5273 57.2516 19.47 57.5544 19.4983C59.3128 19.6634 60.2998 20.5423 60.5153 22.1352C60.5411 22.3497 60.6374 22.5545 60.7936 22.7268C60.9498 22.8991 61.1598 23.0322 61.4002 23.1113C64.3952 24.0534 66.3976 25.7919 67.4073 28.3268C67.6228 28.8513 67.464 29.2738 66.9308 29.5943C65.8871 30.2353 64.8717 30.2207 63.8847 29.5506C60.7025 27.3944 55.7676 25.5005 53.215 28.9387Z" fill="white"/>
<path d="M17.0877 49.6108C25.2266 49.6351 31.832 47.7959 31.8413 45.5028C31.8507 43.2097 25.2604 41.3311 17.1216 41.3067C8.98272 41.2824 2.37731 43.1216 2.36796 45.4147C2.35861 47.7078 8.94887 49.5865 17.0877 49.6108Z" fill="url(#paint11_linear_599_6328)"/>
<path d="M4.08667 50.4681C13.0149 53.2653 21.9206 53.173 30.8035 50.1913C31.6657 49.8999 32.0571 50.1524 31.9776 50.9489L31.7564 53.2653C31.6657 54.2462 31.0871 54.9261 30.0207 55.3049C21.8298 58.2283 13.5369 58.3594 5.14177 55.6982C3.26989 55.1058 2.25453 53.9597 2.0957 52.26L2.04465 51.7938C1.91986 50.4535 2.60051 50.0116 4.08667 50.4681Z" fill="url(#paint12_linear_599_6328)"/>
<path d="M49.9649 65.3295C58.1226 65.3295 64.7357 63.4314 64.7357 61.09C64.7357 58.7487 58.1226 56.8506 49.9649 56.8506C41.8072 56.8506 35.194 58.7487 35.194 61.09C35.194 63.4314 41.8072 65.3295 49.9649 65.3295Z" fill="url(#paint13_linear_599_6328)"/>
<path d="M4.98894 63.5234C4.24849 63.299 3.59308 62.9068 3.0926 62.3885C2.59211 61.8702 2.26535 61.2454 2.14712 60.5806L1.95991 59.5899C1.69898 58.1136 2.38537 57.6474 4.01901 58.1913C12.641 61.0662 21.2799 61.1002 29.9359 58.2933C31.4221 57.8077 32.1255 58.2447 32.0461 59.6045L31.9951 60.4786C31.9538 61.1479 31.6828 61.7915 31.2164 62.3282C30.7501 62.8648 30.1091 63.2706 29.3744 63.4943C21.2289 65.9807 13.1004 65.9904 4.98894 63.5234Z" fill="url(#paint14_linear_599_6328)"/>
<path d="M30.2588 66.0282C31.5975 65.6009 32.1647 65.9942 31.9605 67.2083L31.6882 68.8691C31.4953 70.0443 30.7466 70.8261 29.442 71.2146C21.3759 73.6039 13.2814 73.6719 5.15862 71.4186C3.2754 70.9038 2.28273 69.7966 2.18063 68.097L2.14662 67.2666C2.0672 66.0719 2.69117 65.6786 4.0185 66.0865C12.7653 68.8351 21.512 68.8157 30.2588 66.0282Z" fill="url(#paint15_linear_599_6328)"/>
<path d="M62.0643 71.3476C53.6352 73.7951 45.2514 73.6834 36.9131 71.0125C36.4088 70.8528 35.9705 70.5687 35.6527 70.1956C35.335 69.8226 35.152 69.3771 35.1263 68.9146L35.0072 66.8168C34.9505 65.8747 35.4383 65.5736 36.4706 65.9135C45.2628 68.8175 54.0946 68.8709 62.9662 66.0738C64.3729 65.627 65.0252 66.0495 64.9231 67.3412L64.8551 68.2445C64.8004 68.9384 64.5062 69.6033 64.0097 70.1555C63.5131 70.7076 62.8362 71.1224 62.0643 71.3476Z" fill="url(#paint16_linear_599_6328)"/>
<path d="M36.3342 73.6909C45.0696 76.4784 53.8788 76.5755 62.7617 73.9823C64.1457 73.5841 64.8435 74.0114 64.8548 75.2643V75.7305C64.8662 77.4205 63.9416 78.552 62.081 79.125C53.6746 81.7085 45.3022 81.6016 36.9638 78.8045C36.4503 78.6354 36.0042 78.3438 35.6785 77.9642C35.3527 77.5846 35.161 77.133 35.126 76.6629L34.9729 74.5505C34.9161 73.6763 35.3699 73.3898 36.3342 73.6909Z" fill="url(#paint17_linear_599_6328)"/>
<path d="M3.74645 73.7788C12.4592 76.5274 21.2116 76.5856 30.0038 73.9536C31.5013 73.4971 32.1536 73.9439 31.9607 75.2939L31.8416 76.168C31.6374 77.6151 30.7355 78.5912 29.1359 79.0963C20.7862 81.7283 12.4819 81.6312 4.22293 78.8049C3.68953 78.6247 3.22375 78.3232 2.87586 77.933C2.52798 77.5427 2.3112 77.0785 2.24894 76.5905L2.02771 74.9151C1.88023 73.7496 2.45315 73.3708 3.74645 73.7788Z" fill="url(#paint18_linear_599_6328)"/>
<defs>
<linearGradient id="paint0_linear_599_6328" x1="58.369" y1="-15.4503" x2="58.369" y2="56.8383" gradientUnits="userSpaceOnUse">
<stop stop-color="#488686"/>
<stop offset="1" stop-color="#2B5151"/>
</linearGradient>
<linearGradient id="paint1_linear_599_6328" x1="17.1472" y1="39.0369" x2="17.1472" y2="49.0024" gradientUnits="userSpaceOnUse">
<stop stop-color="#488686"/>
<stop offset="1" stop-color="#2B5151"/>
</linearGradient>
<linearGradient id="paint2_linear_599_6328" x1="17.0523" y1="48.019" x2="17.0523" y2="57.0504" gradientUnits="userSpaceOnUse">
<stop stop-color="#488686"/>
<stop offset="1" stop-color="#2B5151"/>
</linearGradient>
<linearGradient id="paint3_linear_599_6328" x1="50.0077" y1="54.5352" x2="50.0077" y2="64.7099" gradientUnits="userSpaceOnUse">
<stop stop-color="#488686"/>
<stop offset="1" stop-color="#2B5151"/>
</linearGradient>
<linearGradient id="paint4_linear_599_6328" x1="17.0228" y1="55.9524" x2="17.0228" y2="64.826" gradientUnits="userSpaceOnUse">
<stop stop-color="#488686"/>
<stop offset="1" stop-color="#2B5151"/>
</linearGradient>
<linearGradient id="paint5_linear_599_6328" x1="17.1137" y1="63.8958" x2="17.1137" y2="72.5331" gradientUnits="userSpaceOnUse">
<stop stop-color="#488686"/>
<stop offset="1" stop-color="#2B5151"/>
</linearGradient>
<linearGradient id="paint6_linear_599_6328" x1="50.0115" y1="63.7781" x2="50.0115" y2="72.5678" gradientUnits="userSpaceOnUse">
<stop stop-color="#488686"/>
<stop offset="1" stop-color="#2B5151"/>
</linearGradient>
<linearGradient id="paint7_linear_599_6328" x1="49.9548" y1="71.5516" x2="49.9548" y2="80.4441" gradientUnits="userSpaceOnUse">
<stop stop-color="#488686"/>
<stop offset="1" stop-color="#2B5151"/>
</linearGradient>
<linearGradient id="paint8_linear_599_6328" x1="17.0429" y1="71.6048" x2="17.0429" y2="80.4608" gradientUnits="userSpaceOnUse">
<stop stop-color="#488686"/>
<stop offset="1" stop-color="#2B5151"/>
</linearGradient>
<linearGradient id="paint9_linear_599_6328" x1="57.8237" y1="11.4053" x2="57.8237" y2="46.9378" gradientUnits="userSpaceOnUse">
<stop stop-color="#488686"/>
<stop offset="1" stop-color="#2B5151"/>
</linearGradient>
<linearGradient id="paint10_linear_599_6328" x1="58.369" y1="-15.4503" x2="58.369" y2="56.8383" gradientUnits="userSpaceOnUse">
<stop stop-color="#488686"/>
<stop offset="1" stop-color="#2B5151"/>
</linearGradient>
<linearGradient id="paint11_linear_599_6328" x1="17.1735" y1="39.0392" x2="17.1438" y2="49.0041" gradientUnits="userSpaceOnUse">
<stop stop-color="#488686"/>
<stop offset="1" stop-color="#2B5151"/>
</linearGradient>
<linearGradient id="paint12_linear_599_6328" x1="17.0523" y1="48.019" x2="17.0523" y2="57.0504" gradientUnits="userSpaceOnUse">
<stop stop-color="#488686"/>
<stop offset="1" stop-color="#2B5151"/>
</linearGradient>
<linearGradient id="paint13_linear_599_6328" x1="50.0077" y1="54.5352" x2="50.0077" y2="64.7099" gradientUnits="userSpaceOnUse">
<stop stop-color="#488686"/>
<stop offset="1" stop-color="#2B5151"/>
</linearGradient>
<linearGradient id="paint14_linear_599_6328" x1="17.0228" y1="55.9524" x2="17.0228" y2="64.826" gradientUnits="userSpaceOnUse">
<stop stop-color="#488686"/>
<stop offset="1" stop-color="#2B5151"/>
</linearGradient>
<linearGradient id="paint15_linear_599_6328" x1="17.1137" y1="63.8958" x2="17.1137" y2="72.5331" gradientUnits="userSpaceOnUse">
<stop stop-color="#488686"/>
<stop offset="1" stop-color="#2B5151"/>
</linearGradient>
<linearGradient id="paint16_linear_599_6328" x1="50.0115" y1="63.7781" x2="50.0115" y2="72.5678" gradientUnits="userSpaceOnUse">
<stop stop-color="#488686"/>
<stop offset="1" stop-color="#2B5151"/>
</linearGradient>
<linearGradient id="paint17_linear_599_6328" x1="49.9548" y1="71.5516" x2="49.9548" y2="80.4441" gradientUnits="userSpaceOnUse">
<stop stop-color="#488686"/>
<stop offset="1" stop-color="#2B5151"/>
</linearGradient>
<linearGradient id="paint18_linear_599_6328" x1="17.0429" y1="71.6048" x2="17.0429" y2="80.4608" gradientUnits="userSpaceOnUse">
<stop stop-color="#488686"/>
<stop offset="1" stop-color="#2B5151"/>
</linearGradient>
</defs>
</svg>
