<svg width="468" height="297" viewBox="0 0 468 297" fill="none" xmlns="http://www.w3.org/2000/svg">
<path d="M451.917 0H16.0829C7.20098 0 0 6.00152 0 13.4057V283.519C0 290.923 7.20098 296.925 16.0829 296.925H451.916C460.799 296.925 467.999 290.923 467.999 283.519V13.4057C468 6.00152 460.799 0 451.917 0Z" fill="#7CC84E"/>
<path d="M467.999 283.517V13.4084C467.999 5.99891 460.795 0.00195312 451.915 0.00195312H426.02C434.9 0.00195312 442.103 5.99891 442.103 13.4084V283.516C442.103 290.925 434.9 296.922 426.02 296.922H451.915C460.795 296.922 467.999 290.926 467.999 283.517Z" fill="#7CC84E"/>
<path d="M468 58.0538V13.4084C468 5.99891 460.796 0.00195312 451.916 0.00195312H16.0838C7.20373 0.00271503 0 5.99967 0 13.4084V58.0538H468Z" fill="#E3F4FF"/>
<path d="M467.999 58.0538V13.4084C467.999 5.99891 460.795 0.00195312 451.915 0.00195312H426.02C434.9 0.00195312 442.103 5.99891 442.103 13.4084V58.0538H467.999Z" fill="#D6EEC8"/>
</svg>
