<svg width="147" height="147" viewBox="0 0 147 147" fill="none" xmlns="http://www.w3.org/2000/svg">
<path d="M89.3437 97.5917C67.4978 104.778 50.552 81.9526 50.552 81.9526C50.552 81.9526 43.937 74.3984 42.6303 65.8642C41.3237 57.2892 43.2428 48.7142 50.8787 42.5076L51.6953 43.6101L53.2062 45.6926C53.2062 45.6926 45.162 53.9817 48.7553 66.6809C52.3487 79.3801 65.1703 90.1192 75.0928 92.1609C84.6478 94.1209 94.407 91.6301 97.1428 81.0951C97.2653 80.6867 97.347 80.2376 97.4287 79.7884C97.6328 78.7267 97.7553 77.6242 97.7962 76.5217C98.2045 65.8234 91.3037 55.0434 88.5678 52.9201C88.5678 52.9201 89.0987 52.7159 89.8337 52.5117C90.2828 52.3892 90.7728 52.2667 91.2628 52.1442C91.8345 52.0217 92.3653 51.9809 92.8145 52.0626C92.8145 52.0626 94.407 53.5734 96.4078 56.7584L96.0403 57.6567C95.9178 57.9017 95.877 58.1467 95.8362 58.4326C95.6728 59.5351 96.122 60.6376 97.0203 61.2909L97.102 61.3726C97.1837 61.4542 97.2653 61.4951 97.347 61.5359C97.837 61.8217 98.3678 61.9851 98.9395 61.9851C99.5112 61.9851 99.062 61.9851 99.1437 61.9851C99.7153 63.2917 100.287 64.7209 100.818 66.3134C104.125 76.1951 103.921 92.7734 89.262 97.5509L89.3437 97.5917Z" fill="#19252F"/>
<path d="M50.592 81.9525L48.5503 83.3C48.5503 83.3 47.5295 81.9525 46.0595 82.8916L29.522 94.6924C28.6236 95.3458 28.4603 96.6525 29.1953 97.51L33.7686 102.818C34.667 103.839 36.1778 104.002 37.2803 103.227L52.7561 91.9566C53.4911 91.4258 53.6545 90.3641 53.1236 89.6291L52.9603 89.3841L55.6145 87.3016L50.592 81.9116V81.9525Z" fill="#19252F"/>
<path d="M89.7919 47.7751C89.7919 47.7751 88.9752 47.7751 87.9136 47.7751C87.2602 47.7751 86.5252 47.7751 85.8719 47.7751C85.1369 47.7751 84.4836 47.8567 84.0344 47.9792C84.0344 47.9792 77.8686 43.6917 76.8886 43.1609C76.8886 43.1609 76.8886 42.7117 76.7661 42.0584C76.6844 41.6092 76.5619 41.0376 76.3577 40.4659C76.2352 40.1801 76.1536 39.8534 75.9902 39.6084C75.9902 39.6084 82.8911 41.8951 89.7919 47.8159V47.7751Z" fill="#253D45"/>
<path d="M57.9414 39.69C58.1047 39.5675 59.0031 38.9142 62.5964 37.8525C62.5964 37.8525 62.6372 37.8525 62.6372 37.8934C62.5147 38.4242 61.7389 42.4667 61.2897 42.6709C61.2897 42.6709 59.3297 41.7317 57.9414 39.7717C57.9414 39.7717 57.9414 39.7717 57.9414 39.7309V39.69Z" fill="#253D45"/>
<path d="M97.4678 50.2249L97.3453 50.4291L97.0186 50.9599C81.0528 51.3274 79.1336 57.7383 78.6844 59.5349C78.6436 59.7391 78.5619 59.9841 78.5211 60.2699C78.4803 60.5966 78.3986 60.9233 78.3578 61.3316C78.0719 63.6591 78.1128 67.5383 79.7461 73.1733C79.8278 73.4591 79.9094 73.7449 79.9911 74.0308C80.0319 74.1941 80.1136 74.3574 80.1544 74.5616C82.4411 81.3399 86.1161 86.3624 87.4636 87.9549C88.0761 88.6899 88.4844 89.1799 88.6886 89.5066C88.8928 89.7924 88.8111 90.1599 88.5253 90.3233C87.8311 90.7316 87.0961 91.0583 86.4836 91.2216C86.0344 91.3849 85.6261 91.4666 85.2994 91.5074C85.0953 91.5074 84.9319 91.5483 84.8094 91.5891C84.6869 91.5891 84.5644 91.5891 84.4419 91.4666C81.6653 88.8124 75.1319 79.9516 75.1319 79.9516C75.1319 80.2783 75.1319 80.7274 75.2136 81.2991C75.2953 82.1566 75.4178 83.2591 75.5811 84.4024C75.9078 86.8933 76.3569 89.6699 76.5203 90.7316C76.5203 90.7724 76.5203 90.8133 76.5203 90.8541C76.5203 91.0174 76.3978 91.1808 76.1936 91.1399C74.6828 90.8133 73.3353 90.4049 72.2328 89.9558C70.8853 89.4249 69.9461 88.9349 69.4153 88.6491C69.1294 88.4858 68.9253 88.1999 68.8436 87.8733C68.5578 86.6074 68.2311 85.1374 67.8228 83.5041C67.5369 82.4016 67.2511 81.2174 66.8836 79.9516C65.3319 74.2758 63.1678 66.8849 60.2278 57.4524C56.3486 44.9983 47.0386 34.9533 43.9761 31.9316C43.4044 31.3599 43.0369 31.0333 42.9961 30.9924C53.8986 35.6066 58.4311 42.9974 62.4328 46.9174C65.1686 49.6124 66.8428 50.6333 67.6186 51.0008C67.8636 51.1233 68.1494 51.1641 68.4353 51.1233C68.8436 51.0824 69.6194 51.0824 70.3953 51.6949C70.5178 51.7766 70.6403 51.8583 70.7628 51.9399C71.7019 52.4708 72.3961 51.9399 72.3961 51.9399C74.1519 51.0824 78.6028 49.6124 83.0128 48.9591C84.1561 48.7958 85.3403 48.6733 86.4019 48.6324C91.6694 48.4691 97.3453 50.1841 97.3453 50.1841L97.4678 50.2249Z" fill="#74B804"/>
<path d="M98.4888 50.6742C98.4888 50.6742 97.9172 50.7559 97.0188 50.9601C97.0188 50.9601 97.0188 50.9601 96.978 50.9601C81.0122 51.3276 79.093 57.7384 78.6438 59.5351C78.603 59.7392 78.5213 59.9842 78.4805 60.2701C78.4805 60.3517 78.4805 60.3926 78.4805 60.4742C78.4397 60.7192 78.3988 61.0051 78.358 61.3317C78.0722 63.6592 78.0722 67.5384 79.7463 73.1734C79.8688 73.6226 80.0322 74.1126 80.1955 74.5617C79.583 73.6226 78.358 71.4176 77.2147 67.4976C76.4797 65.0067 76.2755 62.5159 76.5205 60.3109C76.5205 60.0251 76.6022 59.6984 76.643 59.4126C77.0922 57.0442 78.1947 55.0842 79.9505 53.9409C83.2988 51.7767 90.6897 49.2042 97.3863 50.4292C97.7538 50.5109 98.1622 50.5926 98.5297 50.6742H98.4888Z" fill="#2E730C"/>
<path d="M41.4453 29.89C46.427 32.7891 50.3061 37.1583 53.8586 41.6091C54.757 42.7116 55.492 43.9775 56.3495 45.1208C58.8811 48.5508 61.9436 51.6133 65.537 53.9408C64.312 53.2466 63.1278 52.43 61.9845 51.5316C59.7386 49.735 57.7786 47.6525 56.0228 45.325C55.1653 44.1816 54.4303 42.9566 53.532 41.8541C50.0203 37.3625 46.2228 33.0341 41.4453 29.8491V29.89Z" fill="#12610E"/>
<path d="M76.6027 59.4126C77.2969 59.8617 77.9094 60.2292 78.4402 60.4742C78.3994 60.7192 78.3585 61.0051 78.3177 61.3317C77.746 61.0459 77.0927 60.6784 76.4802 60.2701C73.7852 58.4734 71.0902 55.9009 71.0902 55.9009L74.3569 66.5584L71.5802 69.7842L69.416 53.9409L70.2735 52.4709C70.4369 52.2667 70.641 52.1034 70.8452 51.9401C71.7843 52.4709 72.4785 51.9401 72.4785 51.9401C74.2343 51.0826 78.6852 49.6126 83.0952 48.9592C73.9077 51.6951 70.8452 55.0842 70.8452 55.0842C73.0093 57.0034 75.0102 58.4326 76.6027 59.4126Z" fill="#A6DD09"/>
<path d="M68.9254 54.5532H70.0279L73.8254 66.4766L71.5387 69.4574L68.3945 66.5582L68.9254 54.5532Z" fill="#106315"/>
<path d="M75.1333 46.3866C74.5617 48.5916 72.9283 50.0207 69.4167 49.5307C64.4758 48.7957 62.8833 43.3241 63.6592 39.6082C64.435 35.8516 68.6408 35.9332 68.6408 35.9332C69.3758 35.9741 70.07 36.1374 70.6825 36.3824C73.6225 37.4849 75.1333 40.4249 75.3375 43.4466C75.4192 44.5082 75.3375 45.5291 75.1333 46.4274V46.3866Z" fill="url(#paint0_linear_849_10253)"/>
<path d="M83.1361 96.0807C73.4586 97.0199 63.9444 92.2015 55.0836 83.5857C46.2636 74.9699 44.0177 63.6999 45.3652 55.329C46.4269 48.714 50.2244 44.8757 51.7352 43.6099L53.2461 45.6924C53.2461 45.6924 45.2019 53.9815 48.7952 66.6807C52.3886 79.3799 65.2102 90.119 75.1327 92.1607C84.6877 94.1207 94.4469 91.6299 97.1827 81.0949C97.3052 80.6865 97.3869 80.2374 97.4686 79.7882C97.6727 78.7265 97.7952 77.624 97.8361 76.5215C98.3261 73.4182 98.6119 69.3349 96.7744 64.639C94.2019 57.9832 91.4661 54.2674 89.8327 52.5115C90.2819 52.389 90.7719 52.2665 91.2619 52.144C92.8952 54.0632 94.4469 56.064 95.8352 58.4324C95.6719 59.5349 96.1211 60.6374 97.0194 61.2907L97.1011 61.3724C97.1827 61.454 97.2644 61.4949 97.3461 61.5357C98.8569 65.0882 99.9186 69.4165 100.164 75.0924C100.735 88.0365 92.6911 95.1007 83.0136 96.0399L83.1361 96.0807Z" fill="url(#paint1_linear_849_10253)"/>
<path d="M52.1851 90.1192L37.6893 100.981C36.8318 101.634 35.566 101.512 34.8718 100.654L31.0743 96.2442C30.7885 95.8767 30.8293 95.3459 31.1968 95.0601L32.136 94.3659L46.101 84.0759C46.7543 83.5859 47.6526 83.7084 48.1835 84.2801C48.2243 84.3617 48.306 84.4026 48.3468 84.4842C49.6126 85.9134 51.6135 88.2001 52.3076 89.4659C52.4301 89.6701 52.3893 89.9559 52.1851 90.0784V90.1192Z" fill="#44525D"/>
<path d="M51.4908 82.9324L49.5308 84.239C49.4083 84.3615 49.3675 84.5657 49.49 84.6882L51.7766 87.5057C51.8991 87.6282 52.0625 87.669 52.2258 87.5465L54.2266 85.9949L51.5316 82.9324H51.4908Z" fill="#4E5F67"/>
<path d="M87.9543 47.7342C87.3009 47.7342 86.5659 47.7342 85.9126 47.7342C84.3201 46.55 80.4818 43.8142 76.8068 42.0175C76.7251 41.5684 76.6026 40.9967 76.3984 40.425C78.6034 41.5684 84.1159 44.4675 87.9543 47.6934V47.7342Z" fill="#637074"/>
<path d="M69.4158 54.2266C70.4081 54.2266 71.2125 53.5319 71.2125 52.675C71.2125 51.818 70.4081 51.1233 69.4158 51.1233C68.4235 51.1233 67.6191 51.818 67.6191 52.675C67.6191 53.5319 68.4235 54.2266 69.4158 54.2266Z" fill="#106315"/>
<path d="M75.1326 46.3866C71.6618 48.7141 66.3126 42.7933 66.2718 39.4041C66.231 35.8925 70.1918 36.26 70.6818 36.3416C73.6218 37.4441 75.1326 40.3841 75.3368 43.4058C75.4185 44.4675 75.3368 45.4883 75.1326 46.3866Z" fill="url(#paint2_linear_849_10253)"/>
<path d="M96.6515 52.9201C96.529 52.7568 96.4882 52.5118 96.5698 52.3076C96.9373 51.3684 98.0807 48.4692 98.979 47.7342C98.979 47.7342 99.3057 47.4892 99.714 47.6526C100.122 47.8159 100.367 48.3467 100.204 48.7959C99.7957 49.8576 98.8973 52.2667 98.3665 53.3692C97.8357 54.4717 97.8765 53.7776 97.5907 53.6551C97.3048 53.5326 96.9782 53.3284 96.6515 52.9201Z" fill="#1C312C"/>
<path d="M97.5906 58.31L102.695 46.0192C102.94 45.4475 103.634 45.1617 104.206 45.4067H104.287C105.145 45.815 105.757 46.5909 105.921 47.4892L107.064 54.3492C107.227 55.3292 106.778 56.3092 105.88 56.7584L99.7139 60.1475C99.2239 60.4334 98.6114 60.3925 98.1622 60.025L98.0805 59.9434C97.5497 59.535 97.3456 58.8409 97.6314 58.2284L97.5906 58.31Z" fill="url(#paint3_linear_849_10253)"/>
<path d="M98.5293 58.4733L103.429 46.7542C103.429 46.7133 103.511 46.6725 103.552 46.6725L104.573 46.5908C104.654 46.5908 104.736 46.6725 104.695 46.7542L102.858 52.1033C102.817 52.2258 102.858 52.3892 103.021 52.4708L106.778 54.3083C106.778 54.3083 107.104 55.2883 99.4685 59.2492C99.3051 59.3308 99.1418 59.3308 98.9785 59.2492C98.8151 59.1675 98.7743 59.1267 98.6926 59.045C98.5293 58.9225 98.4885 58.6775 98.5701 58.5142L98.5293 58.4733Z" fill="#5FAF2D"/>
<path d="M116.865 51.9401L111.597 65.1701C111.434 65.6193 110.903 65.8234 110.495 65.5784L102.124 61.1276C101.92 61.0051 101.92 60.7601 102.124 60.6376L102.532 60.3926L107.595 57.3301C108.412 56.8401 108.902 55.8601 108.698 54.8801C108.698 54.7984 108.698 54.7168 108.657 54.6759C108.371 53.7368 107.636 50.2659 107.269 48.3059C107.228 48.0609 107.187 47.8159 107.146 47.6118C107.105 47.3259 107.391 47.1218 107.636 47.2443L109.841 48.2243L116.17 51.0826L116.742 51.3276C116.987 51.4501 117.069 51.6951 116.987 51.9401H116.865Z" fill="#0F7B22"/>
<path d="M88.5254 90.2825C87.8312 90.6908 87.0962 91.0175 86.4837 91.1808C86.0345 91.3442 85.6262 91.4258 85.2995 91.4667L83.3395 88.0367C83.1762 84.4433 81.992 81.83 80.767 79.0125C79.787 76.8483 79.9095 74.7658 79.9912 73.99C80.032 74.1533 80.1137 74.3167 80.1545 74.5208C82.4412 81.2992 86.1162 86.3217 87.4637 87.9142C88.0762 88.6492 88.4845 89.1392 88.6887 89.425C88.8928 89.7108 88.8112 90.0783 88.5254 90.2417V90.2825Z" fill="#2E730C"/>
<path d="M86.4841 91.1807C85.7491 91.4257 85.1366 91.5074 84.8099 91.5482C84.6874 91.5482 84.5241 91.5482 84.4424 91.4257C81.6657 88.7716 75.1324 79.8699 75.1324 79.8699C74.7241 79.0941 74.6016 78.8491 74.6016 78.8491L75.9899 78.2366C75.9899 78.2366 77.8274 82.5649 86.4432 91.1807H86.4841Z" fill="url(#paint4_linear_849_10253)"/>
<path d="M79.9102 75.1333C79.9102 75.1333 77.9094 78.6858 72.5194 80.36C72.5194 80.36 71.4986 80.6866 70.0286 80.6458C69.1302 80.6458 68.0277 80.4416 66.9661 79.9925C66.9252 79.7883 66.8436 79.5841 66.8027 79.38C67.7827 79.7066 68.9669 79.9925 69.9061 79.9925H69.9877C71.9477 79.9516 74.4386 79.0941 79.8694 75.1333H79.9102Z" fill="#A6DD09"/>
<path d="M116.701 51.4091C116.701 51.4091 118.947 53.8591 107.187 48.2649C107.146 48.0199 107.105 47.7749 107.064 47.5708C107.024 47.2849 107.309 47.0808 107.554 47.2033L109.759 48.1833L116.742 51.3683L116.701 51.4091Z" fill="#5FAF2D"/>
<path d="M116.865 51.94L111.597 65.17C111.434 65.6191 110.903 65.8233 110.495 65.5783L102.124 61.1275C101.92 61.005 101.92 60.76 102.124 60.6375L102.532 60.3925C105.186 61.5766 110.413 63.945 110.413 63.945L116.089 51.1233L116.66 51.3683C116.905 51.4908 116.987 51.7358 116.905 51.9808L116.865 51.94Z" fill="#1C312C"/>
<path d="M48.3454 84.525L32.0938 94.4067L46.0588 84.1167C46.7121 83.6267 47.6104 83.7492 48.1413 84.3208C48.1821 84.4025 48.2638 84.4433 48.3046 84.525H48.3454Z" fill="url(#paint5_linear_849_10253)"/>
<path d="M76.5625 90.7726C76.5625 90.936 76.4399 91.0993 76.2358 91.0584C74.7249 90.7318 73.3775 90.3235 72.275 89.8743C70.9275 89.3435 69.9883 88.8534 69.4575 88.5676C69.1716 88.4043 68.9674 88.1184 68.8858 87.7918C68.5999 86.5259 68.2733 85.0559 67.8649 83.4226C67.5791 82.3201 67.2933 81.136 66.9258 79.8701C69.0491 80.3601 72.9283 81.2176 75.1741 81.2176C75.2558 82.0751 75.3783 83.1776 75.5416 84.3209C75.8683 86.8118 76.3175 89.5884 76.4808 90.6501C76.4808 90.6909 76.4808 90.7318 76.4808 90.7726H76.5625Z" fill="url(#paint6_linear_849_10253)"/>
<path d="M72.3151 89.915C70.9676 89.3841 70.0284 88.8941 69.4976 88.5675C69.2117 88.4041 69.0076 88.1183 68.9259 87.7916C68.4767 85.6683 67.8234 83.055 66.9659 79.9516C66.9251 79.7475 66.8434 79.5433 66.8026 79.3391C65.4551 74.3983 63.6176 68.2325 61.2901 60.6375C61.2084 60.3925 61.1267 60.1475 61.0451 59.9025C60.8001 59.0858 60.5551 58.2691 60.2692 57.4525C56.3901 44.9983 47.0801 34.9533 44.0176 31.9316L45.2017 32.7075C45.2017 32.7075 51.4492 37.8933 55.6959 44.6716C55.6959 44.6716 60.0242 50.5108 63.1684 58.1058C63.2501 58.2691 63.2909 58.3916 63.3726 58.555C63.9442 60.025 64.4751 61.5358 64.9242 63.0466C67.4559 71.6625 68.9259 75.4191 69.8651 79.9925C69.9059 80.1966 69.9467 80.4416 69.9876 80.6458C70.0692 81.0541 70.1509 81.5033 70.2326 81.9525C70.8859 85.8316 71.7842 88.6083 72.2742 89.915H72.3151Z" fill="#1F6716"/>
<path d="M67.9049 56.3091C66.1083 56.6357 64.5566 57.5341 63.3724 58.5141C62.4333 59.2491 61.7391 60.0657 61.2899 60.6374C61.2083 60.3924 61.1266 60.1474 61.0449 59.9024C61.8208 59.1674 62.5558 58.5549 63.2091 58.1057C66.3124 55.8599 67.9049 56.3499 67.9049 56.3499V56.3091Z" fill="#A6DD09"/>
<path d="M34.2598 105.432H36.8731V110.25H42.0998V105.432H44.7131V116.987H42.0998V112.414H36.8731V116.987H34.2598V105.432Z" fill="url(#paint7_linear_849_10253)"/>
<path d="M47.8156 104.574C48.0606 104.819 48.2239 105.187 48.2239 105.595C48.2239 106.003 48.1014 106.371 47.8156 106.616C47.5706 106.861 47.2031 107.024 46.8356 107.024C46.4681 107.024 46.1006 106.902 45.8556 106.616C45.6106 106.33 45.4473 106.003 45.4473 105.595C45.4473 105.187 45.5698 104.819 45.8556 104.574C46.1006 104.329 46.4273 104.166 46.8356 104.166C47.2439 104.166 47.5706 104.288 47.8156 104.574ZM45.5289 108.127H48.0606V117.028H45.5289V108.127Z" fill="url(#paint8_linear_849_10253)"/>
<path d="M53.6141 108.453C54.1041 108.167 54.6758 108.004 55.3699 108.004V110.413C55.2883 110.413 55.1658 110.413 54.9616 110.413C54.1858 110.413 53.5733 110.617 53.0833 111.067C52.6341 111.475 52.3891 112.047 52.3891 112.741V117.028H49.8574V108.127H52.3891V109.719C52.7158 109.188 53.0833 108.739 53.6141 108.453Z" fill="url(#paint9_linear_849_10253)"/>
<path d="M63.1701 109.27C63.9051 110.087 64.2726 111.23 64.2726 112.741C64.2726 114.252 64.2726 113.19 64.2726 113.353H57.9026C58.0659 113.925 58.3109 114.333 58.7192 114.66C59.1276 114.987 59.6176 115.15 60.1892 115.15C60.7609 115.15 61.0059 115.068 61.4142 114.905C61.8226 114.742 62.1492 114.497 62.4351 114.211L63.7826 115.558C63.3334 116.048 62.8026 116.457 62.1492 116.742C61.4959 117.028 60.8017 117.151 59.9851 117.151C59.1684 117.151 58.2292 116.947 57.5351 116.579C56.8409 116.212 56.3101 115.681 55.9017 114.987C55.5342 114.292 55.3301 113.517 55.3301 112.618C55.3301 111.72 55.5342 110.903 55.9017 110.25C56.2692 109.556 56.8409 109.025 57.5351 108.657C58.2292 108.29 59.0051 108.086 59.9034 108.086C61.3326 108.086 62.4351 108.494 63.1701 109.311V109.27ZM61.9042 111.842C61.9042 111.271 61.7001 110.781 61.3326 110.454C60.9651 110.087 60.5159 109.923 59.9442 109.923C59.3726 109.923 58.9234 110.087 58.5559 110.454C58.1884 110.781 57.9434 111.271 57.8617 111.883H61.9042V111.842Z" fill="url(#paint10_linear_849_10253)"/>
<path d="M65.334 105.432H67.9473V110.25H73.174V105.432H75.7873V116.987H73.174V112.414H67.9473V116.987H65.334V105.432Z" fill="url(#paint11_linear_849_10253)"/>
<path d="M85.4241 108.127V117.028H82.8924V115.477C82.2799 116.579 81.2999 117.151 79.9116 117.151C78.5232 117.151 78.1557 116.865 77.5841 116.253C77.0124 115.64 76.7266 114.823 76.7266 113.762V108.168H79.2582V113.027C79.2582 113.598 79.4216 114.048 79.7074 114.333C79.9932 114.619 80.4016 114.823 80.9324 114.823C81.5449 114.823 82.0349 114.578 82.3616 114.17C82.7291 113.762 82.8924 113.231 82.8924 112.537V108.127H85.4241Z" fill="url(#paint12_linear_849_10253)"/>
<path d="M94.2028 108.617C94.8561 108.984 95.3461 109.515 95.6728 110.209C95.9995 110.903 96.2036 111.72 96.2036 112.618C96.2036 113.517 96.0403 114.292 95.6728 114.987C95.3461 115.681 94.8561 116.171 94.2436 116.579C93.6311 116.987 92.8961 117.151 92.0795 117.151C91.2628 117.151 90.8953 117.028 90.4461 116.783C89.9561 116.538 89.5478 116.212 89.2211 115.762V117.069H86.6895V104.819H89.2211V109.515C89.5478 109.066 89.9561 108.739 90.4053 108.494C90.8953 108.249 91.4261 108.127 91.9978 108.127C92.5695 108.127 93.5495 108.331 94.2028 108.698V108.617ZM92.9778 114.292C93.3861 113.843 93.5903 113.231 93.5903 112.496C93.5903 111.761 93.3861 111.189 92.9778 110.74C92.5695 110.291 92.0386 110.046 91.3853 110.046C90.732 110.046 90.2011 110.291 89.7928 110.74C89.3844 111.189 89.1803 111.802 89.1803 112.496C89.1803 113.19 89.3844 113.843 89.7928 114.292C90.2011 114.742 90.732 114.987 91.3853 114.987C92.0386 114.987 92.5695 114.742 92.9778 114.292Z" fill="url(#paint13_linear_849_10253)"/>
<path d="M102.124 104.738V113.231C102.124 113.721 102.001 114.088 101.756 114.374C101.511 114.66 101.185 114.783 100.736 114.783C100.286 114.783 99.9597 114.66 99.5514 114.456C99.1022 114.252 98.6939 113.925 98.2855 113.517L97.0605 115.354C98.0814 116.538 99.3472 117.151 100.858 117.151C102.369 117.151 103.022 116.824 103.716 116.13C104.411 115.477 104.737 114.538 104.737 113.313V104.738H102.124Z" fill="url(#paint14_linear_849_10253)"/>
<path d="M115.273 110.658L113.068 105.146H109.76L109.025 106.983L105.84 114.905L105.35 116.13L105.105 116.742H108.576L109.515 114.987L111.598 113.884L113.231 114.823L114.007 116.702H117.723L115.273 110.617V110.658ZM112.455 111.026L111.72 111.434C111.72 111.434 111.23 111.271 110.455 110.862L111.435 108.372L112.455 111.026Z" fill="#1D6A15"/>
<path d="M117.682 116.742H117.437L117.192 116.62L113.925 114.782L113.517 114.537L111.72 113.517C111.557 113.598 110.781 114.007 109.842 114.537C109.475 114.742 109.107 114.946 108.74 115.109C107.719 115.64 106.616 116.212 105.881 116.62C105.8 116.62 105.759 116.702 105.677 116.742H105.105L105.35 116.13L105.84 114.905L106.535 114.66L110.74 112.659L110.618 112.577L109.965 112.128L109.597 111.883C108.821 111.393 108.495 110.74 108.372 110.291C108.25 109.882 108.29 109.597 108.29 109.597C108.372 109.678 108.495 109.719 108.576 109.801C109.27 110.25 109.924 110.617 110.414 110.862C111.19 111.23 111.68 111.434 111.68 111.434L112.415 111.026L111.394 108.372L109.597 107.31L108.985 106.983L109.72 105.146H113.027L115.232 110.658L114.824 110.985L113.15 112.251C113.15 112.251 115.436 114.007 116.212 114.782C116.335 114.905 116.457 115.027 116.58 115.191C117.029 115.762 117.478 116.416 117.682 116.783V116.742Z" fill="#BCDC07"/>
<defs>
<linearGradient id="paint0_linear_849_10253" x1="66.6808" y1="35.8107" x2="72.3975" y2="50.3882" gradientUnits="userSpaceOnUse">
<stop stop-color="#23780E"/>
<stop offset="1" stop-color="#183E18"/>
</linearGradient>
<linearGradient id="paint1_linear_849_10253" x1="60.3919" y1="38.9957" x2="85.1777" y2="96.489" gradientUnits="userSpaceOnUse">
<stop stop-color="#84949E"/>
<stop offset="1" stop-color="#5F6E74"/>
</linearGradient>
<linearGradient id="paint2_linear_849_10253" x1="68.1093" y1="36.1783" x2="74.5201" y2="47.7341" gradientUnits="userSpaceOnUse">
<stop stop-color="#7ABD05"/>
<stop offset="1" stop-color="#4C9103"/>
</linearGradient>
<linearGradient id="paint3_linear_849_10253" x1="106.451" y1="47.3259" x2="99.6731" y2="61.6584" gradientUnits="userSpaceOnUse">
<stop stop-color="#278A22"/>
<stop offset="1" stop-color="#0C2C1F"/>
</linearGradient>
<linearGradient id="paint4_linear_849_10253" x1="73.9891" y1="77.9916" x2="86.1166" y2="91.3849" gradientUnits="userSpaceOnUse">
<stop stop-color="#297107"/>
<stop offset="1" stop-color="#14301B"/>
</linearGradient>
<linearGradient id="paint5_linear_849_10253" x1="48.1413" y1="83.9942" x2="33.9313" y2="92.2833" gradientUnits="userSpaceOnUse">
<stop stop-color="#8D9A9E"/>
<stop offset="1" stop-color="#44525D"/>
</linearGradient>
<linearGradient id="paint6_linear_849_10253" x1="73.2141" y1="81.626" x2="70.2741" y2="89.2209" gradientUnits="userSpaceOnUse">
<stop stop-color="#74B804" stop-opacity="0"/>
<stop offset="0.2" stop-color="#5BA009" stop-opacity="0.09"/>
<stop offset="0.4" stop-color="#41870E" stop-opacity="0.36"/>
<stop offset="0.6" stop-color="#2E7512" stop-opacity="0.64"/>
<stop offset="0.8" stop-color="#226A15"/>
<stop offset="1" stop-color="#1F6716"/>
</linearGradient>
<linearGradient id="paint7_linear_849_10253" x1="33.9739" y1="111.23" x2="94.9381" y2="111.23" gradientUnits="userSpaceOnUse">
<stop stop-color="#24303C"/>
<stop offset="1" stop-color="#2A760F"/>
</linearGradient>
<linearGradient id="paint8_linear_849_10253" x1="33.9731" y1="110.577" x2="94.9372" y2="110.577" gradientUnits="userSpaceOnUse">
<stop stop-color="#24303C"/>
<stop offset="1" stop-color="#2A760F"/>
</linearGradient>
<linearGradient id="paint9_linear_849_10253" x1="33.9732" y1="112.537" x2="94.9374" y2="112.537" gradientUnits="userSpaceOnUse">
<stop stop-color="#24303C"/>
<stop offset="1" stop-color="#2A760F"/>
</linearGradient>
<linearGradient id="paint10_linear_849_10253" x1="33.9743" y1="112.577" x2="94.9384" y2="112.577" gradientUnits="userSpaceOnUse">
<stop stop-color="#24303C"/>
<stop offset="1" stop-color="#2A760F"/>
</linearGradient>
<linearGradient id="paint11_linear_849_10253" x1="33.974" y1="4.99131e-06" x2="94.9382" y2="4.99131e-06" gradientUnits="userSpaceOnUse">
<stop stop-color="#24303C"/>
<stop offset="1" stop-color="#2A760F"/>
</linearGradient>
<linearGradient id="paint12_linear_849_10253" x1="33.9741" y1="112.618" x2="94.9382" y2="112.618" gradientUnits="userSpaceOnUse">
<stop stop-color="#24303C"/>
<stop offset="1" stop-color="#2A760F"/>
</linearGradient>
<linearGradient id="paint13_linear_849_10253" x1="33.9736" y1="110.944" x2="94.9378" y2="110.944" gradientUnits="userSpaceOnUse">
<stop stop-color="#24303C"/>
<stop offset="1" stop-color="#2A760F"/>
</linearGradient>
<linearGradient id="paint14_linear_849_10253" x1="100.899" y1="104.615" x2="100.899" y2="117.437" gradientUnits="userSpaceOnUse">
<stop stop-color="#7ABD05"/>
<stop offset="1" stop-color="#105018"/>
</linearGradient>
</defs>
</svg>
