<svg width="63" height="46" viewBox="0 0 63 46" fill="none" xmlns="http://www.w3.org/2000/svg">
<path d="M6.14258 45.7768C9.52315 45.7768 12.2853 43.0112 12.2853 39.6265V0H48.1524V39.6265C48.1524 43.0112 45.3902 45.7768 42.0096 45.7768" fill="#3FAE2A"/>
<path d="M35.8671 39.626V34.9617H0V39.626C0 43.0108 2.76218 45.7764 6.14275 45.7764H42.0098C38.6292 45.7764 35.8671 43.0108 35.8671 39.626Z" fill="#0A5239"/>
<path d="M23.2929 7.88354H18.7168V9.86487H23.2929V7.88354Z" fill="white"/>
<path d="M40.8961 7.88354H26.8379V9.86487H40.8961V7.88354Z" fill="#F7C604"/>
<path d="M23.2929 14.9011H18.7168V16.8824H23.2929V14.9011Z" fill="white"/>
<path d="M40.8961 14.9011H26.8379V16.8824H40.8961V14.9011Z" fill="#F7C604"/>
<path d="M23.2929 21.9185H18.7168V23.8998H23.2929V21.9185Z" fill="white"/>
<path d="M40.8961 21.9185H26.8379V23.8998H40.8961V21.9185Z" fill="#F7C604"/>
<path d="M23.2929 28.9355H18.7168V30.9169H23.2929V28.9355Z" fill="white"/>
<path d="M40.8961 28.9355H26.8379V30.9169H40.8961V28.9355Z" fill="#F7C604"/>
<path opacity="0.1" d="M48.1527 29.2656V5.6961C47.658 5.61354 47.1221 5.57227 46.5861 5.57227C40.0311 5.57227 34.7129 10.8971 34.7129 17.4602C34.7129 24.0233 40.0311 29.3481 46.5861 29.3481C47.1221 29.3894 47.658 29.3481 48.1527 29.2656Z" fill="#0C1E5B"/>
<path d="M50.7503 26.9959C57.3078 26.9959 62.6237 21.6734 62.6237 15.1078C62.6237 8.54219 57.3078 3.21973 50.7503 3.21973C44.1928 3.21973 38.877 8.54219 38.877 15.1078C38.877 21.6734 44.1928 26.9959 50.7503 26.9959Z" fill="#FF5B5B"/>
<path d="M52.8523 15.9329V8.54419H48.6471V15.9329H45.8438L50.7497 21.6705L55.6557 15.9329H52.8523Z" fill="white"/>
</svg>
